<ttFont>
<head>
    <!-- Most of this table will be recalculated by the compiler -->
    <tableVersion value="1.0"/>
    <fontRevision value="0.034"/>
    <checkSumAdjustment value="0xa39bacad"/>
    <magicNumber value="0x5f0f3cf5"/>
    <flags value="00100000 00000011"/>
    <unitsPerEm value="1024"/>
    <created value="Tue Apr  4 18:34:34 2017"/>
    <modified value="Fri Jan 19 17:33:13 2018"/>
    <xMin value="-458"/>
    <yMin value="-232"/>
    <xMax value="640"/>
    <yMax value="960"/>
    <macStyle value="00000000 00000000"/>
    <lowestRecPPEM value="7"/>
    <fontDirectionHint value="2"/>
    <indexToLocFormat value="0"/>
    <glyphDataFormat value="0"/>
  </head>
    <TTGlyph name=".notdef" xMin="34" yMin="-30" xMax="414" yMax="670">
      <contour>
        <pt x="414" y="670" on="1"/>
        <pt x="414" y="-30" on="1"/>
        <pt x="34" y="-30" on="1"/>
        <pt x="34" y="670" on="1"/>
      </contour>
      <contour>
        <pt x="190" y="576" on="0"/>
        <pt x="288" y="548" on="0"/>
        <pt x="316" y="512" on="0"/>
        <pt x="316" y="488" on="1"/>
        <pt x="316" y="462" on="0"/>
        <pt x="294" y="426" on="0"/>
        <pt x="269" y="398" on="1"/>
        <pt x="244" y="371" on="0"/>
        <pt x="211" y="325" on="0"/>
        <pt x="186" y="249" on="0"/>
        <pt x="185" y="195" on="1"/>
        <pt x="255" y="192" on="1"/>
        <pt x="256" y="256" on="0"/>
        <pt x="294" y="332" on="0"/>
        <pt x="330" y="371" on="1"/>
        <pt x="360" y="405" on="0"/>
        <pt x="388" y="455" on="0"/>
        <pt x="388" y="494" on="1"/>
        <pt x="388" y="566" on="0"/>
        <pt x="257" y="640" on="0"/>
        <pt x="96" y="645" on="1"/>
        <pt x="93" y="581" on="1"/>
      </contour>
      <contour>
        <pt x="252" y="-10" on="0"/>
        <pt x="288" y="24" on="0"/>
        <pt x="288" y="54" on="1"/>
        <pt x="288" y="84" on="0"/>
        <pt x="251" y="118" on="0"/>
        <pt x="224" y="118" on="1"/>
        <pt x="197" y="118" on="0"/>
        <pt x="160" y="84" on="0"/>
        <pt x="160" y="54" on="1"/>
        <pt x="160" y="24" on="0"/>
        <pt x="196" y="-10" on="0"/>
        <pt x="224" y="-10" on="1"/>
      </contour>
    </TTGlyph>
    <TTGlyph name="A" xMin="39" yMin="-2" xMax="410" yMax="643">
      <contour>
        <pt x="334" y="117" on="0"/>
        <pt x="320" y="200" on="1"/>
        <pt x="128" y="200" on="1"/>
        <pt x="111" y="89" on="0"/>
        <pt x="103" y="-2" on="1"/>
        <pt x="39" y="3" on="1"/>
        <pt x="54" y="188" on="0"/>
        <pt x="135" y="521" on="0"/>
        <pt x="197" y="643" on="1"/>
        <pt x="251" y="643" on="1"/>
        <pt x="313" y="521" on="0"/>
        <pt x="394" y="189" on="0"/>
        <pt x="410" y="3" on="1"/>
        <pt x="346" y="-2" on="1"/>
      </contour>
      <contour>
        <pt x="310" y="260" on="1"/>
        <pt x="275" y="436" on="0"/>
        <pt x="224" y="557" on="1"/>
        <pt x="172" y="434" on="0"/>
        <pt x="139" y="260" on="1"/>
      </contour>
    </TTGlyph>
    <TTGlyph name="A.sups" xMin="128" yMin="320" xMax="320" yMax="640">
      <contour>
        <pt x="320" y="320" on="1"/>
        <pt x="256" y="320" on="1"/>
        <pt x="256" y="448" on="1"/>
        <pt x="192" y="448" on="1"/>
        <pt x="192" y="320" on="1"/>
        <pt x="128" y="320" on="1"/>
        <pt x="128" y="640" on="1"/>
        <pt x="320" y="640" on="1"/>
      </contour>
      <contour>
        <pt x="256" y="576" on="1"/>
        <pt x="192" y="576" on="1"/>
        <pt x="192" y="512" on="1"/>
        <pt x="256" y="512" on="1"/>
      </contour>
    </TTGlyph>
    <TTGlyph name="AE" xMin="-18" yMin="-2" xMax="458" yMax="640">
      <contour>
        <pt x="458" y="64" on="1"/>
        <pt x="458" y="0" on="1"/>
        <pt x="199" y="0" on="1"/>
        <pt x="199" y="192" on="1"/>
        <pt x="79" y="192" on="1"/>
        <pt x="64" y="93" on="0"/>
        <pt x="56" y="-2" on="1"/>
        <pt x="-18" y="3" on="1"/>
        <pt x="-3" y="188" on="0"/>
        <pt x="76" y="519" on="0"/>
        <pt x="136" y="640" on="1"/>
        <pt x="448" y="640" on="1"/>
        <pt x="448" y="576" on="1"/>
        <pt x="271" y="576" on="1"/>
        <pt x="271" y="320" on="1"/>
        <pt x="394" y="320" on="1"/>
        <pt x="394" y="256" on="1"/>
        <pt x="271" y="256" on="1"/>
        <pt x="271" y="64" on="1"/>
      </contour>
      <contour>
        <pt x="199" y="256" on="1"/>
        <pt x="199" y="576" on="1"/>
        <pt x="181" y="576" on="1"/>
        <pt x="125" y="449" on="0"/>
        <pt x="90" y="256" on="1"/>
      </contour>
    </TTGlyph>
    <TTGlyph name="AEacute" xMin="-18" yMin="-2" xMax="458" yMax="859">
      <component glyphName="AE" x="0" y="0" flags="0x0"/>
      <component glyphName="acutecomb.case" x="448" y="0" flags="0x0"/>
    </TTGlyph>
    <TTGlyph name="Aacute" xMin="39" yMin="-2" xMax="410" yMax="859">
      <component glyphName="A" x="0" y="0" flags="0x0"/>
      <component glyphName="acutecomb.case" x="448" y="0" flags="0x0"/>
    </TTGlyph>
    <TTGlyph name="Abreve" xMin="39" yMin="-2" xMax="410" yMax="832">
      <component glyphName="A" x="0" y="0" flags="0x0"/>
      <component glyphName="uni0306.case" x="448" y="0" flags="0x0"/>
    </TTGlyph>
    <TTGlyph name="Acircumflex" xMin="39" yMin="-2" xMax="410" yMax="841">
      <component glyphName="A" x="0" y="0" flags="0x0"/>
      <component glyphName="uni0302.case" x="448" y="0" flags="0x0"/>
    </TTGlyph>
    <TTGlyph name="Adieresis" xMin="39" yMin="-2" xMax="410" yMax="820">
      <component glyphName="A" x="0" y="0" flags="0x0"/>
      <component glyphName="uni0308.case" x="448" y="0" flags="0x0"/>
    </TTGlyph>
    <TTGlyph name="Agrave" xMin="39" yMin="-2" xMax="410" yMax="859">
      <component glyphName="A" x="0" y="0" flags="0x0"/>
      <component glyphName="gravecomb.case" x="448" y="0" flags="0x0"/>
    </TTGlyph>
    <TTGlyph name="Alpha" xMin="39" yMin="-2" xMax="410" yMax="643">
      <component glyphName="A" x="0" y="0" flags="0x0"/>
    </TTGlyph>
    <TTGlyph name="Alphatonos" xMin="-10" yMin="-2" xMax="410" yMax="704">
      <component glyphName="A" x="0" y="0" flags="0x0"/>
      <component glyphName="tonos" x="-192" y="0" flags="0x0"/>
    </TTGlyph>
    <TTGlyph name="Amacron" xMin="39" yMin="-2" xMax="410" yMax="766">
      <component glyphName="A" x="0" y="0" flags="0x0"/>
      <component glyphName="uni0304.case" x="448" y="0" flags="0x0"/>
    </TTGlyph>
    <TTGlyph name="Aogonek" xMin="39" yMin="-197" xMax="426" yMax="643">
      <contour>
        <pt x="426" y="-181" on="1"/>
        <pt x="398" y="-197" on="0"/>
        <pt x="362" y="-197" on="1"/>
        <pt x="321" y="-197" on="0"/>
        <pt x="278" y="-156" on="0"/>
        <pt x="278" y="-119" on="1"/>
        <pt x="278" y="-58" on="0"/>
        <pt x="346" y="0" on="1"/>
        <pt x="334" y="120" on="0"/>
        <pt x="320" y="200" on="1"/>
        <pt x="128" y="200" on="1"/>
        <pt x="111" y="89" on="0"/>
        <pt x="103" y="-2" on="1"/>
        <pt x="39" y="3" on="1"/>
        <pt x="54" y="188" on="0"/>
        <pt x="135" y="521" on="0"/>
        <pt x="197" y="643" on="1"/>
        <pt x="251" y="643" on="1"/>
        <pt x="313" y="521" on="0"/>
        <pt x="394" y="190" on="0"/>
        <pt x="410" y="4" on="1"/>
        <pt x="412" y="3" on="1"/>
        <pt x="380" y="-31" on="0"/>
        <pt x="348" y="-84" on="0"/>
        <pt x="348" y="-108" on="1"/>
        <pt x="348" y="-124" on="0"/>
        <pt x="361" y="-136" on="0"/>
        <pt x="374" y="-136" on="1"/>
        <pt x="391" y="-136" on="0"/>
        <pt x="409" y="-128" on="1"/>
      </contour>
      <contour>
        <pt x="310" y="260" on="1"/>
        <pt x="275" y="436" on="0"/>
        <pt x="224" y="557" on="1"/>
        <pt x="172" y="434" on="0"/>
        <pt x="139" y="260" on="1"/>
      </contour>
    </TTGlyph>
    <TTGlyph name="Aring" xMin="39" yMin="-2" xMax="410" yMax="889">
      <component glyphName="A" x="0" y="0" flags="0x0"/>
      <component glyphName="uni030A.case" x="448" y="0" flags="0x0"/>
    </TTGlyph>
    <TTGlyph name="Aringacute" xMin="39" yMin="-2" xMax="410" yMax="924">
      <contour>
        <pt x="334" y="117" on="0"/>
        <pt x="320" y="200" on="1"/>
        <pt x="128" y="200" on="1"/>
        <pt x="111" y="89" on="0"/>
        <pt x="103" y="-2" on="1"/>
        <pt x="39" y="3" on="1"/>
        <pt x="53" y="171" on="0"/>
        <pt x="123" y="479" on="0"/>
        <pt x="176" y="599" on="1"/>
        <pt x="151" y="612" on="0"/>
        <pt x="121" y="661" on="0"/>
        <pt x="121" y="690" on="1"/>
        <pt x="121" y="724" on="0"/>
        <pt x="160" y="777" on="0"/>
        <pt x="192" y="787" on="1"/>
        <pt x="176" y="803" on="1"/>
        <pt x="272" y="924" on="1"/>
        <pt x="334" y="873" on="1"/>
        <pt x="245" y="790" on="1"/>
        <pt x="281" y="783" on="0"/>
        <pt x="327" y="727" on="0"/>
        <pt x="327" y="690" on="1"/>
        <pt x="327" y="661" on="0"/>
        <pt x="297" y="612" on="0"/>
        <pt x="272" y="599" on="1"/>
        <pt x="325" y="479" on="0"/>
        <pt x="395" y="172" on="0"/>
        <pt x="410" y="3" on="1"/>
        <pt x="346" y="-2" on="1"/>
      </contour>
      <contour>
        <pt x="205" y="736" on="0"/>
        <pt x="180" y="709" on="0"/>
        <pt x="180" y="690" on="1"/>
        <pt x="180" y="671" on="0"/>
        <pt x="205" y="644" on="0"/>
        <pt x="224" y="644" on="1"/>
        <pt x="243" y="644" on="0"/>
        <pt x="268" y="671" on="0"/>
        <pt x="268" y="690" on="1"/>
        <pt x="268" y="709" on="0"/>
        <pt x="243" y="736" on="0"/>
        <pt x="224" y="736" on="1"/>
      </contour>
      <contour>
        <pt x="310" y="260" on="1"/>
        <pt x="275" y="436" on="0"/>
        <pt x="224" y="557" on="1"/>
        <pt x="172" y="434" on="0"/>
        <pt x="139" y="260" on="1"/>
      </contour>
    </TTGlyph>
    <TTGlyph name="Atilde" xMin="39" yMin="-2" xMax="410" yMax="832">
      <component glyphName="A" x="0" y="0" flags="0x0"/>
      <component glyphName="tildecomb.case" x="448" y="0" flags="0x0"/>
    </TTGlyph>
    <TTGlyph name="B" xMin="62" yMin="0" xMax="409" yMax="640">
      <contour>
        <pt x="348" y="298" on="0"/>
        <pt x="409" y="223" on="0"/>
        <pt x="409" y="166" on="1"/>
        <pt x="409" y="87" on="0"/>
        <pt x="302" y="0" on="0"/>
        <pt x="211" y="0" on="1"/>
        <pt x="62" y="0" on="1"/>
        <pt x="62" y="640" on="1"/>
        <pt x="191" y="640" on="1"/>
        <pt x="284" y="640" on="0"/>
        <pt x="388" y="557" on="0"/>
        <pt x="388" y="477" on="1"/>
        <pt x="388" y="385" on="0"/>
        <pt x="296" y="311" on="1"/>
      </contour>
      <contour>
        <pt x="124" y="332" on="1"/>
        <pt x="244" y="332" on="1"/>
        <pt x="281" y="359" on="0"/>
        <pt x="320" y="438" on="0"/>
        <pt x="320" y="479" on="1"/>
        <pt x="320" y="532" on="0"/>
        <pt x="257" y="584" on="0"/>
        <pt x="186" y="584" on="1"/>
        <pt x="124" y="584" on="1"/>
      </contour>
      <contour>
        <pt x="278" y="56" on="0"/>
        <pt x="343" y="111" on="0"/>
        <pt x="343" y="168" on="1"/>
        <pt x="343" y="276" on="0"/>
        <pt x="205" y="276" on="1"/>
        <pt x="124" y="276" on="1"/>
        <pt x="124" y="56" on="1"/>
        <pt x="205" y="56" on="1"/>
      </contour>
    </TTGlyph>
    <TTGlyph name="B.sups" xMin="128" yMin="320" xMax="320" yMax="640">
      <contour>
        <pt x="320" y="512" on="1"/>
        <pt x="256" y="512" on="1"/>
        <pt x="256" y="576" on="1"/>
        <pt x="192" y="576" on="1"/>
        <pt x="192" y="512" on="1"/>
        <pt x="256" y="512" on="1"/>
        <pt x="256" y="448" on="1"/>
        <pt x="192" y="448" on="1"/>
        <pt x="192" y="384" on="1"/>
        <pt x="256" y="384" on="1"/>
        <pt x="256" y="448" on="1"/>
        <pt x="320" y="448" on="1"/>
        <pt x="320" y="320" on="1"/>
        <pt x="128" y="320" on="1"/>
        <pt x="128" y="640" on="1"/>
        <pt x="320" y="640" on="1"/>
      </contour>
    </TTGlyph>
    <TTGlyph name="Beta" xMin="62" yMin="0" xMax="409" yMax="640">
      <component glyphName="B" x="0" y="0" flags="0x0"/>
    </TTGlyph>
    <TTGlyph name="C" xMin="62" yMin="-9" xMax="382" yMax="647">
      <contour>
        <pt x="321" y="51" on="0"/>
        <pt x="368" y="62" on="1"/>
        <pt x="382" y="4" on="1"/>
        <pt x="328" y="-9" on="0"/>
        <pt x="273" y="-9" on="1"/>
        <pt x="195" y="-9" on="0"/>
        <pt x="104" y="55" on="0"/>
        <pt x="62" y="197" on="0"/>
        <pt x="62" y="319" on="1"/>
        <pt x="62" y="441" on="0"/>
        <pt x="104" y="583" on="0"/>
        <pt x="195" y="647" on="0"/>
        <pt x="273" y="647" on="1"/>
        <pt x="324" y="647" on="0"/>
        <pt x="376" y="636" on="1"/>
        <pt x="362" y="578" on="1"/>
        <pt x="317" y="587" on="0"/>
        <pt x="276" y="587" on="1"/>
        <pt x="210" y="587" on="0"/>
        <pt x="149" y="534" on="0"/>
        <pt x="131" y="426" on="0"/>
        <pt x="131" y="319" on="1"/>
        <pt x="131" y="212" on="0"/>
        <pt x="149" y="104" on="0"/>
        <pt x="210" y="51" on="0"/>
        <pt x="275" y="51" on="1"/>
      </contour>
    </TTGlyph>
    <TTGlyph name="C.sups" xMin="128" yMin="316" xMax="326" yMax="644">
      <contour>
        <pt x="281" y="370" on="0"/>
        <pt x="316" y="377" on="1"/>
        <pt x="326" y="326" on="1"/>
        <pt x="291" y="316" on="0"/>
        <pt x="252" y="316" on="1"/>
        <pt x="193" y="316" on="0"/>
        <pt x="128" y="400" on="0"/>
        <pt x="128" y="480" on="1"/>
        <pt x="128" y="560" on="0"/>
        <pt x="193" y="644" on="0"/>
        <pt x="252" y="644" on="1"/>
        <pt x="291" y="644" on="0"/>
        <pt x="326" y="634" on="1"/>
        <pt x="316" y="583" on="1"/>
        <pt x="281" y="590" on="0"/>
        <pt x="256" y="590" on="1"/>
        <pt x="223" y="590" on="0"/>
        <pt x="192" y="546" on="0"/>
        <pt x="192" y="480" on="1"/>
        <pt x="192" y="414" on="0"/>
        <pt x="223" y="370" on="0"/>
        <pt x="256" y="370" on="1"/>
      </contour>
    </TTGlyph>
    <TTGlyph name="Cacute" xMin="62" yMin="-9" xMax="382" yMax="859">
      <component glyphName="C" x="0" y="0" flags="0x0"/>
      <component glyphName="acutecomb.case" x="480" y="0" flags="0x0"/>
    </TTGlyph>
    <TTGlyph name="Ccaron" xMin="62" yMin="-9" xMax="382" yMax="841">
      <component glyphName="C" x="0" y="0" flags="0x0"/>
      <component glyphName="uni030C.case" x="480" y="0" flags="0x0"/>
    </TTGlyph>
    <TTGlyph name="Ccedilla" xMin="62" yMin="-192" xMax="382" yMax="647">
      <contour>
        <pt x="348" y="-3" on="0"/>
        <pt x="322" y="-6" on="1"/>
        <pt x="319" y="-93" on="0"/>
        <pt x="237" y="-192" on="0"/>
        <pt x="128" y="-192" on="1"/>
        <pt x="126" y="-128" on="1"/>
        <pt x="174" y="-126" on="0"/>
        <pt x="227" y="-105" on="0"/>
        <pt x="252" y="-55" on="0"/>
        <pt x="254" y="-9" on="1"/>
        <pt x="184" y="-5" on="0"/>
        <pt x="100" y="62" on="0"/>
        <pt x="62" y="202" on="0"/>
        <pt x="62" y="319" on="1"/>
        <pt x="62" y="441" on="0"/>
        <pt x="104" y="583" on="0"/>
        <pt x="195" y="647" on="0"/>
        <pt x="273" y="647" on="1"/>
        <pt x="324" y="647" on="0"/>
        <pt x="376" y="636" on="1"/>
        <pt x="362" y="578" on="1"/>
        <pt x="317" y="587" on="0"/>
        <pt x="276" y="587" on="1"/>
        <pt x="210" y="587" on="0"/>
        <pt x="149" y="534" on="0"/>
        <pt x="131" y="426" on="0"/>
        <pt x="131" y="319" on="1"/>
        <pt x="131" y="212" on="0"/>
        <pt x="149" y="104" on="0"/>
        <pt x="210" y="51" on="0"/>
        <pt x="275" y="51" on="1"/>
        <pt x="321" y="51" on="0"/>
        <pt x="368" y="62" on="1"/>
        <pt x="382" y="4" on="1"/>
      </contour>
    </TTGlyph>
    <TTGlyph name="Ccircumflex" xMin="62" yMin="-9" xMax="382" yMax="841">
      <component glyphName="C" x="0" y="0" flags="0x0"/>
      <component glyphName="uni0302.case" x="480" y="0" flags="0x0"/>
    </TTGlyph>
    <TTGlyph name="Cdotaccent" xMin="62" yMin="-9" xMax="382" yMax="815">
      <component glyphName="C" x="0" y="0" flags="0x0"/>
      <component glyphName="uni0307.case" x="480" y="0" flags="0x0"/>
    </TTGlyph>
    <TTGlyph name="Chi" xMin="51" yMin="-7" xMax="397" yMax="643">
      <component glyphName="X" x="0" y="0" flags="0x0"/>
    </TTGlyph>
    <TTGlyph name="D" xMin="62" yMin="0" xMax="392" yMax="640">
      <contour>
        <pt x="256" y="640" on="0"/>
        <pt x="349" y="574" on="0"/>
        <pt x="392" y="433" on="0"/>
        <pt x="392" y="317" on="1"/>
        <pt x="392" y="201" on="0"/>
        <pt x="349" y="63" on="0"/>
        <pt x="257" y="0" on="0"/>
        <pt x="181" y="0" on="1"/>
        <pt x="62" y="0" on="1"/>
        <pt x="62" y="640" on="1"/>
        <pt x="180" y="640" on="1"/>
      </contour>
      <contour>
        <pt x="240" y="56" on="0"/>
        <pt x="304" y="110" on="0"/>
        <pt x="324" y="217" on="0"/>
        <pt x="324" y="317" on="1"/>
        <pt x="324" y="419" on="0"/>
        <pt x="303" y="529" on="0"/>
        <pt x="239" y="584" on="0"/>
        <pt x="174" y="584" on="1"/>
        <pt x="124" y="584" on="1"/>
        <pt x="124" y="56" on="1"/>
        <pt x="174" y="56" on="1"/>
      </contour>
    </TTGlyph>
    <TTGlyph name="D.sups" xMin="128" yMin="320" xMax="320" yMax="640">
      <contour>
        <pt x="256" y="384" on="1"/>
        <pt x="256" y="320" on="1"/>
        <pt x="128" y="320" on="1"/>
        <pt x="128" y="640" on="1"/>
        <pt x="256" y="640" on="1"/>
        <pt x="256" y="576" on="1"/>
        <pt x="192" y="576" on="1"/>
        <pt x="192" y="384" on="1"/>
      </contour>
      <contour>
        <pt x="320" y="576" on="1"/>
        <pt x="320" y="384" on="1"/>
        <pt x="256" y="384" on="1"/>
        <pt x="256" y="576" on="1"/>
      </contour>
    </TTGlyph>
    <TTGlyph name="Dcaron" xMin="62" yMin="0" xMax="392" yMax="841">
      <component glyphName="D" x="0" y="0" flags="0x0"/>
      <component glyphName="uni030C.case" x="436" y="0" flags="0x0"/>
    </TTGlyph>
    <TTGlyph name="Dcroat" xMin="8" yMin="0" xMax="392" yMax="640">
      <component glyphName="Eth" x="0" y="0" flags="0x0"/>
    </TTGlyph>
    <TTGlyph name="E" xMin="62" yMin="0" xMax="379" yMax="640">
      <contour>
        <pt x="62" y="640" on="1"/>
        <pt x="369" y="640" on="1"/>
        <pt x="369" y="584" on="1"/>
        <pt x="124" y="584" on="1"/>
        <pt x="124" y="316" on="1"/>
        <pt x="315" y="316" on="1"/>
        <pt x="315" y="260" on="1"/>
        <pt x="124" y="260" on="1"/>
        <pt x="124" y="56" on="1"/>
        <pt x="379" y="56" on="1"/>
        <pt x="379" y="0" on="1"/>
        <pt x="62" y="0" on="1"/>
      </contour>
    </TTGlyph>
    <TTGlyph name="E.sups" xMin="128" yMin="320" xMax="320" yMax="640">
      <contour>
        <pt x="192" y="512" on="1"/>
        <pt x="320" y="512" on="1"/>
        <pt x="320" y="448" on="1"/>
        <pt x="192" y="448" on="1"/>
        <pt x="192" y="384" on="1"/>
        <pt x="320" y="384" on="1"/>
        <pt x="320" y="320" on="1"/>
        <pt x="128" y="320" on="1"/>
        <pt x="128" y="640" on="1"/>
        <pt x="320" y="640" on="1"/>
        <pt x="320" y="576" on="1"/>
        <pt x="192" y="576" on="1"/>
      </contour>
    </TTGlyph>
    <TTGlyph name="Eacute" xMin="62" yMin="0" xMax="379" yMax="859">
      <component glyphName="E" x="0" y="0" flags="0x0"/>
      <component glyphName="acutecomb.case" x="444" y="0" flags="0x0"/>
    </TTGlyph>
    <TTGlyph name="Ebreve" xMin="60" yMin="0" xMax="380" yMax="832">
      <component glyphName="E" x="0" y="0" flags="0x0"/>
      <component glyphName="uni0306.case" x="444" y="0" flags="0x0"/>
    </TTGlyph>
    <TTGlyph name="Ecaron" xMin="62" yMin="0" xMax="379" yMax="841">
      <component glyphName="E" x="0" y="0" flags="0x0"/>
      <component glyphName="uni030C.case" x="444" y="0" flags="0x0"/>
    </TTGlyph>
    <TTGlyph name="Ecircumflex" xMin="62" yMin="0" xMax="379" yMax="841">
      <component glyphName="E" x="0" y="0" flags="0x0"/>
      <component glyphName="uni0302.case" x="444" y="0" flags="0x0"/>
    </TTGlyph>
    <TTGlyph name="Edieresis" xMin="62" yMin="0" xMax="379" yMax="820">
      <component glyphName="E" x="0" y="0" flags="0x0"/>
      <component glyphName="uni0308.case" x="444" y="0" flags="0x0"/>
    </TTGlyph>
    <TTGlyph name="Edotaccent" xMin="62" yMin="0" xMax="379" yMax="815">
      <component glyphName="E" x="0" y="0" flags="0x0"/>
      <component glyphName="uni0307.case" x="444" y="0" flags="0x0"/>
    </TTGlyph>
    <TTGlyph name="Egrave" xMin="62" yMin="0" xMax="379" yMax="859">
      <component glyphName="E" x="0" y="0" flags="0x0"/>
      <component glyphName="gravecomb.case" x="444" y="0" flags="0x0"/>
    </TTGlyph>
    <TTGlyph name="Emacron" xMin="62" yMin="0" xMax="379" yMax="766">
      <component glyphName="E" x="0" y="0" flags="0x0"/>
      <component glyphName="uni0304.case" x="444" y="0" flags="0x0"/>
    </TTGlyph>
    <TTGlyph name="Eng" xMin="62" yMin="-196" xMax="388" yMax="640">
      <contour>
        <pt x="388" y="640" on="1"/>
        <pt x="388" y="-5" on="1"/>
        <pt x="388" y="-77" on="0"/>
        <pt x="334" y="-168" on="0"/>
        <pt x="268" y="-196" on="1"/>
        <pt x="239" y="-136" on="1"/>
        <pt x="284" y="-117" on="0"/>
        <pt x="316" y="-66" on="0"/>
        <pt x="316" y="-13" on="1"/>
        <pt x="316" y="2" on="1"/>
        <pt x="311" y="0" on="1"/>
        <pt x="167" y="384" on="1"/>
        <pt x="124" y="530" on="1"/>
        <pt x="124" y="0" on="1"/>
        <pt x="62" y="0" on="1"/>
        <pt x="62" y="640" on="1"/>
        <pt x="137" y="640" on="1"/>
        <pt x="281" y="256" on="1"/>
        <pt x="316" y="136" on="1"/>
        <pt x="316" y="640" on="1"/>
      </contour>
    </TTGlyph>
    <TTGlyph name="Eogonek" xMin="62" yMin="-197" xMax="399" yMax="640">
      <contour>
        <pt x="399" y="-181" on="1"/>
        <pt x="371" y="-197" on="0"/>
        <pt x="335" y="-197" on="1"/>
        <pt x="294" y="-197" on="0"/>
        <pt x="251" y="-156" on="0"/>
        <pt x="251" y="-119" on="1"/>
        <pt x="251" y="-86" on="0"/>
        <pt x="288" y="-25" on="0"/>
        <pt x="318" y="0" on="1"/>
        <pt x="62" y="0" on="1"/>
        <pt x="62" y="640" on="1"/>
        <pt x="369" y="640" on="1"/>
        <pt x="369" y="584" on="1"/>
        <pt x="124" y="584" on="1"/>
        <pt x="124" y="316" on="1"/>
        <pt x="315" y="316" on="1"/>
        <pt x="315" y="260" on="1"/>
        <pt x="124" y="260" on="1"/>
        <pt x="124" y="56" on="1"/>
        <pt x="379" y="56" on="1"/>
        <pt x="379" y="6" on="1"/>
        <pt x="385" y="3" on="1"/>
        <pt x="353" y="-31" on="0"/>
        <pt x="321" y="-84" on="0"/>
        <pt x="321" y="-108" on="1"/>
        <pt x="321" y="-124" on="0"/>
        <pt x="334" y="-136" on="0"/>
        <pt x="347" y="-136" on="1"/>
        <pt x="364" y="-136" on="0"/>
        <pt x="382" y="-128" on="1"/>
      </contour>
    </TTGlyph>
    <TTGlyph name="Epsilon" xMin="62" yMin="0" xMax="379" yMax="640">
      <component glyphName="E" x="0" y="0" flags="0x0"/>
    </TTGlyph>
    <TTGlyph name="Epsilontonos" xMin="-74" yMin="0" xMax="379" yMax="704">
      <component glyphName="E" x="0" y="0" flags="0x0"/>
      <component glyphName="tonos" x="-256" y="0" flags="0x0"/>
    </TTGlyph>
    <TTGlyph name="Eta" xMin="62" yMin="0" xMax="386" yMax="640">
      <component glyphName="H" x="0" y="0" flags="0x0"/>
    </TTGlyph>
    <TTGlyph name="Etatonos" xMin="-74" yMin="0" xMax="386" yMax="704">
      <component glyphName="H" x="0" y="0" flags="0x0"/>
      <component glyphName="tonos" x="-256" y="0" flags="0x0"/>
    </TTGlyph>
    <TTGlyph name="Eth" xMin="8" yMin="0" xMax="392" yMax="640">
      <contour>
        <pt x="256" y="640" on="0"/>
        <pt x="349" y="574" on="0"/>
        <pt x="392" y="433" on="0"/>
        <pt x="392" y="317" on="1"/>
        <pt x="392" y="201" on="0"/>
        <pt x="349" y="63" on="0"/>
        <pt x="257" y="0" on="0"/>
        <pt x="181" y="0" on="1"/>
        <pt x="62" y="0" on="1"/>
        <pt x="62" y="260" on="1"/>
        <pt x="8" y="260" on="1"/>
        <pt x="8" y="316" on="1"/>
        <pt x="62" y="316" on="1"/>
        <pt x="62" y="640" on="1"/>
        <pt x="180" y="640" on="1"/>
      </contour>
      <contour>
        <pt x="240" y="56" on="0"/>
        <pt x="304" y="110" on="0"/>
        <pt x="324" y="217" on="0"/>
        <pt x="324" y="317" on="1"/>
        <pt x="324" y="419" on="0"/>
        <pt x="303" y="529" on="0"/>
        <pt x="239" y="584" on="0"/>
        <pt x="174" y="584" on="1"/>
        <pt x="124" y="584" on="1"/>
        <pt x="124" y="316" on="1"/>
        <pt x="234" y="316" on="1"/>
        <pt x="234" y="260" on="1"/>
        <pt x="124" y="260" on="1"/>
        <pt x="124" y="56" on="1"/>
        <pt x="174" y="56" on="1"/>
      </contour>
    </TTGlyph>
    <TTGlyph name="Euro" xMin="64" yMin="-7" xMax="409" yMax="583">
      <contour>
        <pt x="348" y="57" on="0"/>
        <pt x="393" y="72" on="1"/>
        <pt x="409" y="13" on="1"/>
        <pt x="386" y="3" on="0"/>
        <pt x="331" y="-7" on="0"/>
        <pt x="308" y="-7" on="1"/>
        <pt x="225" y="-7" on="0"/>
        <pt x="132" y="93" on="0"/>
        <pt x="118" y="192" on="1"/>
        <pt x="64" y="192" on="1"/>
        <pt x="64" y="254" on="1"/>
        <pt x="113" y="254" on="1"/>
        <pt x="112" y="265" on="0"/>
        <pt x="112" y="288" on="1"/>
        <pt x="112" y="311" on="0"/>
        <pt x="113" y="322" on="1"/>
        <pt x="64" y="322" on="1"/>
        <pt x="64" y="384" on="1"/>
        <pt x="118" y="384" on="1"/>
        <pt x="146" y="583" on="0"/>
        <pt x="308" y="583" on="1"/>
        <pt x="331" y="583" on="0"/>
        <pt x="386" y="573" on="0"/>
        <pt x="409" y="563" on="1"/>
        <pt x="393" y="504" on="1"/>
        <pt x="348" y="519" on="0"/>
        <pt x="308" y="519" on="1"/>
        <pt x="259" y="519" on="0"/>
        <pt x="200" y="455" on="0"/>
        <pt x="190" y="384" on="1"/>
        <pt x="367" y="384" on="1"/>
        <pt x="352" y="322" on="1"/>
        <pt x="185" y="322" on="1"/>
        <pt x="184" y="311" on="0"/>
        <pt x="184" y="288" on="1"/>
        <pt x="184" y="265" on="0"/>
        <pt x="185" y="254" on="1"/>
        <pt x="339" y="254" on="1"/>
        <pt x="325" y="192" on="1"/>
        <pt x="190" y="192" on="1"/>
        <pt x="200" y="119" on="0"/>
        <pt x="258" y="57" on="0"/>
        <pt x="308" y="57" on="1"/>
      </contour>
    </TTGlyph>
    <TTGlyph name="F" xMin="63" yMin="0" xMax="379" yMax="640">
      <contour>
        <pt x="63" y="640" on="1"/>
        <pt x="379" y="640" on="1"/>
        <pt x="379" y="584" on="1"/>
        <pt x="125" y="584" on="1"/>
        <pt x="125" y="316" on="1"/>
        <pt x="315" y="316" on="1"/>
        <pt x="315" y="260" on="1"/>
        <pt x="125" y="260" on="1"/>
        <pt x="125" y="0" on="1"/>
        <pt x="63" y="0" on="1"/>
      </contour>
    </TTGlyph>
    <TTGlyph name="F.sups" xMin="128" yMin="320" xMax="320" yMax="640">
      <contour>
        <pt x="128" y="640" on="1"/>
        <pt x="320" y="640" on="1"/>
        <pt x="320" y="584" on="1"/>
        <pt x="192" y="584" on="1"/>
        <pt x="192" y="504" on="1"/>
        <pt x="300" y="504" on="1"/>
        <pt x="300" y="448" on="1"/>
        <pt x="192" y="448" on="1"/>
        <pt x="192" y="320" on="1"/>
        <pt x="128" y="320" on="1"/>
      </contour>
    </TTGlyph>
    <TTGlyph name="G" xMin="57" yMin="-9" xMax="386" yMax="647">
      <contour>
        <pt x="386" y="318" on="1"/>
        <pt x="386" y="7" on="1"/>
        <pt x="359" y="-1" on="0"/>
        <pt x="293" y="-9" on="0"/>
        <pt x="267" y="-9" on="1"/>
        <pt x="189" y="-9" on="0"/>
        <pt x="98" y="55" on="0"/>
        <pt x="57" y="197" on="0"/>
        <pt x="57" y="319" on="1"/>
        <pt x="57" y="441" on="0"/>
        <pt x="98" y="583" on="0"/>
        <pt x="189" y="647" on="0"/>
        <pt x="267" y="647" on="1"/>
        <pt x="324" y="647" on="0"/>
        <pt x="383" y="633" on="1"/>
        <pt x="369" y="575" on="1"/>
        <pt x="317" y="587" on="0"/>
        <pt x="269" y="587" on="1"/>
        <pt x="204" y="587" on="0"/>
        <pt x="142" y="534" on="0"/>
        <pt x="124" y="426" on="0"/>
        <pt x="124" y="319" on="1"/>
        <pt x="124" y="212" on="0"/>
        <pt x="143" y="104" on="0"/>
        <pt x="206" y="51" on="0"/>
        <pt x="274" y="51" on="1"/>
        <pt x="293" y="51" on="0"/>
        <pt x="324" y="54" on="1"/>
        <pt x="324" y="258" on="1"/>
        <pt x="230" y="258" on="1"/>
        <pt x="230" y="318" on="1"/>
      </contour>
    </TTGlyph>
    <TTGlyph name="G.sups" xMin="128" yMin="320" xMax="320" yMax="640">
      <contour>
        <pt x="192" y="576" on="1"/>
        <pt x="192" y="640" on="1"/>
        <pt x="320" y="640" on="1"/>
        <pt x="320" y="576" on="1"/>
      </contour>
      <contour>
        <pt x="128" y="384" on="1"/>
        <pt x="128" y="576" on="1"/>
        <pt x="192" y="576" on="1"/>
        <pt x="192" y="384" on="1"/>
      </contour>
      <contour>
        <pt x="192" y="384" on="1"/>
        <pt x="256" y="384" on="1"/>
        <pt x="256" y="512" on="1"/>
        <pt x="320" y="512" on="1"/>
        <pt x="320" y="320" on="1"/>
        <pt x="192" y="320" on="1"/>
      </contour>
    </TTGlyph>
    <TTGlyph name="Gamma" xMin="62" yMin="0" xMax="382" yMax="640">
      <component glyphName="uni0413" x="0" y="0" flags="0x0"/>
    </TTGlyph>
    <TTGlyph name="Gbreve" xMin="57" yMin="-9" xMax="404" yMax="832">
      <component glyphName="G" x="0" y="0" flags="0x0"/>
      <component glyphName="uni0306.case" x="468" y="0" flags="0x0"/>
    </TTGlyph>
    <TTGlyph name="Gcircumflex" xMin="57" yMin="-9" xMax="386" yMax="841">
      <component glyphName="G" x="0" y="0" flags="0x0"/>
      <component glyphName="uni0302.case" x="468" y="0" flags="0x0"/>
    </TTGlyph>
    <TTGlyph name="Gdotaccent" xMin="57" yMin="-9" xMax="386" yMax="815">
      <component glyphName="G" x="0" y="0" flags="0x0"/>
      <component glyphName="uni0307.case" x="468" y="0" flags="0x0"/>
    </TTGlyph>
    <TTGlyph name="H" xMin="62" yMin="0" xMax="386" yMax="640">
      <contour>
        <pt x="62" y="640" on="1"/>
        <pt x="124" y="640" on="1"/>
        <pt x="124" y="316" on="1"/>
        <pt x="324" y="316" on="1"/>
        <pt x="324" y="640" on="1"/>
        <pt x="386" y="640" on="1"/>
        <pt x="386" y="0" on="1"/>
        <pt x="324" y="0" on="1"/>
        <pt x="324" y="260" on="1"/>
        <pt x="124" y="260" on="1"/>
        <pt x="124" y="0" on="1"/>
        <pt x="62" y="0" on="1"/>
      </contour>
    </TTGlyph>
    <TTGlyph name="H.sups" xMin="128" yMin="320" xMax="320" yMax="640">
      <contour>
        <pt x="192" y="508" on="1"/>
        <pt x="256" y="508" on="1"/>
        <pt x="256" y="640" on="1"/>
        <pt x="320" y="640" on="1"/>
        <pt x="320" y="320" on="1"/>
        <pt x="256" y="320" on="1"/>
        <pt x="256" y="452" on="1"/>
        <pt x="192" y="452" on="1"/>
        <pt x="192" y="320" on="1"/>
        <pt x="128" y="320" on="1"/>
        <pt x="128" y="640" on="1"/>
        <pt x="192" y="640" on="1"/>
      </contour>
    </TTGlyph>
    <TTGlyph name="Hbar" xMin="10" yMin="0" xMax="438" yMax="640">
      <contour>
        <pt x="438" y="445" on="1"/>
        <pt x="386" y="445" on="1"/>
        <pt x="386" y="0" on="1"/>
        <pt x="324" y="0" on="1"/>
        <pt x="324" y="260" on="1"/>
        <pt x="124" y="260" on="1"/>
        <pt x="124" y="0" on="1"/>
        <pt x="62" y="0" on="1"/>
        <pt x="62" y="445" on="1"/>
        <pt x="10" y="445" on="1"/>
        <pt x="10" y="498" on="1"/>
        <pt x="62" y="498" on="1"/>
        <pt x="62" y="640" on="1"/>
        <pt x="124" y="640" on="1"/>
        <pt x="124" y="498" on="1"/>
        <pt x="324" y="498" on="1"/>
        <pt x="324" y="640" on="1"/>
        <pt x="386" y="640" on="1"/>
        <pt x="386" y="498" on="1"/>
        <pt x="438" y="498" on="1"/>
      </contour>
      <contour>
        <pt x="324" y="445" on="1"/>
        <pt x="124" y="445" on="1"/>
        <pt x="124" y="316" on="1"/>
        <pt x="324" y="316" on="1"/>
      </contour>
    </TTGlyph>
    <TTGlyph name="Hcircumflex" xMin="62" yMin="0" xMax="386" yMax="841">
      <component glyphName="H" x="0" y="0" flags="0x0"/>
      <component glyphName="uni0302.case" x="448" y="0" flags="0x0"/>
    </TTGlyph>
    <TTGlyph name="I" xMin="69" yMin="0" xMax="379" yMax="640">
      <contour>
        <pt x="69" y="54" on="1"/>
        <pt x="193" y="55" on="1"/>
        <pt x="193" y="585" on="1"/>
        <pt x="73" y="586" on="1"/>
        <pt x="73" y="640" on="1"/>
        <pt x="375" y="640" on="1"/>
        <pt x="375" y="586" on="1"/>
        <pt x="255" y="585" on="1"/>
        <pt x="255" y="55" on="1"/>
        <pt x="379" y="54" on="1"/>
        <pt x="379" y="0" on="1"/>
        <pt x="69" y="0" on="1"/>
      </contour>
    </TTGlyph>
    <TTGlyph name="I.sups" xMin="128" yMin="320" xMax="320" yMax="640">
      <contour>
        <pt x="320" y="320" on="1"/>
        <pt x="128" y="320" on="1"/>
        <pt x="128" y="368" on="1"/>
        <pt x="192" y="376" on="1"/>
        <pt x="192" y="584" on="1"/>
        <pt x="128" y="592" on="1"/>
        <pt x="128" y="640" on="1"/>
        <pt x="320" y="640" on="1"/>
        <pt x="320" y="592" on="1"/>
        <pt x="256" y="584" on="1"/>
        <pt x="256" y="376" on="1"/>
        <pt x="320" y="368" on="1"/>
      </contour>
    </TTGlyph>
    <TTGlyph name="IJ" xMin="0" yMin="0" xMax="452" yMax="640">
      <contour>
        <pt x="0" y="64" on="1"/>
        <pt x="60" y="64" on="1"/>
        <pt x="60" y="576" on="1"/>
        <pt x="4" y="576" on="1"/>
        <pt x="4" y="640" on="1"/>
        <pt x="188" y="640" on="1"/>
        <pt x="188" y="576" on="1"/>
        <pt x="132" y="576" on="1"/>
        <pt x="132" y="64" on="1"/>
        <pt x="288" y="64" on="1"/>
        <pt x="340" y="64" on="0"/>
        <pt x="380" y="121" on="0"/>
        <pt x="380" y="177" on="1"/>
        <pt x="380" y="576" on="1"/>
        <pt x="276" y="576" on="1"/>
        <pt x="276" y="640" on="1"/>
        <pt x="452" y="640" on="1"/>
        <pt x="452" y="181" on="1"/>
        <pt x="452" y="88" on="0"/>
        <pt x="364" y="0" on="0"/>
        <pt x="288" y="0" on="1"/>
        <pt x="0" y="0" on="1"/>
      </contour>
    </TTGlyph>
    <TTGlyph name="Iacute" xMin="69" yMin="0" xMax="379" yMax="859">
      <component glyphName="I" x="0" y="0" flags="0x0"/>
      <component glyphName="acutecomb.case" x="448" y="0" flags="0x0"/>
    </TTGlyph>
    <TTGlyph name="Ibreve" xMin="64" yMin="0" xMax="384" yMax="832">
      <component glyphName="I" x="0" y="0" flags="0x0"/>
      <component glyphName="uni0306.case" x="448" y="0" flags="0x0"/>
    </TTGlyph>
    <TTGlyph name="Icircumflex" xMin="69" yMin="0" xMax="379" yMax="841">
      <component glyphName="I" x="0" y="0" flags="0x0"/>
      <component glyphName="uni0302.case" x="448" y="0" flags="0x0"/>
    </TTGlyph>
    <TTGlyph name="Idieresis" xMin="69" yMin="0" xMax="379" yMax="820">
      <component glyphName="I" x="0" y="0" flags="0x0"/>
      <component glyphName="uni0308.case" x="448" y="0" flags="0x0"/>
    </TTGlyph>
    <TTGlyph name="Idotaccent" xMin="69" yMin="0" xMax="379" yMax="815">
      <component glyphName="I" x="0" y="0" flags="0x0"/>
      <component glyphName="uni0307.case" x="448" y="0" flags="0x0"/>
    </TTGlyph>
    <TTGlyph name="Igrave" xMin="69" yMin="0" xMax="379" yMax="859">
      <component glyphName="I" x="0" y="0" flags="0x0"/>
      <component glyphName="gravecomb.case" x="448" y="0" flags="0x0"/>
    </TTGlyph>
    <TTGlyph name="Imacron" xMin="69" yMin="0" xMax="379" yMax="766">
      <component glyphName="I" x="0" y="0" flags="0x0"/>
      <component glyphName="uni0304.case" x="448" y="0" flags="0x0"/>
    </TTGlyph>
    <TTGlyph name="Iogonek" xMin="69" yMin="-197" xMax="399" yMax="640">
      <contour>
        <pt x="399" y="-181" on="1"/>
        <pt x="371" y="-197" on="0"/>
        <pt x="335" y="-197" on="1"/>
        <pt x="294" y="-197" on="0"/>
        <pt x="251" y="-156" on="0"/>
        <pt x="251" y="-119" on="1"/>
        <pt x="251" y="-86" on="0"/>
        <pt x="288" y="-25" on="0"/>
        <pt x="318" y="0" on="1"/>
        <pt x="69" y="0" on="1"/>
        <pt x="69" y="54" on="1"/>
        <pt x="193" y="55" on="1"/>
        <pt x="193" y="585" on="1"/>
        <pt x="73" y="586" on="1"/>
        <pt x="73" y="640" on="1"/>
        <pt x="375" y="640" on="1"/>
        <pt x="375" y="586" on="1"/>
        <pt x="255" y="585" on="1"/>
        <pt x="255" y="55" on="1"/>
        <pt x="379" y="54" on="1"/>
        <pt x="379" y="6" on="1"/>
        <pt x="385" y="3" on="1"/>
        <pt x="353" y="-31" on="0"/>
        <pt x="321" y="-84" on="0"/>
        <pt x="321" y="-108" on="1"/>
        <pt x="321" y="-124" on="0"/>
        <pt x="334" y="-136" on="0"/>
        <pt x="347" y="-136" on="1"/>
        <pt x="364" y="-136" on="0"/>
        <pt x="382" y="-128" on="1"/>
      </contour>
    </TTGlyph>
    <TTGlyph name="Iota" xMin="69" yMin="0" xMax="379" yMax="640">
      <component glyphName="I" x="0" y="0" flags="0x0"/>
    </TTGlyph>
    <TTGlyph name="Iotadieresis" xMin="69" yMin="0" xMax="379" yMax="820">
      <component glyphName="I" x="0" y="0" flags="0x0"/>
      <component glyphName="uni0308.case" x="448" y="0" flags="0x0"/>
    </TTGlyph>
    <TTGlyph name="Iotatonos" xMin="-74" yMin="0" xMax="379" yMax="704">
      <component glyphName="I" x="0" y="0" flags="0x0"/>
      <component glyphName="tonos" x="-256" y="0" flags="0x0"/>
    </TTGlyph>
    <TTGlyph name="Itilde" xMin="64" yMin="0" xMax="384" yMax="832">
      <component glyphName="I" x="0" y="0" flags="0x0"/>
      <component glyphName="tildecomb.case" x="448" y="0" flags="0x0"/>
    </TTGlyph>
    <TTGlyph name="J" xMin="65" yMin="-8" xMax="386" yMax="640">
      <contour>
        <pt x="122" y="131" on="1"/>
        <pt x="133" y="90" on="0"/>
        <pt x="179" y="48" on="0"/>
        <pt x="224" y="48" on="1"/>
        <pt x="278" y="48" on="0"/>
        <pt x="324" y="109" on="0"/>
        <pt x="324" y="169" on="1"/>
        <pt x="324" y="584" on="1"/>
        <pt x="170" y="584" on="1"/>
        <pt x="170" y="640" on="1"/>
        <pt x="386" y="640" on="1"/>
        <pt x="386" y="173" on="1"/>
        <pt x="386" y="80" on="0"/>
        <pt x="299" y="-8" on="0"/>
        <pt x="224" y="-8" on="1"/>
        <pt x="156" y="-8" on="0"/>
        <pt x="78" y="58" on="0"/>
        <pt x="65" y="116" on="1"/>
      </contour>
    </TTGlyph>
    <TTGlyph name="J.sups" xMin="128" yMin="320" xMax="320" yMax="640">
      <contour>
        <pt x="320" y="384" on="1"/>
        <pt x="256" y="384" on="1"/>
        <pt x="256" y="576" on="1"/>
        <pt x="128" y="576" on="1"/>
        <pt x="128" y="640" on="1"/>
        <pt x="320" y="640" on="1"/>
      </contour>
      <contour>
        <pt x="256" y="384" on="1"/>
        <pt x="256" y="320" on="1"/>
        <pt x="128" y="320" on="1"/>
        <pt x="128" y="384" on="1"/>
      </contour>
    </TTGlyph>
    <TTGlyph name="Jcircumflex" xMin="65" yMin="-8" xMax="386" yMax="841">
      <component glyphName="J" x="0" y="0" flags="0x0"/>
      <component glyphName="uni0302.case" x="494" y="0" flags="0x0"/>
    </TTGlyph>
    <TTGlyph name="K" xMin="62" yMin="-1" xMax="398" yMax="641">
      <contour>
        <pt x="320" y="302" on="0"/>
        <pt x="382" y="221" on="0"/>
        <pt x="387" y="150" on="1"/>
        <pt x="398" y="1" on="1"/>
        <pt x="332" y="-1" on="1"/>
        <pt x="323" y="147" on="1"/>
        <pt x="320" y="191" on="0"/>
        <pt x="296" y="241" on="0"/>
        <pt x="242" y="263" on="0"/>
        <pt x="193" y="263" on="1"/>
        <pt x="124" y="263" on="1"/>
        <pt x="124" y="0" on="1"/>
        <pt x="62" y="0" on="1"/>
        <pt x="62" y="640" on="1"/>
        <pt x="124" y="640" on="1"/>
        <pt x="124" y="323" on="1"/>
        <pt x="193" y="323" on="1"/>
        <pt x="203" y="323" on="1"/>
        <pt x="254" y="396" on="0"/>
        <pt x="316" y="544" on="0"/>
        <pt x="333" y="641" on="1"/>
        <pt x="398" y="635" on="1"/>
        <pt x="383" y="543" on="0"/>
        <pt x="317" y="391" on="0"/>
        <pt x="262" y="316" on="1"/>
      </contour>
    </TTGlyph>
    <TTGlyph name="K.sups" xMin="128" yMin="320" xMax="320" yMax="640">
      <contour>
        <pt x="256" y="512" on="1"/>
        <pt x="256" y="448" on="1"/>
        <pt x="192" y="448" on="1"/>
        <pt x="192" y="320" on="1"/>
        <pt x="128" y="320" on="1"/>
        <pt x="128" y="640" on="1"/>
        <pt x="192" y="640" on="1"/>
        <pt x="192" y="512" on="1"/>
      </contour>
      <contour>
        <pt x="320" y="640" on="1"/>
        <pt x="320" y="512" on="1"/>
        <pt x="256" y="512" on="1"/>
        <pt x="256" y="640" on="1"/>
      </contour>
      <contour>
        <pt x="256" y="448" on="1"/>
        <pt x="320" y="448" on="1"/>
        <pt x="320" y="320" on="1"/>
        <pt x="256" y="320" on="1"/>
      </contour>
    </TTGlyph>
    <TTGlyph name="Kappa" xMin="62" yMin="-1" xMax="398" yMax="641">
      <component glyphName="K" x="0" y="0" flags="0x0"/>
    </TTGlyph>
    <TTGlyph name="L" xMin="62" yMin="0" xMax="382" yMax="640">
      <contour>
        <pt x="62" y="640" on="1"/>
        <pt x="124" y="640" on="1"/>
        <pt x="124" y="56" on="1"/>
        <pt x="382" y="56" on="1"/>
        <pt x="382" y="0" on="1"/>
        <pt x="62" y="0" on="1"/>
      </contour>
    </TTGlyph>
    <TTGlyph name="L.sups" xMin="128" yMin="320" xMax="320" yMax="640">
      <contour>
        <pt x="320" y="320" on="1"/>
        <pt x="128" y="320" on="1"/>
        <pt x="128" y="640" on="1"/>
        <pt x="192" y="640" on="1"/>
        <pt x="192" y="376" on="1"/>
        <pt x="320" y="376" on="1"/>
      </contour>
    </TTGlyph>
    <TTGlyph name="Lacute" xMin="48" yMin="0" xMax="382" yMax="859">
      <component glyphName="L" x="0" y="0" flags="0x0"/>
      <component glyphName="acutecomb.case" x="320" y="0" flags="0x0"/>
    </TTGlyph>
    <TTGlyph name="Lambda" xMin="39" yMin="-2" xMax="410" yMax="643">
      <contour>
        <pt x="346" y="-2" on="1"/>
        <pt x="330" y="167" on="0"/>
        <pt x="268" y="453" on="0"/>
        <pt x="224" y="557" on="1"/>
        <pt x="180" y="453" on="0"/>
        <pt x="118" y="167" on="0"/>
        <pt x="103" y="-2" on="1"/>
        <pt x="39" y="3" on="1"/>
        <pt x="54" y="188" on="0"/>
        <pt x="135" y="521" on="0"/>
        <pt x="197" y="643" on="1"/>
        <pt x="251" y="643" on="1"/>
        <pt x="313" y="521" on="0"/>
        <pt x="394" y="189" on="0"/>
        <pt x="410" y="3" on="1"/>
      </contour>
    </TTGlyph>
    <TTGlyph name="Lcaron" xMin="62" yMin="0" xMax="382" yMax="640">
      <component glyphName="L" x="0" y="0" flags="0x0"/>
      <component glyphName="uni0315" x="384" y="0" flags="0x0"/>
    </TTGlyph>
    <TTGlyph name="Ldot" xMin="62" yMin="0" xMax="382" yMax="640">
      <component glyphName="L" x="0" y="0" flags="0x0"/>
      <component glyphName="period" x="128" y="256" flags="0x4"/>
    </TTGlyph>
    <TTGlyph name="Lslash" xMin="-39" yMin="0" xMax="382" yMax="640">
      <contour>
        <pt x="382" y="56" on="1"/>
        <pt x="382" y="0" on="1"/>
        <pt x="62" y="0" on="1"/>
        <pt x="62" y="194" on="1"/>
        <pt x="-3" y="148" on="1"/>
        <pt x="-39" y="200" on="1"/>
        <pt x="62" y="272" on="1"/>
        <pt x="62" y="640" on="1"/>
        <pt x="124" y="640" on="1"/>
        <pt x="124" y="316" on="1"/>
        <pt x="227" y="390" on="1"/>
        <pt x="263" y="338" on="1"/>
        <pt x="124" y="239" on="1"/>
        <pt x="124" y="56" on="1"/>
      </contour>
    </TTGlyph>
    <TTGlyph name="M" xMin="61" yMin="0" xMax="387" yMax="640">
      <contour>
        <pt x="387" y="640" on="1"/>
        <pt x="387" y="580" on="1"/>
        <pt x="318" y="580" on="1"/>
        <pt x="279" y="580" on="0"/>
        <pt x="254" y="551" on="0"/>
        <pt x="254" y="512" on="1"/>
        <pt x="254" y="123" on="1"/>
        <pt x="195" y="123" on="1"/>
        <pt x="195" y="512" on="1"/>
        <pt x="195" y="551" on="0"/>
        <pt x="169" y="580" on="0"/>
        <pt x="130" y="580" on="1"/>
        <pt x="61" y="580" on="1"/>
        <pt x="61" y="640" on="1"/>
        <pt x="107" y="640" on="1"/>
        <pt x="152" y="640" on="0"/>
        <pt x="210" y="615" on="0"/>
        <pt x="224" y="588" on="1"/>
        <pt x="239" y="615" on="0"/>
        <pt x="296" y="640" on="0"/>
        <pt x="341" y="640" on="1"/>
      </contour>
      <contour>
        <pt x="115" y="576" on="1"/>
        <pt x="123" y="128" on="1"/>
        <pt x="123" y="0" on="1"/>
        <pt x="61" y="0" on="1"/>
        <pt x="61" y="576" on="1"/>
      </contour>
      <contour>
        <pt x="333" y="576" on="1"/>
        <pt x="387" y="576" on="1"/>
        <pt x="387" y="0" on="1"/>
        <pt x="325" y="0" on="1"/>
        <pt x="325" y="128" on="1"/>
      </contour>
    </TTGlyph>
    <TTGlyph name="M.sups" xMin="128" yMin="320" xMax="320" yMax="640">
      <contour>
        <pt x="320" y="320" on="1"/>
        <pt x="256" y="320" on="1"/>
        <pt x="256" y="384" on="1"/>
        <pt x="192" y="384" on="1"/>
        <pt x="192" y="320" on="1"/>
        <pt x="128" y="320" on="1"/>
        <pt x="128" y="640" on="1"/>
        <pt x="320" y="640" on="1"/>
      </contour>
    </TTGlyph>
    <TTGlyph name="Mu" xMin="61" yMin="0" xMax="387" yMax="640">
      <component glyphName="M" x="0" y="0" flags="0x0"/>
    </TTGlyph>
    <TTGlyph name="N" xMin="62" yMin="0" xMax="386" yMax="640">
      <contour>
        <pt x="386" y="640" on="1"/>
        <pt x="386" y="0" on="1"/>
        <pt x="311" y="0" on="1"/>
        <pt x="167" y="384" on="1"/>
        <pt x="124" y="530" on="1"/>
        <pt x="124" y="0" on="1"/>
        <pt x="62" y="0" on="1"/>
        <pt x="62" y="640" on="1"/>
        <pt x="137" y="640" on="1"/>
        <pt x="281" y="256" on="1"/>
        <pt x="324" y="108" on="1"/>
        <pt x="324" y="640" on="1"/>
      </contour>
    </TTGlyph>
    <TTGlyph name="N.sups" xMin="128" yMin="320" xMax="320" yMax="640">
      <contour>
        <pt x="256" y="576" on="1"/>
        <pt x="192" y="576" on="1"/>
        <pt x="192" y="320" on="1"/>
        <pt x="128" y="320" on="1"/>
        <pt x="128" y="640" on="1"/>
        <pt x="256" y="640" on="1"/>
      </contour>
      <contour>
        <pt x="320" y="576" on="1"/>
        <pt x="320" y="320" on="1"/>
        <pt x="256" y="320" on="1"/>
        <pt x="256" y="576" on="1"/>
      </contour>
    </TTGlyph>
    <TTGlyph name="Nacute" xMin="62" yMin="0" xMax="386" yMax="859">
      <component glyphName="N" x="0" y="0" flags="0x0"/>
      <component glyphName="acutecomb.case" x="448" y="0" flags="0x0"/>
    </TTGlyph>
    <TTGlyph name="Ncaron" xMin="62" yMin="0" xMax="386" yMax="841">
      <component glyphName="N" x="0" y="0" flags="0x0"/>
      <component glyphName="uni030C.case" x="448" y="0" flags="0x0"/>
    </TTGlyph>
    <TTGlyph name="Ntilde" xMin="62" yMin="0" xMax="386" yMax="832">
      <component glyphName="N" x="0" y="0" flags="0x0"/>
      <component glyphName="tildecomb.case" x="448" y="0" flags="0x0"/>
    </TTGlyph>
    <TTGlyph name="Nu" xMin="62" yMin="0" xMax="386" yMax="640">
      <component glyphName="N" x="0" y="0" flags="0x0"/>
    </TTGlyph>
    <TTGlyph name="O" xMin="40" yMin="-10" xMax="409" yMax="650">
      <contour>
        <pt x="40" y="-10" on="0"/>
        <pt x="40" y="319" on="1"/>
        <pt x="40" y="486" on="0"/>
        <pt x="131" y="650" on="0"/>
        <pt x="224" y="650" on="1"/>
        <pt x="319" y="650" on="0"/>
        <pt x="409" y="486" on="0"/>
        <pt x="409" y="319" on="1"/>
        <pt x="409" y="155" on="0"/>
        <pt x="318" y="-10" on="0"/>
        <pt x="224" y="-10" on="1"/>
      </contour>
      <contour>
        <pt x="267" y="47" on="0"/>
        <pt x="319" y="102" on="0"/>
        <pt x="343" y="221" on="0"/>
        <pt x="343" y="319" on="1"/>
        <pt x="343" y="418" on="0"/>
        <pt x="319" y="538" on="0"/>
        <pt x="267" y="593" on="0"/>
        <pt x="224" y="593" on="1"/>
        <pt x="181" y="593" on="0"/>
        <pt x="129" y="538" on="0"/>
        <pt x="106" y="418" on="0"/>
        <pt x="106" y="319" on="1"/>
        <pt x="106" y="221" on="0"/>
        <pt x="129" y="102" on="0"/>
        <pt x="181" y="47" on="0"/>
        <pt x="224" y="47" on="1"/>
      </contour>
    </TTGlyph>
    <TTGlyph name="O.sups" xMin="128" yMin="320" xMax="320" yMax="640">
      <contour>
        <pt x="320" y="320" on="1"/>
        <pt x="128" y="320" on="1"/>
        <pt x="128" y="640" on="1"/>
        <pt x="320" y="640" on="1"/>
      </contour>
      <contour>
        <pt x="192" y="576" on="1"/>
        <pt x="192" y="384" on="1"/>
        <pt x="256" y="384" on="1"/>
        <pt x="256" y="576" on="1"/>
      </contour>
    </TTGlyph>
    <TTGlyph name="OE" xMin="-2" yMin="0" xMax="448" yMax="640">
      <contour>
        <pt x="-2" y="0" on="0"/>
        <pt x="-2" y="319" on="1"/>
        <pt x="-2" y="481" on="0"/>
        <pt x="83" y="640" on="0"/>
        <pt x="170" y="640" on="1"/>
        <pt x="438" y="640" on="1"/>
        <pt x="438" y="576" on="1"/>
        <pt x="270" y="576" on="1"/>
        <pt x="270" y="320" on="1"/>
        <pt x="400" y="320" on="1"/>
        <pt x="400" y="256" on="1"/>
        <pt x="270" y="256" on="1"/>
        <pt x="270" y="64" on="1"/>
        <pt x="448" y="64" on="1"/>
        <pt x="448" y="0" on="1"/>
        <pt x="170" y="0" on="1"/>
      </contour>
      <contour>
        <pt x="198" y="64" on="1"/>
        <pt x="198" y="576" on="1"/>
        <pt x="170" y="576" on="1"/>
        <pt x="135" y="576" on="0"/>
        <pt x="93" y="525" on="0"/>
        <pt x="74" y="414" on="0"/>
        <pt x="74" y="319" on="1"/>
        <pt x="74" y="225" on="0"/>
        <pt x="93" y="115" on="0"/>
        <pt x="135" y="64" on="0"/>
        <pt x="170" y="64" on="1"/>
      </contour>
    </TTGlyph>
    <TTGlyph name="Oacute" xMin="40" yMin="-10" xMax="409" yMax="859">
      <component glyphName="O" x="0" y="0" flags="0x0"/>
      <component glyphName="acutecomb.case" x="448" y="0" flags="0x0"/>
    </TTGlyph>
    <TTGlyph name="Obreve" xMin="40" yMin="-10" xMax="409" yMax="832">
      <component glyphName="O" x="0" y="0" flags="0x0"/>
      <component glyphName="uni0306.case" x="448" y="0" flags="0x0"/>
    </TTGlyph>
    <TTGlyph name="Ocircumflex" xMin="40" yMin="-10" xMax="409" yMax="841">
      <component glyphName="O" x="0" y="0" flags="0x0"/>
      <component glyphName="uni0302.case" x="448" y="0" flags="0x0"/>
    </TTGlyph>
    <TTGlyph name="Odieresis" xMin="40" yMin="-10" xMax="409" yMax="820">
      <component glyphName="O" x="0" y="0" flags="0x0"/>
      <component glyphName="uni0308.case" x="448" y="0" flags="0x0"/>
    </TTGlyph>
    <TTGlyph name="Ograve" xMin="40" yMin="-10" xMax="409" yMax="859">
      <component glyphName="O" x="0" y="0" flags="0x0"/>
      <component glyphName="gravecomb.case" x="448" y="0" flags="0x0"/>
    </TTGlyph>
    <TTGlyph name="Ohungarumlaut" xMin="40" yMin="-10" xMax="448" yMax="896">
      <component glyphName="O" x="0" y="0" flags="0x0"/>
      <component glyphName="uni030B.case" x="448" y="0" flags="0x0"/>
    </TTGlyph>
    <TTGlyph name="Omacron" xMin="40" yMin="-10" xMax="409" yMax="766">
      <component glyphName="O" x="0" y="0" flags="0x0"/>
      <component glyphName="uni0304.case" x="448" y="0" flags="0x0"/>
    </TTGlyph>
    <TTGlyph name="Omegatonos" xMin="-74" yMin="0" xMax="411" yMax="704">
      <component glyphName="uni03A9" x="0" y="0" flags="0x0"/>
      <component glyphName="tonos" x="-256" y="0" flags="0x0"/>
    </TTGlyph>
    <TTGlyph name="Omicron" xMin="40" yMin="-10" xMax="409" yMax="650">
      <component glyphName="O" x="0" y="0" flags="0x0"/>
    </TTGlyph>
    <TTGlyph name="Omicrontonos" xMin="-74" yMin="-10" xMax="409" yMax="704">
      <component glyphName="O" x="0" y="0" flags="0x0"/>
      <component glyphName="tonos" x="-256" y="0" flags="0x0"/>
    </TTGlyph>
    <TTGlyph name="Oslash" xMin="37" yMin="-14" xMax="411" yMax="654">
      <contour>
        <pt x="373" y="550" on="1"/>
        <pt x="409" y="467" on="0"/>
        <pt x="409" y="319" on="1"/>
        <pt x="409" y="155" on="0"/>
        <pt x="318" y="-10" on="0"/>
        <pt x="224" y="-10" on="1"/>
        <pt x="158" y="-10" on="0"/>
        <pt x="115" y="33" on="1"/>
        <pt x="91" y="-14" on="1"/>
        <pt x="37" y="15" on="1"/>
        <pt x="76" y="93" on="1"/>
        <pt x="40" y="174" on="0"/>
        <pt x="40" y="319" on="1"/>
        <pt x="40" y="486" on="0"/>
        <pt x="131" y="650" on="0"/>
        <pt x="224" y="650" on="1"/>
        <pt x="292" y="650" on="0"/>
        <pt x="334" y="608" on="1"/>
        <pt x="357" y="654" on="1"/>
        <pt x="411" y="626" on="1"/>
      </contour>
      <contour>
        <pt x="106" y="228" on="0"/>
        <pt x="116" y="172" on="1"/>
        <pt x="305" y="550" on="1"/>
        <pt x="278" y="593" on="0"/>
        <pt x="224" y="593" on="1"/>
        <pt x="181" y="593" on="0"/>
        <pt x="129" y="538" on="0"/>
        <pt x="106" y="418" on="0"/>
        <pt x="106" y="319" on="1"/>
      </contour>
      <contour>
        <pt x="343" y="413" on="0"/>
        <pt x="333" y="469" on="1"/>
        <pt x="143" y="90" on="1"/>
        <pt x="171" y="47" on="0"/>
        <pt x="224" y="47" on="1"/>
        <pt x="267" y="47" on="0"/>
        <pt x="319" y="102" on="0"/>
        <pt x="343" y="221" on="0"/>
        <pt x="343" y="319" on="1"/>
      </contour>
    </TTGlyph>
    <TTGlyph name="Oslashacute" xMin="37" yMin="-14" xMax="411" yMax="859">
      <component glyphName="Oslash" x="0" y="0" flags="0x0"/>
      <component glyphName="acutecomb.case" x="448" y="0" flags="0x0"/>
    </TTGlyph>
    <TTGlyph name="Otilde" xMin="40" yMin="-10" xMax="409" yMax="832">
      <component glyphName="O" x="0" y="0" flags="0x0"/>
      <component glyphName="tildecomb.case" x="448" y="0" flags="0x0"/>
    </TTGlyph>
    <TTGlyph name="P" xMin="62" yMin="0" xMax="399" yMax="640">
      <contour>
        <pt x="62" y="640" on="1"/>
        <pt x="214" y="640" on="1"/>
        <pt x="299" y="640" on="0"/>
        <pt x="399" y="523" on="0"/>
        <pt x="399" y="416" on="1"/>
        <pt x="399" y="309" on="0"/>
        <pt x="299" y="196" on="0"/>
        <pt x="214" y="196" on="1"/>
        <pt x="124" y="196" on="1"/>
        <pt x="124" y="0" on="1"/>
        <pt x="62" y="0" on="1"/>
      </contour>
      <contour>
        <pt x="209" y="252" on="1"/>
        <pt x="277" y="252" on="0"/>
        <pt x="333" y="337" on="0"/>
        <pt x="333" y="416" on="1"/>
        <pt x="333" y="498" on="0"/>
        <pt x="276" y="584" on="0"/>
        <pt x="209" y="584" on="1"/>
        <pt x="124" y="584" on="1"/>
        <pt x="124" y="252" on="1"/>
      </contour>
    </TTGlyph>
    <TTGlyph name="P.sups" xMin="128" yMin="320" xMax="320" yMax="640">
      <contour>
        <pt x="320" y="448" on="1"/>
        <pt x="192" y="448" on="1"/>
        <pt x="192" y="320" on="1"/>
        <pt x="128" y="320" on="1"/>
        <pt x="128" y="640" on="1"/>
        <pt x="320" y="640" on="1"/>
      </contour>
      <contour>
        <pt x="256" y="576" on="1"/>
        <pt x="192" y="576" on="1"/>
        <pt x="192" y="512" on="1"/>
        <pt x="256" y="512" on="1"/>
      </contour>
    </TTGlyph>
    <TTGlyph name="Phi" xMin="64" yMin="0" xMax="384" yMax="640">
      <component glyphName="uni0424" x="0" y="0" flags="0x0"/>
    </TTGlyph>
    <TTGlyph name="Pi" xMin="62" yMin="0" xMax="386" yMax="640">
      <component glyphName="uni041F" x="0" y="0" flags="0x0"/>
    </TTGlyph>
    <TTGlyph name="Psi" xMin="64" yMin="0" xMax="384" yMax="640">
      <contour>
        <pt x="64" y="320" on="1"/>
        <pt x="64" y="640" on="1"/>
        <pt x="128" y="640" on="1"/>
        <pt x="128" y="320" on="1"/>
      </contour>
      <contour>
        <pt x="320" y="320" on="1"/>
        <pt x="320" y="256" on="1"/>
        <pt x="256" y="256" on="1"/>
        <pt x="256" y="0" on="1"/>
        <pt x="192" y="0" on="1"/>
        <pt x="192" y="256" on="1"/>
        <pt x="128" y="256" on="1"/>
        <pt x="128" y="320" on="1"/>
        <pt x="192" y="320" on="1"/>
        <pt x="192" y="640" on="1"/>
        <pt x="256" y="640" on="1"/>
        <pt x="256" y="320" on="1"/>
      </contour>
      <contour>
        <pt x="384" y="640" on="1"/>
        <pt x="384" y="320" on="1"/>
        <pt x="320" y="320" on="1"/>
        <pt x="320" y="640" on="1"/>
      </contour>
    </TTGlyph>
    <TTGlyph name="Q" xMin="40" yMin="-143" xMax="413" yMax="650">
      <contour>
        <pt x="286" y="-46" on="0"/>
        <pt x="343" y="-75" on="0"/>
        <pt x="413" y="-80" on="1"/>
        <pt x="403" y="-143" on="1"/>
        <pt x="237" y="-129" on="0"/>
        <pt x="215" y="-10" on="1"/>
        <pt x="40" y="-1" on="0"/>
        <pt x="40" y="319" on="1"/>
        <pt x="40" y="486" on="0"/>
        <pt x="131" y="650" on="0"/>
        <pt x="224" y="650" on="1"/>
        <pt x="319" y="650" on="0"/>
        <pt x="409" y="486" on="0"/>
        <pt x="409" y="319" on="1"/>
        <pt x="409" y="30" on="0"/>
        <pt x="267" y="-5" on="1"/>
        <pt x="279" y="-5" on="1"/>
      </contour>
      <contour>
        <pt x="106" y="221" on="0"/>
        <pt x="129" y="102" on="0"/>
        <pt x="181" y="47" on="0"/>
        <pt x="224" y="47" on="1"/>
        <pt x="267" y="47" on="0"/>
        <pt x="319" y="102" on="0"/>
        <pt x="343" y="221" on="0"/>
        <pt x="343" y="319" on="1"/>
        <pt x="343" y="418" on="0"/>
        <pt x="319" y="538" on="0"/>
        <pt x="267" y="593" on="0"/>
        <pt x="224" y="593" on="1"/>
        <pt x="181" y="593" on="0"/>
        <pt x="129" y="538" on="0"/>
        <pt x="106" y="418" on="0"/>
        <pt x="106" y="319" on="1"/>
      </contour>
    </TTGlyph>
    <TTGlyph name="Q.sups" xMin="128" yMin="256" xMax="320" yMax="640">
      <contour>
        <pt x="320" y="320" on="1"/>
        <pt x="256" y="320" on="1"/>
        <pt x="256" y="256" on="1"/>
        <pt x="192" y="256" on="1"/>
        <pt x="192" y="320" on="1"/>
        <pt x="128" y="320" on="1"/>
        <pt x="128" y="640" on="1"/>
        <pt x="320" y="640" on="1"/>
      </contour>
      <contour>
        <pt x="192" y="576" on="1"/>
        <pt x="192" y="384" on="1"/>
        <pt x="256" y="384" on="1"/>
        <pt x="256" y="576" on="1"/>
      </contour>
    </TTGlyph>
    <TTGlyph name="R" xMin="62" yMin="-5" xMax="409" yMax="640">
      <contour>
        <pt x="319" y="231" on="0"/>
        <pt x="400" y="99" on="0"/>
        <pt x="409" y="2" on="1"/>
        <pt x="345" y="-5" on="1"/>
        <pt x="335" y="96" on="0"/>
        <pt x="257" y="209" on="0"/>
        <pt x="183" y="243" on="1"/>
        <pt x="124" y="243" on="1"/>
        <pt x="124" y="0" on="1"/>
        <pt x="62" y="0" on="1"/>
        <pt x="62" y="640" on="1"/>
        <pt x="214" y="640" on="1"/>
        <pt x="299" y="640" on="0"/>
        <pt x="399" y="534" on="0"/>
        <pt x="399" y="439" on="1"/>
        <pt x="399" y="359" on="0"/>
        <pt x="322" y="266" on="0"/>
        <pt x="253" y="256" on="1"/>
      </contour>
      <contour>
        <pt x="124" y="303" on="1"/>
        <pt x="211" y="303" on="1"/>
        <pt x="281" y="303" on="0"/>
        <pt x="333" y="371" on="0"/>
        <pt x="333" y="438" on="1"/>
        <pt x="333" y="507" on="0"/>
        <pt x="280" y="578" on="0"/>
        <pt x="211" y="578" on="1"/>
        <pt x="124" y="578" on="1"/>
      </contour>
    </TTGlyph>
    <TTGlyph name="R.sups" xMin="128" yMin="320" xMax="320" yMax="640">
      <contour>
        <pt x="320" y="512" on="1"/>
        <pt x="256" y="512" on="1"/>
        <pt x="256" y="576" on="1"/>
        <pt x="192" y="576" on="1"/>
        <pt x="192" y="512" on="1"/>
        <pt x="256" y="512" on="1"/>
        <pt x="256" y="448" on="1"/>
        <pt x="192" y="448" on="1"/>
        <pt x="192" y="320" on="1"/>
        <pt x="128" y="320" on="1"/>
        <pt x="128" y="640" on="1"/>
        <pt x="320" y="640" on="1"/>
      </contour>
      <contour>
        <pt x="256" y="448" on="1"/>
        <pt x="320" y="448" on="1"/>
        <pt x="320" y="320" on="1"/>
        <pt x="256" y="320" on="1"/>
      </contour>
    </TTGlyph>
    <TTGlyph name="Racute" xMin="62" yMin="-5" xMax="409" yMax="859">
      <component glyphName="R" x="0" y="0" flags="0x0"/>
      <component glyphName="acutecomb.case" x="448" y="0" flags="0x0"/>
    </TTGlyph>
    <TTGlyph name="Rcaron" xMin="62" yMin="-5" xMax="409" yMax="841">
      <component glyphName="R" x="0" y="0" flags="0x0"/>
      <component glyphName="uni030C.case" x="448" y="0" flags="0x0"/>
    </TTGlyph>
    <TTGlyph name="Rho" xMin="62" yMin="0" xMax="399" yMax="640">
      <component glyphName="P" x="0" y="0" flags="0x0"/>
    </TTGlyph>
    <TTGlyph name="S" xMin="55" yMin="-8" xMax="388" yMax="648">
      <contour>
        <pt x="305" y="591" on="0"/>
        <pt x="255" y="591" on="1"/>
        <pt x="184" y="591" on="0"/>
        <pt x="127" y="527" on="0"/>
        <pt x="127" y="471" on="1"/>
        <pt x="127" y="428" on="0"/>
        <pt x="161" y="371" on="0"/>
        <pt x="211" y="338" on="0"/>
        <pt x="253" y="317" on="1"/>
        <pt x="297" y="296" on="0"/>
        <pt x="351" y="259" on="0"/>
        <pt x="388" y="195" on="0"/>
        <pt x="388" y="146" on="1"/>
        <pt x="388" y="69" on="0"/>
        <pt x="290" y="-8" on="0"/>
        <pt x="200" y="-8" on="1"/>
        <pt x="122" y="-8" on="0"/>
        <pt x="55" y="18" on="1"/>
        <pt x="71" y="73" on="1"/>
        <pt x="138" y="49" on="0"/>
        <pt x="200" y="49" on="1"/>
        <pt x="268" y="49" on="0"/>
        <pt x="323" y="98" on="0"/>
        <pt x="323" y="142" on="1"/>
        <pt x="323" y="176" on="0"/>
        <pt x="293" y="222" on="0"/>
        <pt x="250" y="249" on="0"/>
        <pt x="211" y="268" on="1"/>
        <pt x="163" y="291" on="0"/>
        <pt x="104" y="332" on="0"/>
        <pt x="62" y="408" on="0"/>
        <pt x="62" y="468" on="1"/>
        <pt x="62" y="549" on="0"/>
        <pt x="162" y="648" on="0"/>
        <pt x="255" y="648" on="1"/>
        <pt x="284" y="648" on="0"/>
        <pt x="348" y="638" on="0"/>
        <pt x="372" y="630" on="1"/>
        <pt x="359" y="575" on="1"/>
      </contour>
    </TTGlyph>
    <TTGlyph name="S.sups" xMin="125" yMin="316" xMax="320" yMax="644">
      <contour>
        <pt x="171" y="316" on="0"/>
        <pt x="125" y="326" on="1"/>
        <pt x="134" y="377" on="1"/>
        <pt x="188" y="370" on="0"/>
        <pt x="208" y="370" on="1"/>
        <pt x="234" y="370" on="0"/>
        <pt x="256" y="390" on="0"/>
        <pt x="256" y="410" on="1"/>
        <pt x="256" y="431" on="0"/>
        <pt x="235" y="447" on="0"/>
        <pt x="201" y="458" on="1"/>
        <pt x="164" y="471" on="0"/>
        <pt x="128" y="512" on="0"/>
        <pt x="128" y="550" on="1"/>
        <pt x="128" y="591" on="0"/>
        <pt x="178" y="644" on="0"/>
        <pt x="234" y="644" on="1"/>
        <pt x="275" y="644" on="0"/>
        <pt x="315" y="634" on="1"/>
        <pt x="305" y="583" on="1"/>
        <pt x="265" y="590" on="0"/>
        <pt x="238" y="590" on="1"/>
        <pt x="192" y="590" on="0"/>
        <pt x="192" y="552" on="1"/>
        <pt x="192" y="533" on="0"/>
        <pt x="212" y="519" on="0"/>
        <pt x="240" y="510" on="1"/>
        <pt x="282" y="497" on="0"/>
        <pt x="320" y="456" on="0"/>
        <pt x="320" y="412" on="1"/>
        <pt x="320" y="367" on="0"/>
        <pt x="266" y="316" on="0"/>
        <pt x="214" y="316" on="1"/>
      </contour>
    </TTGlyph>
    <TTGlyph name="Sacute" xMin="55" yMin="-8" xMax="388" yMax="859">
      <component glyphName="S" x="0" y="0" flags="0x0"/>
      <component glyphName="acutecomb.case" x="448" y="0" flags="0x0"/>
    </TTGlyph>
    <TTGlyph name="Scaron" xMin="55" yMin="-8" xMax="388" yMax="841">
      <component glyphName="S" x="0" y="0" flags="0x0"/>
      <component glyphName="uni030C.case" x="448" y="0" flags="0x0"/>
    </TTGlyph>
    <TTGlyph name="Scedilla" xMin="55" yMin="-172" xMax="388" yMax="648">
      <contour>
        <pt x="388" y="85" on="0"/>
        <pt x="325" y="11" on="0"/>
        <pt x="266" y="-2" on="1"/>
        <pt x="261" y="-82" on="0"/>
        <pt x="176" y="-172" on="0"/>
        <pt x="73" y="-172" on="1"/>
        <pt x="71" y="-108" on="1"/>
        <pt x="137" y="-106" on="0"/>
        <pt x="192" y="-64" on="0"/>
        <pt x="197" y="-8" on="1"/>
        <pt x="121" y="-8" on="0"/>
        <pt x="55" y="18" on="1"/>
        <pt x="71" y="73" on="1"/>
        <pt x="138" y="49" on="0"/>
        <pt x="200" y="49" on="1"/>
        <pt x="268" y="49" on="0"/>
        <pt x="323" y="98" on="0"/>
        <pt x="323" y="142" on="1"/>
        <pt x="323" y="176" on="0"/>
        <pt x="293" y="222" on="0"/>
        <pt x="250" y="249" on="0"/>
        <pt x="211" y="268" on="1"/>
        <pt x="163" y="291" on="0"/>
        <pt x="104" y="332" on="0"/>
        <pt x="62" y="408" on="0"/>
        <pt x="62" y="468" on="1"/>
        <pt x="62" y="549" on="0"/>
        <pt x="162" y="648" on="0"/>
        <pt x="255" y="648" on="1"/>
        <pt x="284" y="648" on="0"/>
        <pt x="348" y="638" on="0"/>
        <pt x="372" y="630" on="1"/>
        <pt x="359" y="575" on="1"/>
        <pt x="305" y="591" on="0"/>
        <pt x="255" y="591" on="1"/>
        <pt x="184" y="591" on="0"/>
        <pt x="127" y="527" on="0"/>
        <pt x="127" y="471" on="1"/>
        <pt x="127" y="428" on="0"/>
        <pt x="161" y="371" on="0"/>
        <pt x="211" y="338" on="0"/>
        <pt x="253" y="317" on="1"/>
        <pt x="297" y="296" on="0"/>
        <pt x="351" y="259" on="0"/>
        <pt x="388" y="195" on="0"/>
        <pt x="388" y="146" on="1"/>
      </contour>
    </TTGlyph>
    <TTGlyph name="Scircumflex" xMin="55" yMin="-8" xMax="388" yMax="841">
      <component glyphName="S" x="0" y="0" flags="0x0"/>
      <component glyphName="uni0302.case" x="448" y="0" flags="0x0"/>
    </TTGlyph>
    <TTGlyph name="Sigma" xMin="64" yMin="0" xMax="384" yMax="640">
      <contour>
        <pt x="128" y="512" on="1"/>
        <pt x="64" y="512" on="1"/>
        <pt x="64" y="640" on="1"/>
        <pt x="384" y="640" on="1"/>
        <pt x="384" y="576" on="1"/>
        <pt x="128" y="576" on="1"/>
      </contour>
      <contour>
        <pt x="128" y="512" on="1"/>
        <pt x="192" y="512" on="1"/>
        <pt x="192" y="384" on="1"/>
        <pt x="128" y="384" on="1"/>
      </contour>
      <contour>
        <pt x="192" y="384" on="1"/>
        <pt x="256" y="384" on="1"/>
        <pt x="256" y="256" on="1"/>
        <pt x="192" y="256" on="1"/>
      </contour>
      <contour>
        <pt x="192" y="256" on="1"/>
        <pt x="192" y="128" on="1"/>
        <pt x="128" y="128" on="1"/>
        <pt x="128" y="256" on="1"/>
      </contour>
      <contour>
        <pt x="128" y="128" on="1"/>
        <pt x="128" y="64" on="1"/>
        <pt x="384" y="64" on="1"/>
        <pt x="384" y="0" on="1"/>
        <pt x="64" y="0" on="1"/>
        <pt x="64" y="128" on="1"/>
      </contour>
    </TTGlyph>
    <TTGlyph name="T" xMin="49" yMin="0" xMax="399" yMax="640">
      <contour>
        <pt x="255" y="584" on="1"/>
        <pt x="255" y="0" on="1"/>
        <pt x="193" y="0" on="1"/>
        <pt x="193" y="584" on="1"/>
        <pt x="49" y="584" on="1"/>
        <pt x="49" y="640" on="1"/>
        <pt x="399" y="640" on="1"/>
        <pt x="399" y="584" on="1"/>
      </contour>
    </TTGlyph>
    <TTGlyph name="T.sups" xMin="120" yMin="320" xMax="328" yMax="640">
      <contour>
        <pt x="328" y="584" on="1"/>
        <pt x="256" y="584" on="1"/>
        <pt x="256" y="320" on="1"/>
        <pt x="192" y="320" on="1"/>
        <pt x="192" y="584" on="1"/>
        <pt x="120" y="584" on="1"/>
        <pt x="120" y="640" on="1"/>
        <pt x="328" y="640" on="1"/>
      </contour>
    </TTGlyph>
    <TTGlyph name="Tau" xMin="49" yMin="0" xMax="399" yMax="640">
      <component glyphName="T" x="0" y="0" flags="0x0"/>
    </TTGlyph>
    <TTGlyph name="Tbar" xMin="49" yMin="0" xMax="399" yMax="640">
      <contour>
        <pt x="255" y="584" on="1"/>
        <pt x="255" y="316" on="1"/>
        <pt x="362" y="316" on="1"/>
        <pt x="362" y="260" on="1"/>
        <pt x="255" y="260" on="1"/>
        <pt x="255" y="0" on="1"/>
        <pt x="193" y="0" on="1"/>
        <pt x="193" y="260" on="1"/>
        <pt x="87" y="260" on="1"/>
        <pt x="87" y="316" on="1"/>
        <pt x="193" y="316" on="1"/>
        <pt x="193" y="584" on="1"/>
        <pt x="49" y="584" on="1"/>
        <pt x="49" y="640" on="1"/>
        <pt x="399" y="640" on="1"/>
        <pt x="399" y="584" on="1"/>
      </contour>
    </TTGlyph>
    <TTGlyph name="Tcaron" xMin="49" yMin="0" xMax="399" yMax="841">
      <component glyphName="T" x="0" y="0" flags="0x0"/>
      <component glyphName="uni030C.case" x="448" y="0" flags="0x0"/>
    </TTGlyph>
    <TTGlyph name="Theta" xMin="40" yMin="-10" xMax="409" yMax="650">
      <contour>
        <pt x="319" y="650" on="0"/>
        <pt x="409" y="486" on="0"/>
        <pt x="409" y="319" on="1"/>
        <pt x="409" y="155" on="0"/>
        <pt x="318" y="-10" on="0"/>
        <pt x="224" y="-10" on="1"/>
        <pt x="40" y="-10" on="0"/>
        <pt x="40" y="319" on="1"/>
        <pt x="40" y="486" on="0"/>
        <pt x="131" y="650" on="0"/>
        <pt x="224" y="650" on="1"/>
      </contour>
      <contour>
        <pt x="181" y="593" on="0"/>
        <pt x="129" y="538" on="0"/>
        <pt x="106" y="418" on="0"/>
        <pt x="106" y="319" on="1"/>
        <pt x="106" y="318" on="1"/>
        <pt x="343" y="318" on="1"/>
        <pt x="343" y="319" on="1"/>
        <pt x="343" y="418" on="0"/>
        <pt x="319" y="538" on="0"/>
        <pt x="267" y="593" on="0"/>
        <pt x="224" y="593" on="1"/>
      </contour>
      <contour>
        <pt x="281" y="47" on="0"/>
        <pt x="337" y="146" on="0"/>
        <pt x="342" y="258" on="1"/>
        <pt x="107" y="258" on="1"/>
        <pt x="112" y="146" on="0"/>
        <pt x="167" y="47" on="0"/>
        <pt x="224" y="47" on="1"/>
      </contour>
    </TTGlyph>
    <TTGlyph name="Thorn" xMin="62" yMin="0" xMax="399" yMax="640">
      <contour>
        <pt x="299" y="510" on="0"/>
        <pt x="399" y="409" on="0"/>
        <pt x="399" y="318" on="1"/>
        <pt x="399" y="226" on="0"/>
        <pt x="299" y="130" on="0"/>
        <pt x="214" y="130" on="1"/>
        <pt x="124" y="130" on="1"/>
        <pt x="124" y="0" on="1"/>
        <pt x="62" y="0" on="1"/>
        <pt x="62" y="640" on="1"/>
        <pt x="124" y="640" on="1"/>
        <pt x="124" y="510" on="1"/>
        <pt x="214" y="510" on="1"/>
      </contour>
      <contour>
        <pt x="281" y="190" on="0"/>
        <pt x="335" y="254" on="0"/>
        <pt x="335" y="318" on="1"/>
        <pt x="335" y="384" on="0"/>
        <pt x="280" y="450" on="0"/>
        <pt x="211" y="450" on="1"/>
        <pt x="124" y="450" on="1"/>
        <pt x="124" y="190" on="1"/>
        <pt x="211" y="190" on="1"/>
      </contour>
    </TTGlyph>
    <TTGlyph name="U" xMin="62" yMin="-8" xMax="386" yMax="640">
      <contour>
        <pt x="124" y="640" on="1"/>
        <pt x="124" y="166" on="1"/>
        <pt x="124" y="108" on="0"/>
        <pt x="167" y="48" on="0"/>
        <pt x="224" y="48" on="1"/>
        <pt x="279" y="48" on="0"/>
        <pt x="324" y="110" on="0"/>
        <pt x="324" y="166" on="1"/>
        <pt x="324" y="640" on="1"/>
        <pt x="386" y="640" on="1"/>
        <pt x="386" y="170" on="1"/>
        <pt x="386" y="79" on="0"/>
        <pt x="299" y="-8" on="0"/>
        <pt x="224" y="-8" on="1"/>
        <pt x="149" y="-8" on="0"/>
        <pt x="62" y="78" on="0"/>
        <pt x="62" y="168" on="1"/>
        <pt x="62" y="640" on="1"/>
      </contour>
    </TTGlyph>
    <TTGlyph name="U.sups" xMin="128" yMin="320" xMax="320" yMax="640">
      <contour>
        <pt x="128" y="384" on="1"/>
        <pt x="128" y="640" on="1"/>
        <pt x="192" y="640" on="1"/>
        <pt x="192" y="384" on="1"/>
      </contour>
      <contour>
        <pt x="320" y="640" on="1"/>
        <pt x="320" y="320" on="1"/>
        <pt x="192" y="320" on="1"/>
        <pt x="192" y="384" on="1"/>
        <pt x="256" y="384" on="1"/>
        <pt x="256" y="640" on="1"/>
      </contour>
    </TTGlyph>
    <TTGlyph name="Uacute" xMin="62" yMin="-8" xMax="386" yMax="859">
      <component glyphName="U" x="0" y="0" flags="0x0"/>
      <component glyphName="acutecomb.case" x="448" y="0" flags="0x0"/>
    </TTGlyph>
    <TTGlyph name="Ubreve" xMin="62" yMin="-8" xMax="386" yMax="832">
      <component glyphName="U" x="0" y="0" flags="0x0"/>
      <component glyphName="uni0306.case" x="448" y="0" flags="0x0"/>
    </TTGlyph>
    <TTGlyph name="Ucircumflex" xMin="62" yMin="-8" xMax="386" yMax="841">
      <component glyphName="U" x="0" y="0" flags="0x0"/>
      <component glyphName="uni0302.case" x="448" y="0" flags="0x0"/>
    </TTGlyph>
    <TTGlyph name="Udieresis" xMin="62" yMin="-8" xMax="386" yMax="820">
      <component glyphName="U" x="0" y="0" flags="0x0"/>
      <component glyphName="uni0308.case" x="448" y="0" flags="0x0"/>
    </TTGlyph>
    <TTGlyph name="Ugrave" xMin="62" yMin="-8" xMax="386" yMax="859">
      <component glyphName="U" x="0" y="0" flags="0x0"/>
      <component glyphName="gravecomb.case" x="448" y="0" flags="0x0"/>
    </TTGlyph>
    <TTGlyph name="Uhungarumlaut" xMin="62" yMin="-8" xMax="386" yMax="896">
      <component glyphName="U" x="0" y="0" flags="0x0"/>
      <component glyphName="uni030B.case" x="384" y="0" flags="0x0"/>
    </TTGlyph>
    <TTGlyph name="Umacron" xMin="62" yMin="-8" xMax="386" yMax="766">
      <component glyphName="U" x="0" y="0" flags="0x0"/>
      <component glyphName="uni0304.case" x="448" y="0" flags="0x0"/>
    </TTGlyph>
    <TTGlyph name="Uogonek" xMin="62" yMin="-197" xMax="386" yMax="640">
      <contour>
        <pt x="386" y="640" on="1"/>
        <pt x="386" y="170" on="1"/>
        <pt x="386" y="103" on="0"/>
        <pt x="337" y="19" on="0"/>
        <pt x="293" y="3" on="1"/>
        <pt x="261" y="-31" on="0"/>
        <pt x="229" y="-84" on="0"/>
        <pt x="229" y="-108" on="1"/>
        <pt x="229" y="-124" on="0"/>
        <pt x="242" y="-136" on="0"/>
        <pt x="255" y="-136" on="1"/>
        <pt x="272" y="-136" on="0"/>
        <pt x="290" y="-128" on="1"/>
        <pt x="307" y="-181" on="1"/>
        <pt x="279" y="-197" on="0"/>
        <pt x="243" y="-197" on="1"/>
        <pt x="202" y="-197" on="0"/>
        <pt x="159" y="-156" on="0"/>
        <pt x="159" y="-119" on="1"/>
        <pt x="159" y="-61" on="0"/>
        <pt x="218" y="-8" on="1"/>
        <pt x="146" y="-6" on="0"/>
        <pt x="62" y="80" on="0"/>
        <pt x="62" y="168" on="1"/>
        <pt x="62" y="640" on="1"/>
        <pt x="124" y="640" on="1"/>
        <pt x="124" y="166" on="1"/>
        <pt x="124" y="108" on="0"/>
        <pt x="167" y="48" on="0"/>
        <pt x="224" y="48" on="1"/>
        <pt x="279" y="48" on="0"/>
        <pt x="324" y="110" on="0"/>
        <pt x="324" y="166" on="1"/>
        <pt x="324" y="640" on="1"/>
      </contour>
    </TTGlyph>
    <TTGlyph name="Upsilon" xMin="40" yMin="0" xMax="409" yMax="643">
      <component glyphName="Y" x="0" y="0" flags="0x0"/>
    </TTGlyph>
    <TTGlyph name="Upsilondieresis" xMin="40" yMin="0" xMax="409" yMax="820">
      <component glyphName="Y" x="0" y="0" flags="0x0"/>
      <component glyphName="uni0308.case" x="448" y="0" flags="0x0"/>
    </TTGlyph>
    <TTGlyph name="Upsilontonos" xMin="-74" yMin="0" xMax="409" yMax="704">
      <component glyphName="Y" x="0" y="0" flags="0x0"/>
      <component glyphName="tonos" x="-256" y="0" flags="0x0"/>
    </TTGlyph>
    <TTGlyph name="Uring" xMin="62" yMin="-8" xMax="386" yMax="889">
      <component glyphName="U" x="0" y="0" flags="0x0"/>
      <component glyphName="uni030A.case" x="448" y="0" flags="0x0"/>
    </TTGlyph>
    <TTGlyph name="Utilde" xMin="62" yMin="-8" xMax="386" yMax="832">
      <component glyphName="U" x="0" y="0" flags="0x0"/>
      <component glyphName="tildecomb.case" x="448" y="0" flags="0x0"/>
    </TTGlyph>
    <TTGlyph name="V" xMin="39" yMin="-2" xMax="410" yMax="643">
      <contour>
        <pt x="410" y="638" on="1"/>
        <pt x="394" y="452" on="0"/>
        <pt x="313" y="120" on="0"/>
        <pt x="251" y="-2" on="1"/>
        <pt x="197" y="-2" on="1"/>
        <pt x="135" y="120" on="0"/>
        <pt x="54" y="453" on="0"/>
        <pt x="39" y="638" on="1"/>
        <pt x="103" y="643" on="1"/>
        <pt x="118" y="474" on="0"/>
        <pt x="180" y="188" on="0"/>
        <pt x="224" y="84" on="1"/>
        <pt x="268" y="188" on="0"/>
        <pt x="330" y="474" on="0"/>
        <pt x="346" y="643" on="1"/>
      </contour>
    </TTGlyph>
    <TTGlyph name="V.sups" xMin="106" yMin="320" xMax="341" yMax="640">
      <contour>
        <pt x="341" y="640" on="1"/>
        <pt x="320" y="477" on="0"/>
        <pt x="252" y="320" on="1"/>
        <pt x="196" y="320" on="1"/>
        <pt x="126" y="486" on="0"/>
        <pt x="106" y="640" on="1"/>
        <pt x="168" y="640" on="1"/>
        <pt x="184" y="515" on="0"/>
        <pt x="224" y="384" on="1"/>
        <pt x="264" y="518" on="0"/>
        <pt x="280" y="640" on="1"/>
      </contour>
    </TTGlyph>
    <TTGlyph name="W" xMin="47" yMin="0" xMax="401" yMax="640">
      <contour>
        <pt x="401" y="639" on="1"/>
        <pt x="399" y="440" on="0"/>
        <pt x="369" y="151" on="0"/>
        <pt x="331" y="0" on="1"/>
        <pt x="276" y="0" on="1"/>
        <pt x="249" y="73" on="0"/>
        <pt x="226" y="231" on="0"/>
        <pt x="224" y="340" on="1"/>
        <pt x="222" y="231" on="0"/>
        <pt x="199" y="73" on="0"/>
        <pt x="172" y="0" on="1"/>
        <pt x="117" y="0" on="1"/>
        <pt x="79" y="151" on="0"/>
        <pt x="49" y="441" on="0"/>
        <pt x="47" y="640" on="1"/>
        <pt x="109" y="640" on="1"/>
        <pt x="111" y="443" on="0"/>
        <pt x="125" y="196" on="0"/>
        <pt x="147" y="70" on="1"/>
        <pt x="171" y="174" on="0"/>
        <pt x="195" y="356" on="0"/>
        <pt x="195" y="448" on="1"/>
        <pt x="254" y="448" on="1"/>
        <pt x="254" y="355" on="0"/>
        <pt x="277" y="173" on="0"/>
        <pt x="301" y="70" on="1"/>
        <pt x="323" y="196" on="0"/>
        <pt x="337" y="443" on="0"/>
        <pt x="339" y="640" on="1"/>
      </contour>
    </TTGlyph>
    <TTGlyph name="W.sups" xMin="128" yMin="320" xMax="320" yMax="640">
      <contour>
        <pt x="320" y="640" on="1"/>
        <pt x="320" y="320" on="1"/>
        <pt x="128" y="320" on="1"/>
        <pt x="128" y="640" on="1"/>
        <pt x="192" y="640" on="1"/>
        <pt x="192" y="576" on="1"/>
        <pt x="256" y="576" on="1"/>
        <pt x="256" y="640" on="1"/>
      </contour>
    </TTGlyph>
    <TTGlyph name="Wacute" xMin="47" yMin="0" xMax="401" yMax="859">
      <component glyphName="W" x="0" y="0" flags="0x0"/>
      <component glyphName="acutecomb.case" x="448" y="0" flags="0x0"/>
    </TTGlyph>
    <TTGlyph name="Wcircumflex" xMin="47" yMin="0" xMax="401" yMax="841">
      <component glyphName="W" x="0" y="0" flags="0x0"/>
      <component glyphName="uni0302.case" x="448" y="0" flags="0x0"/>
    </TTGlyph>
    <TTGlyph name="Wdieresis" xMin="47" yMin="0" xMax="401" yMax="820">
      <component glyphName="W" x="0" y="0" flags="0x0"/>
      <component glyphName="uni0308.case" x="448" y="0" flags="0x0"/>
    </TTGlyph>
    <TTGlyph name="Wgrave" xMin="47" yMin="0" xMax="401" yMax="859">
      <component glyphName="W" x="0" y="0" flags="0x0"/>
      <component glyphName="gravecomb.case" x="448" y="0" flags="0x0"/>
    </TTGlyph>
    <TTGlyph name="X" xMin="51" yMin="-7" xMax="397" yMax="643">
      <contour>
        <pt x="335" y="-7" on="1"/>
        <pt x="316" y="90" on="0"/>
        <pt x="270" y="203" on="0"/>
        <pt x="224" y="261" on="1"/>
        <pt x="178" y="202" on="0"/>
        <pt x="131" y="89" on="0"/>
        <pt x="112" y="-7" on="1"/>
        <pt x="51" y="6" on="1"/>
        <pt x="69" y="100" on="0"/>
        <pt x="124" y="231" on="0"/>
        <pt x="179" y="300" on="1"/>
        <pt x="123" y="365" on="0"/>
        <pt x="70" y="515" on="0"/>
        <pt x="59" y="636" on="1"/>
        <pt x="121" y="643" on="1"/>
        <pt x="132" y="523" on="0"/>
        <pt x="175" y="393" on="0"/>
        <pt x="224" y="340" on="1"/>
        <pt x="273" y="393" on="0"/>
        <pt x="316" y="523" on="0"/>
        <pt x="328" y="643" on="1"/>
        <pt x="390" y="636" on="1"/>
        <pt x="378" y="515" on="0"/>
        <pt x="325" y="365" on="0"/>
        <pt x="269" y="300" on="1"/>
        <pt x="323" y="231" on="0"/>
        <pt x="378" y="101" on="0"/>
        <pt x="397" y="6" on="1"/>
      </contour>
    </TTGlyph>
    <TTGlyph name="X.sups" xMin="128" yMin="320" xMax="320" yMax="640">
      <contour>
        <pt x="192" y="512" on="1"/>
        <pt x="128" y="512" on="1"/>
        <pt x="128" y="640" on="1"/>
        <pt x="192" y="640" on="1"/>
      </contour>
      <contour>
        <pt x="320" y="640" on="1"/>
        <pt x="320" y="512" on="1"/>
        <pt x="256" y="512" on="1"/>
        <pt x="256" y="640" on="1"/>
      </contour>
      <contour>
        <pt x="192" y="512" on="1"/>
        <pt x="256" y="512" on="1"/>
        <pt x="256" y="448" on="1"/>
        <pt x="192" y="448" on="1"/>
      </contour>
      <contour>
        <pt x="192" y="448" on="1"/>
        <pt x="192" y="320" on="1"/>
        <pt x="128" y="320" on="1"/>
        <pt x="128" y="448" on="1"/>
      </contour>
      <contour>
        <pt x="256" y="448" on="1"/>
        <pt x="320" y="448" on="1"/>
        <pt x="320" y="320" on="1"/>
        <pt x="256" y="320" on="1"/>
      </contour>
    </TTGlyph>
    <TTGlyph name="Xi" xMin="54" yMin="0" xMax="394" yMax="640">
      <contour>
        <pt x="389" y="640" on="1"/>
        <pt x="389" y="576" on="1"/>
        <pt x="59" y="576" on="1"/>
        <pt x="59" y="640" on="1"/>
      </contour>
      <contour>
        <pt x="340" y="320" on="1"/>
        <pt x="340" y="256" on="1"/>
        <pt x="108" y="256" on="1"/>
        <pt x="108" y="320" on="1"/>
      </contour>
      <contour>
        <pt x="394" y="64" on="1"/>
        <pt x="394" y="0" on="1"/>
        <pt x="54" y="0" on="1"/>
        <pt x="54" y="64" on="1"/>
      </contour>
    </TTGlyph>
    <TTGlyph name="Y" xMin="40" yMin="0" xMax="409" yMax="643">
      <contour>
        <pt x="409" y="636" on="1"/>
        <pt x="393" y="496" on="0"/>
        <pt x="317" y="285" on="0"/>
        <pt x="255" y="202" on="1"/>
        <pt x="255" y="0" on="1"/>
        <pt x="193" y="0" on="1"/>
        <pt x="193" y="202" on="1"/>
        <pt x="131" y="285" on="0"/>
        <pt x="56" y="496" on="0"/>
        <pt x="40" y="636" on="1"/>
        <pt x="101" y="643" on="1"/>
        <pt x="118" y="519" on="0"/>
        <pt x="173" y="342" on="0"/>
        <pt x="224" y="252" on="1"/>
        <pt x="275" y="342" on="0"/>
        <pt x="330" y="519" on="0"/>
        <pt x="348" y="643" on="1"/>
      </contour>
    </TTGlyph>
    <TTGlyph name="Y.sups" xMin="128" yMin="320" xMax="320" yMax="640">
      <contour>
        <pt x="320" y="640" on="1"/>
        <pt x="320" y="384" on="1"/>
        <pt x="256" y="384" on="1"/>
        <pt x="256" y="448" on="1"/>
        <pt x="128" y="448" on="1"/>
        <pt x="128" y="640" on="1"/>
        <pt x="192" y="640" on="1"/>
        <pt x="192" y="512" on="1"/>
        <pt x="256" y="512" on="1"/>
        <pt x="256" y="640" on="1"/>
      </contour>
      <contour>
        <pt x="256" y="384" on="1"/>
        <pt x="256" y="320" on="1"/>
        <pt x="128" y="320" on="1"/>
        <pt x="128" y="384" on="1"/>
      </contour>
    </TTGlyph>
    <TTGlyph name="Yacute" xMin="40" yMin="0" xMax="409" yMax="859">
      <component glyphName="Y" x="0" y="0" flags="0x0"/>
      <component glyphName="acutecomb.case" x="448" y="0" flags="0x0"/>
    </TTGlyph>
    <TTGlyph name="Ycircumflex" xMin="40" yMin="0" xMax="409" yMax="841">
      <component glyphName="Y" x="0" y="0" flags="0x0"/>
      <component glyphName="uni0302.case" x="448" y="0" flags="0x0"/>
    </TTGlyph>
    <TTGlyph name="Ydieresis" xMin="40" yMin="0" xMax="409" yMax="820">
      <component glyphName="Y" x="0" y="0" flags="0x0"/>
      <component glyphName="uni0308.case" x="448" y="0" flags="0x0"/>
    </TTGlyph>
    <TTGlyph name="Ygrave" xMin="40" yMin="0" xMax="409" yMax="859">
      <component glyphName="Y" x="0" y="0" flags="0x0"/>
      <component glyphName="gravecomb.case" x="448" y="0" flags="0x0"/>
    </TTGlyph>
    <TTGlyph name="Z" xMin="58" yMin="0" xMax="386" yMax="640">
      <contour>
        <pt x="386" y="594" on="1"/>
        <pt x="130" y="56" on="1"/>
        <pt x="386" y="56" on="1"/>
        <pt x="386" y="0" on="1"/>
        <pt x="58" y="0" on="1"/>
        <pt x="58" y="46" on="1"/>
        <pt x="313" y="584" on="1"/>
        <pt x="70" y="584" on="1"/>
        <pt x="70" y="640" on="1"/>
        <pt x="386" y="640" on="1"/>
      </contour>
    </TTGlyph>
    <TTGlyph name="Z.sups" xMin="128" yMin="320" xMax="320" yMax="640">
      <contour>
        <pt x="320" y="512" on="1"/>
        <pt x="256" y="512" on="1"/>
        <pt x="256" y="576" on="1"/>
        <pt x="128" y="576" on="1"/>
        <pt x="128" y="640" on="1"/>
        <pt x="320" y="640" on="1"/>
      </contour>
      <contour>
        <pt x="192" y="512" on="1"/>
        <pt x="256" y="512" on="1"/>
        <pt x="256" y="448" on="1"/>
        <pt x="192" y="448" on="1"/>
      </contour>
      <contour>
        <pt x="192" y="448" on="1"/>
        <pt x="192" y="384" on="1"/>
        <pt x="320" y="384" on="1"/>
        <pt x="320" y="320" on="1"/>
        <pt x="128" y="320" on="1"/>
        <pt x="128" y="448" on="1"/>
      </contour>
    </TTGlyph>
    <TTGlyph name="Zacute" xMin="58" yMin="0" xMax="386" yMax="859">
      <component glyphName="Z" x="0" y="0" flags="0x0"/>
      <component glyphName="acutecomb.case" x="448" y="0" flags="0x0"/>
    </TTGlyph>
    <TTGlyph name="Zcaron" xMin="58" yMin="0" xMax="386" yMax="841">
      <component glyphName="Z" x="0" y="0" flags="0x0"/>
      <component glyphName="uni030C.case" x="448" y="0" flags="0x0"/>
    </TTGlyph>
    <TTGlyph name="Zdotaccent" xMin="58" yMin="0" xMax="386" yMax="840">
      <component glyphName="Z" x="0" y="0" flags="0x0"/>
      <component glyphName="uni0307" x="448" y="192" flags="0x4"/>
    </TTGlyph>
    <TTGlyph name="Zeta" xMin="58" yMin="0" xMax="386" yMax="640">
      <component glyphName="Z" x="0" y="0" flags="0x0"/>
    </TTGlyph>
    <TTGlyph name="a" xMin="50" yMin="-4" xMax="379" yMax="453">
      <contour>
        <pt x="321" y="0" on="1"/>
        <pt x="315" y="46" on="1"/>
        <pt x="279" y="22" on="0"/>
        <pt x="212" y="-4" on="0"/>
        <pt x="174" y="-4" on="1"/>
        <pt x="122" y="-4" on="0"/>
        <pt x="50" y="59" on="0"/>
        <pt x="50" y="117" on="1"/>
        <pt x="50" y="186" on="0"/>
        <pt x="176" y="260" on="0"/>
        <pt x="313" y="264" on="1"/>
        <pt x="313" y="290" on="1"/>
        <pt x="313" y="350" on="0"/>
        <pt x="270" y="396" on="0"/>
        <pt x="219" y="396" on="1"/>
        <pt x="168" y="396" on="0"/>
        <pt x="89" y="369" on="1"/>
        <pt x="72" y="418" on="1"/>
        <pt x="152" y="453" on="0"/>
        <pt x="223" y="453" on="1"/>
        <pt x="297" y="453" on="0"/>
        <pt x="375" y="382" on="0"/>
        <pt x="375" y="304" on="1"/>
        <pt x="375" y="64" on="1"/>
        <pt x="379" y="0" on="1"/>
      </contour>
      <contour>
        <pt x="116" y="88" on="0"/>
        <pt x="150" y="52" on="0"/>
        <pt x="184" y="52" on="1"/>
        <pt x="214" y="52" on="0"/>
        <pt x="273" y="76" on="0"/>
        <pt x="313" y="100" on="1"/>
        <pt x="313" y="211" on="1"/>
        <pt x="207" y="208" on="0"/>
        <pt x="116" y="163" on="0"/>
        <pt x="116" y="120" on="1"/>
      </contour>
    </TTGlyph>
    <TTGlyph name="aacute" xMin="50" yMin="-4" xMax="379" yMax="667">
      <component glyphName="a" x="0" y="0" flags="0x0"/>
      <component glyphName="acutecomb" x="448" y="0" flags="0x0"/>
    </TTGlyph>
    <TTGlyph name="abreve" xMin="50" yMin="-4" xMax="384" yMax="640">
      <component glyphName="a" x="0" y="0" flags="0x0"/>
      <component glyphName="uni0306" x="448" y="0" flags="0x0"/>
    </TTGlyph>
    <TTGlyph name="acircumflex" xMin="50" yMin="-4" xMax="379" yMax="649">
      <component glyphName="a" x="0" y="0" flags="0x0"/>
      <component glyphName="uni0302" x="448" y="0" flags="0x0"/>
    </TTGlyph>
    <TTGlyph name="acute" xMin="156" yMin="380" xMax="304" yMax="643">
      <contour>
        <pt x="156" y="393" on="1"/>
        <pt x="220" y="643" on="1"/>
        <pt x="304" y="630" on="1"/>
        <pt x="216" y="380" on="1"/>
      </contour>
    </TTGlyph>
    <TTGlyph name="acutecomb" xMin="-272" yMin="506" xMax="-114" yMax="667">
      <contour>
        <pt x="-114" y="616" on="1"/>
        <pt x="-232" y="506" on="1"/>
        <pt x="-272" y="546" on="1"/>
        <pt x="-176" y="667" on="1"/>
      </contour>
    </TTGlyph>
    <TTGlyph name="acutecomb.case" xMin="-272" yMin="698" xMax="-114" yMax="859">
      <contour>
        <pt x="-114" y="808" on="1"/>
        <pt x="-232" y="698" on="1"/>
        <pt x="-272" y="738" on="1"/>
        <pt x="-176" y="859" on="1"/>
      </contour>
    </TTGlyph>
    <TTGlyph name="adieresis" xMin="50" yMin="-4" xMax="379" yMax="648">
      <component glyphName="a" x="0" y="0" flags="0x0"/>
      <component glyphName="uni0308" x="448" y="0" flags="0x0"/>
    </TTGlyph>
    <TTGlyph name="ae" xMin="64" yMin="0" xMax="384" yMax="448">
      <contour>
        <pt x="384" y="384" on="1"/>
        <pt x="384" y="192" on="1"/>
        <pt x="256" y="192" on="1"/>
        <pt x="256" y="64" on="1"/>
        <pt x="384" y="64" on="1"/>
        <pt x="384" y="0" on="1"/>
        <pt x="128" y="0" on="1"/>
        <pt x="128" y="64" on="1"/>
        <pt x="192" y="64" on="1"/>
        <pt x="192" y="192" on="1"/>
        <pt x="128" y="192" on="1"/>
        <pt x="128" y="256" on="1"/>
        <pt x="192" y="256" on="1"/>
        <pt x="192" y="384" on="1"/>
        <pt x="128" y="384" on="1"/>
        <pt x="128" y="448" on="1"/>
        <pt x="320" y="448" on="1"/>
        <pt x="320" y="384" on="1"/>
        <pt x="256" y="384" on="1"/>
        <pt x="256" y="256" on="1"/>
        <pt x="320" y="256" on="1"/>
        <pt x="320" y="384" on="1"/>
      </contour>
      <contour>
        <pt x="128" y="64" on="1"/>
        <pt x="64" y="64" on="1"/>
        <pt x="64" y="192" on="1"/>
        <pt x="128" y="192" on="1"/>
      </contour>
    </TTGlyph>
    <TTGlyph name="aeacute" xMin="64" yMin="0" xMax="384" yMax="667">
      <component glyphName="ae" x="0" y="0" flags="0x0"/>
      <component glyphName="acutecomb" x="448" y="0" flags="0x0"/>
    </TTGlyph>
    <TTGlyph name="agrave" xMin="50" yMin="-4" xMax="379" yMax="667">
      <component glyphName="a" x="0" y="0" flags="0x0"/>
      <component glyphName="gravecomb" x="448" y="0" flags="0x0"/>
    </TTGlyph>
    <TTGlyph name="alpha" xMin="51" yMin="-8" xMax="400" yMax="456">
      <contour>
        <pt x="387" y="169" on="0"/>
        <pt x="393" y="91" on="1"/>
        <pt x="400" y="2" on="1"/>
        <pt x="328" y="-3" on="1"/>
        <pt x="325" y="84" on="1"/>
        <pt x="272" y="-8" on="0"/>
        <pt x="194" y="-8" on="1"/>
        <pt x="118" y="-8" on="0"/>
        <pt x="51" y="117" on="0"/>
        <pt x="51" y="224" on="1"/>
        <pt x="51" y="331" on="0"/>
        <pt x="118" y="456" on="0"/>
        <pt x="194" y="456" on="1"/>
        <pt x="272" y="456" on="0"/>
        <pt x="325" y="364" on="1"/>
        <pt x="328" y="451" on="1"/>
        <pt x="400" y="446" on="1"/>
        <pt x="393" y="357" on="1"/>
        <pt x="387" y="279" on="0"/>
        <pt x="374" y="224" on="1"/>
      </contour>
      <contour>
        <pt x="236" y="56" on="0"/>
        <pt x="299" y="142" on="0"/>
        <pt x="313" y="224" on="1"/>
        <pt x="299" y="306" on="0"/>
        <pt x="236" y="392" on="0"/>
        <pt x="199" y="392" on="1"/>
        <pt x="162" y="392" on="0"/>
        <pt x="129" y="318" on="0"/>
        <pt x="129" y="224" on="1"/>
        <pt x="129" y="130" on="0"/>
        <pt x="162" y="56" on="0"/>
        <pt x="199" y="56" on="1"/>
      </contour>
    </TTGlyph>
    <TTGlyph name="alphatonos" xMin="51" yMin="-8" xMax="400" yMax="704">
      <component glyphName="alpha" x="0" y="0" flags="0x0"/>
      <component glyphName="tonos" x="0" y="0" flags="0x0"/>
    </TTGlyph>
    <TTGlyph name="amacron" xMin="50" yMin="-4" xMax="379" yMax="640">
      <component glyphName="a" x="0" y="0" flags="0x0"/>
      <component glyphName="uni0304" x="448" y="0" flags="0x0"/>
    </TTGlyph>
    <TTGlyph name="ampersand" xMin="38" yMin="-10" xMax="426" yMax="542">
      <contour>
        <pt x="426" y="258" on="1"/>
        <pt x="366" y="258" on="1"/>
        <pt x="366" y="18" on="1"/>
        <pt x="328" y="5" on="0"/>
        <pt x="242" y="-10" on="0"/>
        <pt x="208" y="-10" on="1"/>
        <pt x="119" y="-10" on="0"/>
        <pt x="38" y="77" on="0"/>
        <pt x="38" y="144" on="1"/>
        <pt x="38" y="187" on="0"/>
        <pt x="80" y="264" on="0"/>
        <pt x="131" y="288" on="1"/>
        <pt x="91" y="304" on="0"/>
        <pt x="53" y="364" on="0"/>
        <pt x="53" y="403" on="1"/>
        <pt x="53" y="465" on="0"/>
        <pt x="136" y="542" on="0"/>
        <pt x="215" y="542" on="1"/>
        <pt x="261" y="542" on="0"/>
        <pt x="317" y="530" on="1"/>
        <pt x="306" y="472" on="1"/>
        <pt x="248" y="482" on="0"/>
        <pt x="209" y="482" on="1"/>
        <pt x="158" y="482" on="0"/>
        <pt x="115" y="435" on="0"/>
        <pt x="115" y="400" on="1"/>
        <pt x="115" y="363" on="0"/>
        <pt x="161" y="318" on="0"/>
        <pt x="220" y="318" on="1"/>
        <pt x="426" y="318" on="1"/>
      </contour>
      <contour>
        <pt x="304" y="258" on="1"/>
        <pt x="233" y="258" on="1"/>
        <pt x="160" y="258" on="0"/>
        <pt x="101" y="194" on="0"/>
        <pt x="101" y="146" on="1"/>
        <pt x="101" y="50" on="0"/>
        <pt x="203" y="50" on="1"/>
        <pt x="260" y="50" on="0"/>
        <pt x="304" y="61" on="1"/>
      </contour>
    </TTGlyph>
    <TTGlyph name="ampersand.alt001" xMin="38" yMin="-21" xMax="451" yMax="516">
      <contour>
        <pt x="388" y="-21" on="1"/>
        <pt x="376" y="18" on="0"/>
        <pt x="356" y="51" on="1"/>
        <pt x="296" y="-7" on="0"/>
        <pt x="203" y="-7" on="1"/>
        <pt x="119" y="-7" on="0"/>
        <pt x="38" y="65" on="0"/>
        <pt x="38" y="121" on="1"/>
        <pt x="38" y="166" on="0"/>
        <pt x="87" y="228" on="0"/>
        <pt x="131" y="258" on="1"/>
        <pt x="96" y="290" on="0"/>
        <pt x="58" y="353" on="0"/>
        <pt x="58" y="391" on="1"/>
        <pt x="58" y="449" on="0"/>
        <pt x="132" y="516" on="0"/>
        <pt x="195" y="516" on="1"/>
        <pt x="256" y="516" on="0"/>
        <pt x="329" y="451" on="0"/>
        <pt x="329" y="398" on="1"/>
        <pt x="329" y="353" on="0"/>
        <pt x="281" y="288" on="0"/>
        <pt x="238" y="258" on="1"/>
        <pt x="279" y="228" on="0"/>
        <pt x="327" y="188" on="0"/>
        <pt x="351" y="164" on="1"/>
        <pt x="365" y="204" on="0"/>
        <pt x="370" y="261" on="1"/>
        <pt x="436" y="256" on="1"/>
        <pt x="430" y="168" on="0"/>
        <pt x="398" y="109" on="1"/>
        <pt x="435" y="57" on="0"/>
        <pt x="451" y="0" on="1"/>
      </contour>
      <contour>
        <pt x="128" y="365" on="0"/>
        <pt x="159" y="321" on="0"/>
        <pt x="189" y="296" on="1"/>
        <pt x="224" y="320" on="0"/>
        <pt x="260" y="365" on="0"/>
        <pt x="260" y="395" on="1"/>
        <pt x="260" y="452" on="0"/>
        <pt x="192" y="452" on="1"/>
        <pt x="158" y="452" on="0"/>
        <pt x="128" y="417" on="0"/>
        <pt x="128" y="390" on="1"/>
      </contour>
      <contour>
        <pt x="277" y="57" on="0"/>
        <pt x="318" y="103" on="1"/>
        <pt x="295" y="130" on="0"/>
        <pt x="242" y="173" on="0"/>
        <pt x="202" y="203" on="1"/>
        <pt x="195" y="209" on="0"/>
        <pt x="181" y="219" on="1"/>
        <pt x="147" y="195" on="0"/>
        <pt x="112" y="152" on="0"/>
        <pt x="112" y="125" on="1"/>
        <pt x="112" y="96" on="0"/>
        <pt x="154" y="57" on="0"/>
        <pt x="204" y="57" on="1"/>
      </contour>
    </TTGlyph>
    <TTGlyph name="ampersand.alt002" xMin="54" yMin="-8" xMax="448" yMax="458">
      <contour>
        <pt x="448" y="256" on="1"/>
        <pt x="448" y="192" on="1"/>
        <pt x="388" y="192" on="1"/>
        <pt x="388" y="30" on="1"/>
        <pt x="352" y="12" on="0"/>
        <pt x="264" y="-8" on="0"/>
        <pt x="224" y="-8" on="1"/>
        <pt x="145" y="-8" on="0"/>
        <pt x="54" y="109" on="0"/>
        <pt x="54" y="234" on="1"/>
        <pt x="54" y="344" on="0"/>
        <pt x="135" y="458" on="0"/>
        <pt x="199" y="458" on="1"/>
        <pt x="253" y="458" on="0"/>
        <pt x="320" y="394" on="0"/>
        <pt x="320" y="347" on="1"/>
        <pt x="320" y="294" on="0"/>
        <pt x="276" y="256" on="1"/>
      </contour>
      <contour>
        <pt x="133" y="394" on="0"/>
        <pt x="128" y="258" on="1"/>
        <pt x="244" y="282" on="0"/>
        <pt x="244" y="347" on="1"/>
        <pt x="244" y="366" on="0"/>
        <pt x="223" y="394" on="0"/>
        <pt x="198" y="394" on="1"/>
      </contour>
      <contour>
        <pt x="316" y="192" on="1"/>
        <pt x="256" y="192" on="1"/>
        <pt x="256" y="240" on="1"/>
        <pt x="207" y="208" on="0"/>
        <pt x="129" y="195" on="1"/>
        <pt x="133" y="118" on="0"/>
        <pt x="178" y="56" on="0"/>
        <pt x="224" y="56" on="1"/>
        <pt x="271" y="56" on="0"/>
        <pt x="316" y="74" on="1"/>
      </contour>
    </TTGlyph>
    <TTGlyph name="ampersand.alt003" xMin="43" yMin="-8" xMax="448" yMax="512">
      <contour>
        <pt x="448" y="201" on="1"/>
        <pt x="388" y="197" on="1"/>
        <pt x="388" y="30" on="1"/>
        <pt x="352" y="12" on="0"/>
        <pt x="264" y="-8" on="0"/>
        <pt x="224" y="-8" on="1"/>
        <pt x="143" y="-8" on="0"/>
        <pt x="43" y="71" on="0"/>
        <pt x="43" y="143" on="1"/>
        <pt x="43" y="183" on="0"/>
        <pt x="81" y="239" on="0"/>
        <pt x="114" y="262" on="1"/>
        <pt x="62" y="309" on="0"/>
        <pt x="62" y="379" on="1"/>
        <pt x="62" y="437" on="0"/>
        <pt x="144" y="512" on="0"/>
        <pt x="204" y="512" on="1"/>
        <pt x="264" y="512" on="0"/>
        <pt x="344" y="445" on="0"/>
        <pt x="344" y="393" on="1"/>
        <pt x="344" y="346" on="0"/>
        <pt x="289" y="292" on="0"/>
        <pt x="236" y="265" on="1"/>
        <pt x="272" y="256" on="0"/>
        <pt x="325" y="256" on="1"/>
        <pt x="448" y="256" on="1"/>
      </contour>
      <contour>
        <pt x="138" y="323" on="0"/>
        <pt x="171" y="294" on="1"/>
        <pt x="222" y="321" on="0"/>
        <pt x="268" y="359" on="0"/>
        <pt x="268" y="388" on="1"/>
        <pt x="268" y="417" on="0"/>
        <pt x="232" y="448" on="0"/>
        <pt x="204" y="448" on="1"/>
        <pt x="176" y="448" on="0"/>
        <pt x="138" y="408" on="0"/>
        <pt x="138" y="373" on="1"/>
      </contour>
      <contour>
        <pt x="271" y="56" on="0"/>
        <pt x="316" y="74" on="1"/>
        <pt x="316" y="196" on="1"/>
        <pt x="231" y="199" on="0"/>
        <pt x="169" y="227" on="1"/>
        <pt x="145" y="210" on="0"/>
        <pt x="119" y="168" on="0"/>
        <pt x="119" y="139" on="1"/>
        <pt x="119" y="56" on="0"/>
        <pt x="224" y="56" on="1"/>
      </contour>
    </TTGlyph>
    <TTGlyph name="angle" xMin="64" yMin="64" xMax="384" yMax="522">
      <contour>
        <pt x="64" y="64" on="1"/>
        <pt x="64" y="128" on="1"/>
        <pt x="258" y="522" on="1"/>
        <pt x="316" y="494" on="1"/>
        <pt x="136" y="128" on="1"/>
        <pt x="384" y="128" on="1"/>
        <pt x="384" y="64" on="1"/>
      </contour>
    </TTGlyph>
    <TTGlyph name="anoteleia" xMin="165" yMin="192" xMax="283" yMax="310">
      <component glyphName="period" x="32" y="202" flags="0x4"/>
    </TTGlyph>
    <TTGlyph name="aogonek" xMin="50" yMin="-197" xMax="399" yMax="453">
      <contour>
        <pt x="399" y="-181" on="1"/>
        <pt x="371" y="-197" on="0"/>
        <pt x="335" y="-197" on="1"/>
        <pt x="294" y="-197" on="0"/>
        <pt x="251" y="-156" on="0"/>
        <pt x="251" y="-119" on="1"/>
        <pt x="251" y="-58" on="0"/>
        <pt x="321" y="2" on="1"/>
        <pt x="315" y="46" on="1"/>
        <pt x="279" y="22" on="0"/>
        <pt x="212" y="-4" on="0"/>
        <pt x="174" y="-4" on="1"/>
        <pt x="122" y="-4" on="0"/>
        <pt x="50" y="59" on="0"/>
        <pt x="50" y="117" on="1"/>
        <pt x="50" y="186" on="0"/>
        <pt x="176" y="260" on="0"/>
        <pt x="313" y="264" on="1"/>
        <pt x="313" y="290" on="1"/>
        <pt x="313" y="350" on="0"/>
        <pt x="270" y="396" on="0"/>
        <pt x="219" y="396" on="1"/>
        <pt x="168" y="396" on="0"/>
        <pt x="89" y="369" on="1"/>
        <pt x="72" y="418" on="1"/>
        <pt x="152" y="453" on="0"/>
        <pt x="223" y="453" on="1"/>
        <pt x="297" y="453" on="0"/>
        <pt x="375" y="382" on="0"/>
        <pt x="375" y="304" on="1"/>
        <pt x="375" y="64" on="1"/>
        <pt x="379" y="6" on="1"/>
        <pt x="385" y="3" on="1"/>
        <pt x="353" y="-31" on="0"/>
        <pt x="321" y="-84" on="0"/>
        <pt x="321" y="-108" on="1"/>
        <pt x="321" y="-124" on="0"/>
        <pt x="334" y="-136" on="0"/>
        <pt x="347" y="-136" on="1"/>
        <pt x="364" y="-136" on="0"/>
        <pt x="382" y="-128" on="1"/>
      </contour>
      <contour>
        <pt x="116" y="88" on="0"/>
        <pt x="150" y="52" on="0"/>
        <pt x="184" y="52" on="1"/>
        <pt x="214" y="52" on="0"/>
        <pt x="273" y="76" on="0"/>
        <pt x="313" y="100" on="1"/>
        <pt x="313" y="211" on="1"/>
        <pt x="207" y="208" on="0"/>
        <pt x="116" y="163" on="0"/>
        <pt x="116" y="120" on="1"/>
      </contour>
    </TTGlyph>
    <TTGlyph name="approxequal" xMin="64" yMin="64" xMax="384" yMax="448">
      <contour>
        <pt x="192" y="384" on="1"/>
        <pt x="128" y="384" on="1"/>
        <pt x="128" y="448" on="1"/>
        <pt x="192" y="448" on="1"/>
      </contour>
      <contour>
        <pt x="384" y="448" on="1"/>
        <pt x="384" y="320" on="1"/>
        <pt x="320" y="320" on="1"/>
        <pt x="320" y="448" on="1"/>
      </contour>
      <contour>
        <pt x="128" y="256" on="1"/>
        <pt x="64" y="256" on="1"/>
        <pt x="64" y="384" on="1"/>
        <pt x="128" y="384" on="1"/>
      </contour>
      <contour>
        <pt x="192" y="320" on="1"/>
        <pt x="192" y="384" on="1"/>
        <pt x="256" y="384" on="1"/>
        <pt x="256" y="320" on="1"/>
      </contour>
      <contour>
        <pt x="256" y="320" on="1"/>
        <pt x="320" y="320" on="1"/>
        <pt x="320" y="256" on="1"/>
        <pt x="256" y="256" on="1"/>
      </contour>
      <contour>
        <pt x="192" y="256" on="1"/>
        <pt x="192" y="192" on="1"/>
        <pt x="128" y="192" on="1"/>
        <pt x="128" y="256" on="1"/>
      </contour>
      <contour>
        <pt x="320" y="256" on="1"/>
        <pt x="384" y="256" on="1"/>
        <pt x="384" y="128" on="1"/>
        <pt x="320" y="128" on="1"/>
      </contour>
      <contour>
        <pt x="128" y="192" on="1"/>
        <pt x="128" y="64" on="1"/>
        <pt x="64" y="64" on="1"/>
        <pt x="64" y="192" on="1"/>
      </contour>
      <contour>
        <pt x="256" y="192" on="1"/>
        <pt x="256" y="128" on="1"/>
        <pt x="192" y="128" on="1"/>
        <pt x="192" y="192" on="1"/>
      </contour>
      <contour>
        <pt x="256" y="128" on="1"/>
        <pt x="320" y="128" on="1"/>
        <pt x="320" y="64" on="1"/>
        <pt x="256" y="64" on="1"/>
      </contour>
    </TTGlyph>
    <TTGlyph name="aring" xMin="50" yMin="-4" xMax="379" yMax="697">
      <component glyphName="a" x="0" y="0" flags="0x0"/>
      <component glyphName="uni030A" x="448" y="0" flags="0x0"/>
    </TTGlyph>
    <TTGlyph name="aringacute" xMin="50" yMin="-4" xMax="379" yMax="859">
      <component glyphName="a" x="0" y="0" flags="0x0"/>
      <component glyphName="uni030A" x="448" y="0" flags="0x0"/>
      <component glyphName="acutecomb" x="448" y="192" flags="0x4"/>
    </TTGlyph>
    <TTGlyph name="arrowboth" xMin="-10" yMin="54" xMax="458" yMax="394">
      <contour>
        <pt x="207" y="98" on="1"/>
        <pt x="169" y="54" on="1"/>
        <pt x="-10" y="202" on="1"/>
        <pt x="-10" y="246" on="1"/>
        <pt x="169" y="394" on="1"/>
        <pt x="207" y="350" on="1"/>
        <pt x="98" y="256" on="1"/>
        <pt x="350" y="256" on="1"/>
        <pt x="241" y="350" on="1"/>
        <pt x="279" y="394" on="1"/>
        <pt x="458" y="246" on="1"/>
        <pt x="458" y="202" on="1"/>
        <pt x="279" y="54" on="1"/>
        <pt x="241" y="98" on="1"/>
        <pt x="350" y="192" on="1"/>
        <pt x="98" y="192" on="1"/>
      </contour>
    </TTGlyph>
    <TTGlyph name="arrowdown" xMin="54" yMin="54" xMax="394" yMax="512">
      <contour>
        <pt x="256" y="512" on="1"/>
        <pt x="256" y="162" on="1"/>
        <pt x="350" y="271" on="1"/>
        <pt x="394" y="233" on="1"/>
        <pt x="246" y="54" on="1"/>
        <pt x="202" y="54" on="1"/>
        <pt x="54" y="233" on="1"/>
        <pt x="98" y="271" on="1"/>
        <pt x="192" y="162" on="1"/>
        <pt x="192" y="512" on="1"/>
      </contour>
    </TTGlyph>
    <TTGlyph name="arrowleft" xMin="-10" yMin="54" xMax="448" yMax="394">
      <contour>
        <pt x="207" y="98" on="1"/>
        <pt x="169" y="54" on="1"/>
        <pt x="-10" y="202" on="1"/>
        <pt x="-10" y="246" on="1"/>
        <pt x="169" y="394" on="1"/>
        <pt x="207" y="350" on="1"/>
        <pt x="98" y="256" on="1"/>
        <pt x="448" y="256" on="1"/>
        <pt x="448" y="192" on="1"/>
        <pt x="98" y="192" on="1"/>
      </contour>
    </TTGlyph>
    <TTGlyph name="arrowright" xMin="0" yMin="54" xMax="458" yMax="394">
      <contour>
        <pt x="0" y="256" on="1"/>
        <pt x="350" y="256" on="1"/>
        <pt x="241" y="350" on="1"/>
        <pt x="279" y="394" on="1"/>
        <pt x="458" y="246" on="1"/>
        <pt x="458" y="202" on="1"/>
        <pt x="279" y="54" on="1"/>
        <pt x="241" y="98" on="1"/>
        <pt x="350" y="192" on="1"/>
        <pt x="0" y="192" on="1"/>
      </contour>
    </TTGlyph>
    <TTGlyph name="arrowup" xMin="54" yMin="64" xMax="394" yMax="522">
      <contour>
        <pt x="98" y="305" on="1"/>
        <pt x="54" y="343" on="1"/>
        <pt x="202" y="522" on="1"/>
        <pt x="246" y="522" on="1"/>
        <pt x="394" y="343" on="1"/>
        <pt x="350" y="305" on="1"/>
        <pt x="256" y="414" on="1"/>
        <pt x="256" y="64" on="1"/>
        <pt x="192" y="64" on="1"/>
        <pt x="192" y="414" on="1"/>
      </contour>
    </TTGlyph>
    <TTGlyph name="arrowupdn" xMin="54" yMin="54" xMax="394" yMax="522">
      <contour>
        <pt x="98" y="305" on="1"/>
        <pt x="54" y="343" on="1"/>
        <pt x="202" y="522" on="1"/>
        <pt x="246" y="522" on="1"/>
        <pt x="394" y="343" on="1"/>
        <pt x="350" y="305" on="1"/>
        <pt x="256" y="414" on="1"/>
        <pt x="256" y="162" on="1"/>
        <pt x="350" y="271" on="1"/>
        <pt x="394" y="233" on="1"/>
        <pt x="246" y="54" on="1"/>
        <pt x="202" y="54" on="1"/>
        <pt x="54" y="233" on="1"/>
        <pt x="98" y="271" on="1"/>
        <pt x="192" y="162" on="1"/>
        <pt x="192" y="414" on="1"/>
      </contour>
    </TTGlyph>
    <TTGlyph name="arrowupdnbse" xMin="54" yMin="0" xMax="394" yMax="522">
      <contour>
        <pt x="394" y="233" on="1"/>
        <pt x="254" y="64" on="1"/>
        <pt x="384" y="64" on="1"/>
        <pt x="384" y="0" on="1"/>
        <pt x="64" y="0" on="1"/>
        <pt x="64" y="64" on="1"/>
        <pt x="194" y="64" on="1"/>
        <pt x="54" y="233" on="1"/>
        <pt x="98" y="271" on="1"/>
        <pt x="192" y="162" on="1"/>
        <pt x="192" y="414" on="1"/>
        <pt x="98" y="305" on="1"/>
        <pt x="54" y="343" on="1"/>
        <pt x="202" y="522" on="1"/>
        <pt x="246" y="522" on="1"/>
        <pt x="394" y="343" on="1"/>
        <pt x="350" y="305" on="1"/>
        <pt x="256" y="414" on="1"/>
        <pt x="256" y="162" on="1"/>
        <pt x="350" y="271" on="1"/>
      </contour>
    </TTGlyph>
    <TTGlyph name="asciicircum" xMin="55" yMin="184" xMax="393" yMax="566">
      <contour>
        <pt x="334" y="184" on="1"/>
        <pt x="224" y="502" on="1"/>
        <pt x="114" y="184" on="1"/>
        <pt x="55" y="206" on="1"/>
        <pt x="184" y="566" on="1"/>
        <pt x="265" y="566" on="1"/>
        <pt x="393" y="206" on="1"/>
      </contour>
    </TTGlyph>
    <TTGlyph name="asciitilde" xMin="63" yMin="192" xMax="385" yMax="384">
      <contour>
        <pt x="311" y="248" on="0"/>
        <pt x="325" y="301" on="0"/>
        <pt x="330" y="369" on="1"/>
        <pt x="385" y="367" on="1"/>
        <pt x="380" y="299" on="0"/>
        <pt x="367" y="231" on="0"/>
        <pt x="330" y="192" on="0"/>
        <pt x="292" y="192" on="1"/>
        <pt x="251" y="192" on="0"/>
        <pt x="208" y="241" on="0"/>
        <pt x="188" y="285" on="1"/>
        <pt x="177" y="309" on="0"/>
        <pt x="164" y="328" on="0"/>
        <pt x="155" y="328" on="1"/>
        <pt x="137" y="328" on="0"/>
        <pt x="123" y="275" on="0"/>
        <pt x="118" y="207" on="1"/>
        <pt x="63" y="209" on="1"/>
        <pt x="68" y="277" on="0"/>
        <pt x="81" y="345" on="0"/>
        <pt x="118" y="384" on="0"/>
        <pt x="156" y="384" on="1"/>
        <pt x="198" y="384" on="0"/>
        <pt x="241" y="335" on="0"/>
        <pt x="260" y="292" on="1"/>
        <pt x="271" y="269" on="0"/>
        <pt x="285" y="248" on="0"/>
        <pt x="294" y="248" on="1"/>
      </contour>
    </TTGlyph>
    <TTGlyph name="asterisk" xMin="42" yMin="76" xMax="406" yMax="500">
      <contour>
        <pt x="265" y="288" on="1"/>
        <pt x="406" y="176" on="1"/>
        <pt x="366" y="128" on="1"/>
        <pt x="251" y="231" on="1"/>
        <pt x="255" y="76" on="1"/>
        <pt x="193" y="76" on="1"/>
        <pt x="197" y="231" on="1"/>
        <pt x="82" y="128" on="1"/>
        <pt x="42" y="176" on="1"/>
        <pt x="183" y="288" on="1"/>
        <pt x="42" y="400" on="1"/>
        <pt x="82" y="448" on="1"/>
        <pt x="197" y="345" on="1"/>
        <pt x="193" y="500" on="1"/>
        <pt x="255" y="500" on="1"/>
        <pt x="251" y="345" on="1"/>
        <pt x="366" y="448" on="1"/>
        <pt x="406" y="400" on="1"/>
      </contour>
    </TTGlyph>
    <TTGlyph name="at" xMin="53" yMin="-128" xMax="383" yMax="586">
      <contour>
        <pt x="172" y="290" on="0"/>
        <pt x="243" y="375" on="0"/>
        <pt x="321" y="387" on="1"/>
        <pt x="320" y="460" on="0"/>
        <pt x="280" y="526" on="0"/>
        <pt x="231" y="526" on="1"/>
        <pt x="188" y="526" on="0"/>
        <pt x="137" y="466" on="0"/>
        <pt x="115" y="334" on="0"/>
        <pt x="115" y="223" on="1"/>
        <pt x="115" y="64" on="0"/>
        <pt x="177" y="-68" on="0"/>
        <pt x="239" y="-68" on="1"/>
        <pt x="280" y="-68" on="0"/>
        <pt x="324" y="-52" on="1"/>
        <pt x="340" y="-109" on="1"/>
        <pt x="291" y="-128" on="0"/>
        <pt x="244" y="-128" on="1"/>
        <pt x="143" y="-128" on="0"/>
        <pt x="53" y="39" on="0"/>
        <pt x="53" y="223" on="1"/>
        <pt x="53" y="410" on="0"/>
        <pt x="136" y="586" on="0"/>
        <pt x="233" y="586" on="1"/>
        <pt x="308" y="586" on="0"/>
        <pt x="383" y="478" on="0"/>
        <pt x="383" y="383" on="1"/>
        <pt x="383" y="76" on="1"/>
        <pt x="352" y="66" on="0"/>
        <pt x="304" y="66" on="1"/>
        <pt x="241" y="66" on="0"/>
        <pt x="172" y="146" on="0"/>
        <pt x="172" y="219" on="1"/>
      </contour>
      <contour>
        <pt x="271" y="320" on="0"/>
        <pt x="236" y="270" on="0"/>
        <pt x="236" y="220" on="1"/>
        <pt x="236" y="175" on="0"/>
        <pt x="266" y="127" on="0"/>
        <pt x="304" y="127" on="1"/>
        <pt x="315" y="127" on="0"/>
        <pt x="321" y="128" on="1"/>
        <pt x="321" y="328" on="1"/>
      </contour>
    </TTGlyph>
    <TTGlyph name="atilde" xMin="50" yMin="-4" xMax="384" yMax="640">
      <component glyphName="a" x="0" y="0" flags="0x0"/>
      <component glyphName="tildecomb" x="448" y="0" flags="0x0"/>
    </TTGlyph>
    <TTGlyph name="b" xMin="61" yMin="-8" xMax="395" yMax="640">
      <contour>
        <pt x="314" y="456" on="0"/>
        <pt x="395" y="325" on="0"/>
        <pt x="395" y="224" on="1"/>
        <pt x="395" y="124" on="0"/>
        <pt x="314" y="-8" on="0"/>
        <pt x="228" y="-8" on="1"/>
        <pt x="159" y="-8" on="0"/>
        <pt x="120" y="39" on="1"/>
        <pt x="115" y="0" on="1"/>
        <pt x="61" y="0" on="1"/>
        <pt x="62" y="64" on="1"/>
        <pt x="62" y="640" on="1"/>
        <pt x="124" y="640" on="1"/>
        <pt x="124" y="415" on="1"/>
        <pt x="163" y="456" on="0"/>
        <pt x="227" y="456" on="1"/>
      </contour>
      <contour>
        <pt x="278" y="47" on="0"/>
        <pt x="327" y="130" on="0"/>
        <pt x="327" y="224" on="1"/>
        <pt x="327" y="319" on="0"/>
        <pt x="279" y="401" on="0"/>
        <pt x="223" y="401" on="1"/>
        <pt x="156" y="401" on="0"/>
        <pt x="124" y="353" on="1"/>
        <pt x="124" y="95" on="1"/>
        <pt x="158" y="47" on="0"/>
        <pt x="221" y="47" on="1"/>
      </contour>
    </TTGlyph>
    <TTGlyph name="backslash" xMin="124" yMin="-69" xMax="324" yMax="710">
      <contour>
        <pt x="263" y="-69" on="1"/>
        <pt x="124" y="698" on="1"/>
        <pt x="185" y="710" on="1"/>
        <pt x="324" y="-57" on="1"/>
      </contour>
    </TTGlyph>
    <TTGlyph name="bar" xMin="195" yMin="-192" xMax="253" yMax="704">
      <contour>
        <pt x="195" y="-192" on="1"/>
        <pt x="195" y="704" on="1"/>
        <pt x="253" y="704" on="1"/>
        <pt x="253" y="-192" on="1"/>
      </contour>
    </TTGlyph>
    <TTGlyph name="beta" xMin="64" yMin="-192" xMax="384" yMax="640">
      <contour>
        <pt x="128" y="640" on="1"/>
        <pt x="320" y="640" on="1"/>
        <pt x="320" y="576" on="1"/>
        <pt x="128" y="576" on="1"/>
      </contour>
      <contour>
        <pt x="192" y="128" on="1"/>
        <pt x="192" y="64" on="1"/>
        <pt x="128" y="64" on="1"/>
        <pt x="128" y="-192" on="1"/>
        <pt x="64" y="-192" on="1"/>
        <pt x="64" y="576" on="1"/>
        <pt x="128" y="576" on="1"/>
        <pt x="128" y="128" on="1"/>
      </contour>
      <contour>
        <pt x="384" y="576" on="1"/>
        <pt x="384" y="384" on="1"/>
        <pt x="320" y="384" on="1"/>
        <pt x="320" y="576" on="1"/>
      </contour>
      <contour>
        <pt x="320" y="384" on="1"/>
        <pt x="320" y="320" on="1"/>
        <pt x="192" y="320" on="1"/>
        <pt x="192" y="384" on="1"/>
      </contour>
      <contour>
        <pt x="384" y="320" on="1"/>
        <pt x="384" y="64" on="1"/>
        <pt x="320" y="64" on="1"/>
        <pt x="320" y="320" on="1"/>
      </contour>
      <contour>
        <pt x="320" y="64" on="1"/>
        <pt x="320" y="0" on="1"/>
        <pt x="192" y="0" on="1"/>
        <pt x="192" y="64" on="1"/>
      </contour>
    </TTGlyph>
    <TTGlyph name="block" xMin="0" yMin="-192" xMax="448" yMax="832">
      <contour>
        <pt x="0" y="-192" on="1"/>
        <pt x="0" y="832" on="1"/>
        <pt x="448" y="832" on="1"/>
        <pt x="448" y="-192" on="1"/>
      </contour>
    </TTGlyph>
    <TTGlyph name="braceleft" xMin="87" yMin="-64" xMax="334" yMax="704">
      <contour>
        <pt x="213" y="46" on="0"/>
        <pt x="236" y="16" on="0"/>
        <pt x="287" y="-2" on="0"/>
        <pt x="334" y="-11" on="1"/>
        <pt x="324" y="-64" on="1"/>
        <pt x="240" y="-53" on="0"/>
        <pt x="155" y="6" on="0"/>
        <pt x="155" y="75" on="1"/>
        <pt x="155" y="93" on="0"/>
        <pt x="161" y="129" on="1"/>
        <pt x="167" y="169" on="0"/>
        <pt x="167" y="194" on="1"/>
        <pt x="167" y="230" on="0"/>
        <pt x="128" y="271" on="0"/>
        <pt x="87" y="278" on="1"/>
        <pt x="87" y="362" on="1"/>
        <pt x="128" y="369" on="0"/>
        <pt x="167" y="410" on="0"/>
        <pt x="167" y="446" on="1"/>
        <pt x="167" y="471" on="0"/>
        <pt x="161" y="511" on="1"/>
        <pt x="155" y="547" on="0"/>
        <pt x="155" y="565" on="1"/>
        <pt x="155" y="634" on="0"/>
        <pt x="240" y="693" on="0"/>
        <pt x="324" y="704" on="1"/>
        <pt x="334" y="651" on="1"/>
        <pt x="287" y="642" on="0"/>
        <pt x="236" y="624" on="0"/>
        <pt x="213" y="594" on="0"/>
        <pt x="213" y="569" on="1"/>
        <pt x="213" y="557" on="0"/>
        <pt x="217" y="526" on="0"/>
        <pt x="218" y="519" on="1"/>
        <pt x="225" y="482" on="0"/>
        <pt x="225" y="451" on="1"/>
        <pt x="225" y="392" on="0"/>
        <pt x="177" y="335" on="0"/>
        <pt x="127" y="320" on="1"/>
        <pt x="177" y="305" on="0"/>
        <pt x="225" y="248" on="0"/>
        <pt x="225" y="189" on="1"/>
        <pt x="225" y="158" on="0"/>
        <pt x="218" y="121" on="1"/>
        <pt x="217" y="114" on="0"/>
        <pt x="213" y="83" on="0"/>
        <pt x="213" y="71" on="1"/>
      </contour>
    </TTGlyph>
    <TTGlyph name="braceright" xMin="115" yMin="-64" xMax="362" yMax="704">
      <contour>
        <pt x="282" y="410" on="0"/>
        <pt x="321" y="369" on="0"/>
        <pt x="362" y="362" on="1"/>
        <pt x="362" y="278" on="1"/>
        <pt x="321" y="271" on="0"/>
        <pt x="282" y="230" on="0"/>
        <pt x="282" y="194" on="1"/>
        <pt x="282" y="169" on="0"/>
        <pt x="288" y="129" on="1"/>
        <pt x="294" y="93" on="0"/>
        <pt x="294" y="75" on="1"/>
        <pt x="294" y="6" on="0"/>
        <pt x="208" y="-53" on="0"/>
        <pt x="124" y="-64" on="1"/>
        <pt x="115" y="-11" on="1"/>
        <pt x="162" y="-2" on="0"/>
        <pt x="212" y="16" on="0"/>
        <pt x="235" y="46" on="0"/>
        <pt x="235" y="71" on="1"/>
        <pt x="235" y="93" on="0"/>
        <pt x="230" y="121" on="1"/>
        <pt x="224" y="163" on="0"/>
        <pt x="224" y="189" on="1"/>
        <pt x="224" y="248" on="0"/>
        <pt x="272" y="305" on="0"/>
        <pt x="322" y="320" on="1"/>
        <pt x="272" y="335" on="0"/>
        <pt x="224" y="392" on="0"/>
        <pt x="224" y="451" on="1"/>
        <pt x="224" y="477" on="0"/>
        <pt x="230" y="519" on="1"/>
        <pt x="235" y="547" on="0"/>
        <pt x="235" y="569" on="1"/>
        <pt x="235" y="594" on="0"/>
        <pt x="212" y="624" on="0"/>
        <pt x="162" y="642" on="0"/>
        <pt x="115" y="651" on="1"/>
        <pt x="124" y="704" on="1"/>
        <pt x="208" y="693" on="0"/>
        <pt x="294" y="634" on="0"/>
        <pt x="294" y="565" on="1"/>
        <pt x="294" y="547" on="0"/>
        <pt x="288" y="511" on="1"/>
        <pt x="282" y="471" on="0"/>
        <pt x="282" y="446" on="1"/>
      </contour>
    </TTGlyph>
    <TTGlyph name="bracketleft" xMin="149" yMin="-64" xMax="335" yMax="704">
      <contour>
        <pt x="211" y="644" on="1"/>
        <pt x="211" y="-4" on="1"/>
        <pt x="335" y="-4" on="1"/>
        <pt x="335" y="-64" on="1"/>
        <pt x="149" y="-64" on="1"/>
        <pt x="149" y="704" on="1"/>
        <pt x="335" y="704" on="1"/>
        <pt x="335" y="644" on="1"/>
      </contour>
    </TTGlyph>
    <TTGlyph name="bracketright" xMin="113" yMin="-64" xMax="299" yMax="704">
      <contour>
        <pt x="113" y="-64" on="1"/>
        <pt x="113" y="-4" on="1"/>
        <pt x="237" y="-4" on="1"/>
        <pt x="237" y="644" on="1"/>
        <pt x="113" y="644" on="1"/>
        <pt x="113" y="704" on="1"/>
        <pt x="299" y="704" on="1"/>
        <pt x="299" y="-64" on="1"/>
      </contour>
    </TTGlyph>
    <TTGlyph name="breve" xMin="64" yMin="512" xMax="384" yMax="640">
      <component glyphName="uni0306" x="448" y="0" flags="0x0"/>
    </TTGlyph>
    <TTGlyph name="brokenbar" xMin="195" yMin="-192" xMax="253" yMax="704">
      <contour>
        <pt x="195" y="320" on="1"/>
        <pt x="195" y="704" on="1"/>
        <pt x="253" y="704" on="1"/>
        <pt x="253" y="320" on="1"/>
      </contour>
      <contour>
        <pt x="195" y="-192" on="1"/>
        <pt x="195" y="192" on="1"/>
        <pt x="253" y="192" on="1"/>
        <pt x="253" y="-192" on="1"/>
      </contour>
    </TTGlyph>
    <TTGlyph name="bullet" xMin="122" yMin="120" xMax="326" yMax="328">
      <contour>
        <pt x="267" y="328" on="0"/>
        <pt x="326" y="268" on="0"/>
        <pt x="326" y="224" on="1"/>
        <pt x="326" y="180" on="0"/>
        <pt x="267" y="120" on="0"/>
        <pt x="224" y="120" on="1"/>
        <pt x="181" y="120" on="0"/>
        <pt x="122" y="180" on="0"/>
        <pt x="122" y="224" on="1"/>
        <pt x="122" y="268" on="0"/>
        <pt x="181" y="328" on="0"/>
        <pt x="224" y="328" on="1"/>
      </contour>
    </TTGlyph>
    <TTGlyph name="c" xMin="50" yMin="-7" xMax="354" yMax="455">
      <contour>
        <pt x="290" y="400" on="0"/>
        <pt x="238" y="400" on="1"/>
        <pt x="170" y="400" on="0"/>
        <pt x="116" y="319" on="0"/>
        <pt x="116" y="224" on="1"/>
        <pt x="116" y="130" on="0"/>
        <pt x="172" y="48" on="0"/>
        <pt x="239" y="48" on="1"/>
        <pt x="288" y="48" on="0"/>
        <pt x="343" y="64" on="1"/>
        <pt x="354" y="12" on="1"/>
        <pt x="296" y="-7" on="0"/>
        <pt x="234" y="-7" on="1"/>
        <pt x="136" y="-7" on="0"/>
        <pt x="50" y="118" on="0"/>
        <pt x="50" y="224" on="1"/>
        <pt x="50" y="330" on="0"/>
        <pt x="136" y="455" on="0"/>
        <pt x="234" y="455" on="1"/>
        <pt x="301" y="455" on="0"/>
        <pt x="354" y="436" on="1"/>
        <pt x="343" y="385" on="1"/>
      </contour>
    </TTGlyph>
    <TTGlyph name="cacute" xMin="50" yMin="-7" xMax="354" yMax="667">
      <component glyphName="c" x="0" y="0" flags="0x0"/>
      <component glyphName="acutecomb" x="464" y="0" flags="0x0"/>
    </TTGlyph>
    <TTGlyph name="caron" xMin="114" yMin="504" xMax="334" yMax="643">
      <component glyphName="uni030C" x="448" y="0" flags="0x0"/>
    </TTGlyph>
    <TTGlyph name="ccaron" xMin="50" yMin="-7" xMax="354" yMax="643">
      <component glyphName="c" x="0" y="0" flags="0x0"/>
      <component glyphName="uni030C" x="464" y="0" flags="0x0"/>
    </TTGlyph>
    <TTGlyph name="ccedilla" xMin="50" yMin="-192" xMax="354" yMax="455">
      <contour>
        <pt x="354" y="12" on="1"/>
        <pt x="330" y="4" on="0"/>
        <pt x="300" y="-1" on="1"/>
        <pt x="298" y="-91" on="0"/>
        <pt x="216" y="-192" on="0"/>
        <pt x="106" y="-192" on="1"/>
        <pt x="104" y="-128" on="1"/>
        <pt x="152" y="-126" on="0"/>
        <pt x="206" y="-104" on="0"/>
        <pt x="230" y="-54" on="0"/>
        <pt x="232" y="-7" on="1"/>
        <pt x="135" y="-6" on="0"/>
        <pt x="50" y="119" on="0"/>
        <pt x="50" y="224" on="1"/>
        <pt x="50" y="330" on="0"/>
        <pt x="136" y="455" on="0"/>
        <pt x="234" y="455" on="1"/>
        <pt x="301" y="455" on="0"/>
        <pt x="354" y="436" on="1"/>
        <pt x="343" y="385" on="1"/>
        <pt x="290" y="400" on="0"/>
        <pt x="238" y="400" on="1"/>
        <pt x="170" y="400" on="0"/>
        <pt x="116" y="319" on="0"/>
        <pt x="116" y="224" on="1"/>
        <pt x="116" y="130" on="0"/>
        <pt x="172" y="48" on="0"/>
        <pt x="239" y="48" on="1"/>
        <pt x="288" y="48" on="0"/>
        <pt x="343" y="64" on="1"/>
      </contour>
    </TTGlyph>
    <TTGlyph name="ccircumflex" xMin="50" yMin="-7" xMax="354" yMax="649">
      <component glyphName="c" x="0" y="0" flags="0x0"/>
      <component glyphName="uni0302" x="464" y="0" flags="0x0"/>
    </TTGlyph>
    <TTGlyph name="cdotaccent" xMin="50" yMin="-7" xMax="354" yMax="648">
      <component glyphName="c" x="0" y="0" flags="0x0"/>
      <component glyphName="uni0307" x="464" y="0" flags="0x0"/>
    </TTGlyph>
    <TTGlyph name="cedilla" xMin="126" yMin="-192" xMax="322" yMax="10">
      <component glyphName="uni0327" x="448" y="0" flags="0x0"/>
    </TTGlyph>
    <TTGlyph name="cent" xMin="64" yMin="0" xMax="384" yMax="640">
      <contour>
        <pt x="384" y="192" on="1"/>
        <pt x="384" y="128" on="1"/>
        <pt x="256" y="128" on="1"/>
        <pt x="256" y="0" on="1"/>
        <pt x="192" y="0" on="1"/>
        <pt x="192" y="128" on="1"/>
        <pt x="128" y="128" on="1"/>
        <pt x="128" y="192" on="1"/>
        <pt x="192" y="192" on="1"/>
        <pt x="192" y="448" on="1"/>
        <pt x="128" y="448" on="1"/>
        <pt x="128" y="512" on="1"/>
        <pt x="192" y="512" on="1"/>
        <pt x="192" y="640" on="1"/>
        <pt x="256" y="640" on="1"/>
        <pt x="256" y="512" on="1"/>
        <pt x="384" y="512" on="1"/>
        <pt x="384" y="448" on="1"/>
        <pt x="256" y="448" on="1"/>
        <pt x="256" y="192" on="1"/>
      </contour>
      <contour>
        <pt x="64" y="192" on="1"/>
        <pt x="64" y="448" on="1"/>
        <pt x="128" y="448" on="1"/>
        <pt x="128" y="192" on="1"/>
      </contour>
    </TTGlyph>
    <TTGlyph name="chi" xMin="30" yMin="-199" xMax="393" yMax="458">
      <contour>
        <pt x="321" y="-199" on="1"/>
        <pt x="311" y="-87" on="0"/>
        <pt x="273" y="39" on="0"/>
        <pt x="232" y="89" on="1"/>
        <pt x="97" y="-199" on="1"/>
        <pt x="30" y="-177" on="1"/>
        <pt x="178" y="139" on="1"/>
        <pt x="123" y="211" on="0"/>
        <pt x="68" y="343" on="0"/>
        <pt x="50" y="438" on="1"/>
        <pt x="122" y="451" on="1"/>
        <pt x="138" y="365" on="0"/>
        <pt x="176" y="259" on="0"/>
        <pt x="211" y="209" on="1"/>
        <pt x="328" y="458" on="1"/>
        <pt x="392" y="429" on="1"/>
        <pt x="264" y="156" on="1"/>
        <pt x="325" y="88" on="0"/>
        <pt x="381" y="-66" on="0"/>
        <pt x="393" y="-192" on="1"/>
      </contour>
    </TTGlyph>
    <TTGlyph name="circle" xMin="54" yMin="56" xMax="394" yMax="392">
      <contour>
        <pt x="271" y="392" on="0"/>
        <pt x="349" y="348" on="0"/>
        <pt x="394" y="271" on="0"/>
        <pt x="394" y="224" on="1"/>
        <pt x="394" y="177" on="0"/>
        <pt x="349" y="100" on="0"/>
        <pt x="271" y="56" on="0"/>
        <pt x="224" y="56" on="1"/>
        <pt x="177" y="56" on="0"/>
        <pt x="99" y="100" on="0"/>
        <pt x="54" y="177" on="0"/>
        <pt x="54" y="224" on="1"/>
        <pt x="54" y="271" on="0"/>
        <pt x="99" y="348" on="0"/>
        <pt x="177" y="392" on="0"/>
        <pt x="224" y="392" on="1"/>
      </contour>
      <contour>
        <pt x="267" y="120" on="0"/>
        <pt x="324" y="180" on="0"/>
        <pt x="324" y="224" on="1"/>
        <pt x="324" y="268" on="0"/>
        <pt x="267" y="328" on="0"/>
        <pt x="224" y="328" on="1"/>
        <pt x="181" y="328" on="0"/>
        <pt x="124" y="268" on="0"/>
        <pt x="124" y="224" on="1"/>
        <pt x="124" y="180" on="0"/>
        <pt x="181" y="120" on="0"/>
        <pt x="224" y="120" on="1"/>
      </contour>
    </TTGlyph>
    <TTGlyph name="circumflex" xMin="124" yMin="512" xMax="324" yMax="649">
      <component glyphName="uni0302" x="448" y="0" flags="0x0"/>
    </TTGlyph>
    <TTGlyph name="club" xMin="64" yMin="64" xMax="384" yMax="512">
      <contour>
        <pt x="384" y="384" on="1"/>
        <pt x="384" y="192" on="1"/>
        <pt x="320" y="192" on="1"/>
        <pt x="320" y="256" on="1"/>
        <pt x="256" y="256" on="1"/>
        <pt x="256" y="128" on="1"/>
        <pt x="384" y="128" on="1"/>
        <pt x="384" y="64" on="1"/>
        <pt x="64" y="64" on="1"/>
        <pt x="64" y="128" on="1"/>
        <pt x="192" y="128" on="1"/>
        <pt x="192" y="256" on="1"/>
        <pt x="128" y="256" on="1"/>
        <pt x="128" y="192" on="1"/>
        <pt x="64" y="192" on="1"/>
        <pt x="64" y="384" on="1"/>
        <pt x="128" y="384" on="1"/>
        <pt x="128" y="320" on="1"/>
        <pt x="192" y="320" on="1"/>
        <pt x="192" y="448" on="1"/>
        <pt x="128" y="448" on="1"/>
        <pt x="128" y="512" on="1"/>
        <pt x="320" y="512" on="1"/>
        <pt x="320" y="448" on="1"/>
        <pt x="256" y="448" on="1"/>
        <pt x="256" y="320" on="1"/>
        <pt x="320" y="320" on="1"/>
        <pt x="320" y="384" on="1"/>
      </contour>
    </TTGlyph>
    <TTGlyph name="colon" xMin="133" yMin="-10" xMax="251" yMax="458">
      <contour>
        <pt x="217" y="458" on="0"/>
        <pt x="251" y="426" on="0"/>
        <pt x="251" y="399" on="1"/>
        <pt x="251" y="371" on="0"/>
        <pt x="217" y="340" on="0"/>
        <pt x="192" y="340" on="1"/>
        <pt x="167" y="340" on="0"/>
        <pt x="133" y="371" on="0"/>
        <pt x="133" y="399" on="1"/>
        <pt x="133" y="426" on="0"/>
        <pt x="167" y="458" on="0"/>
        <pt x="192" y="458" on="1"/>
      </contour>
      <contour>
        <pt x="217" y="108" on="0"/>
        <pt x="251" y="76" on="0"/>
        <pt x="251" y="49" on="1"/>
        <pt x="251" y="21" on="0"/>
        <pt x="217" y="-10" on="0"/>
        <pt x="192" y="-10" on="1"/>
        <pt x="167" y="-10" on="0"/>
        <pt x="133" y="21" on="0"/>
        <pt x="133" y="49" on="1"/>
        <pt x="133" y="76" on="0"/>
        <pt x="167" y="108" on="0"/>
        <pt x="192" y="108" on="1"/>
      </contour>
    </TTGlyph>
    <TTGlyph name="comma" xMin="133" yMin="-129" xMax="254" yMax="109">
      <contour>
        <pt x="219" y="109" on="0"/>
        <pt x="254" y="69" on="0"/>
        <pt x="254" y="27" on="1"/>
        <pt x="254" y="-21" on="0"/>
        <pt x="206" y="-100" on="0"/>
        <pt x="167" y="-129" on="1"/>
        <pt x="135" y="-86" on="1"/>
        <pt x="160" y="-66" on="0"/>
        <pt x="189" y="-33" on="0"/>
        <pt x="192" y="-10" on="1"/>
        <pt x="164" y="-9" on="0"/>
        <pt x="133" y="24" on="0"/>
        <pt x="133" y="50" on="1"/>
        <pt x="133" y="77" on="0"/>
        <pt x="166" y="109" on="0"/>
        <pt x="190" y="109" on="1"/>
      </contour>
    </TTGlyph>
    <TTGlyph name="copyright" xMin="8" yMin="11" xMax="440" yMax="501">
      <contour>
        <pt x="280" y="501" on="0"/>
        <pt x="379" y="446" on="0"/>
        <pt x="440" y="335" on="0"/>
        <pt x="440" y="256" on="1"/>
        <pt x="440" y="178" on="0"/>
        <pt x="379" y="67" on="0"/>
        <pt x="280" y="11" on="0"/>
        <pt x="224" y="11" on="1"/>
        <pt x="168" y="11" on="0"/>
        <pt x="69" y="67" on="0"/>
        <pt x="8" y="178" on="0"/>
        <pt x="8" y="256" on="1"/>
        <pt x="8" y="335" on="0"/>
        <pt x="69" y="446" on="0"/>
        <pt x="168" y="501" on="0"/>
        <pt x="224" y="501" on="1"/>
      </contour>
      <contour>
        <pt x="308" y="59" on="0"/>
        <pt x="388" y="172" on="0"/>
        <pt x="388" y="256" on="1"/>
        <pt x="388" y="339" on="0"/>
        <pt x="308" y="453" on="0"/>
        <pt x="224" y="453" on="1"/>
        <pt x="140" y="453" on="0"/>
        <pt x="60" y="339" on="0"/>
        <pt x="60" y="256" on="1"/>
        <pt x="60" y="172" on="0"/>
        <pt x="140" y="59" on="0"/>
        <pt x="224" y="59" on="1"/>
      </contour>
      <contour>
        <pt x="270" y="348" on="0"/>
        <pt x="237" y="348" on="1"/>
        <pt x="199" y="348" on="0"/>
        <pt x="168" y="310" on="0"/>
        <pt x="168" y="259" on="1"/>
        <pt x="168" y="208" on="0"/>
        <pt x="199" y="170" on="0"/>
        <pt x="237" y="170" on="1"/>
        <pt x="265" y="170" on="0"/>
        <pt x="301" y="181" on="1"/>
        <pt x="314" y="136" on="1"/>
        <pt x="271" y="120" on="0"/>
        <pt x="234" y="120" on="1"/>
        <pt x="171" y="120" on="0"/>
        <pt x="112" y="196" on="0"/>
        <pt x="112" y="258" on="1"/>
        <pt x="112" y="321" on="0"/>
        <pt x="171" y="397" on="0"/>
        <pt x="234" y="397" on="1"/>
        <pt x="276" y="397" on="0"/>
        <pt x="314" y="381" on="1"/>
        <pt x="298" y="336" on="1"/>
      </contour>
    </TTGlyph>
    <TTGlyph name="currency" xMin="43" yMin="57" xMax="405" yMax="519">
      <contour>
        <pt x="402" y="252" on="0"/>
        <pt x="377" y="189" on="0"/>
        <pt x="353" y="165" on="1"/>
        <pt x="405" y="95" on="1"/>
        <pt x="353" y="57" on="1"/>
        <pt x="301" y="128" on="1"/>
        <pt x="264" y="112" on="0"/>
        <pt x="224" y="112" on="1"/>
        <pt x="184" y="112" on="0"/>
        <pt x="147" y="128" on="1"/>
        <pt x="95" y="57" on="1"/>
        <pt x="43" y="95" on="1"/>
        <pt x="95" y="165" on="1"/>
        <pt x="71" y="189" on="0"/>
        <pt x="46" y="252" on="0"/>
        <pt x="46" y="288" on="1"/>
        <pt x="46" y="324" on="0"/>
        <pt x="72" y="387" on="0"/>
        <pt x="95" y="410" on="1"/>
        <pt x="43" y="481" on="1"/>
        <pt x="95" y="519" on="1"/>
        <pt x="147" y="447" on="1"/>
        <pt x="183" y="464" on="0"/>
        <pt x="224" y="464" on="1"/>
        <pt x="265" y="464" on="0"/>
        <pt x="301" y="447" on="1"/>
        <pt x="353" y="519" on="1"/>
        <pt x="405" y="481" on="1"/>
        <pt x="353" y="410" on="1"/>
        <pt x="376" y="387" on="0"/>
        <pt x="402" y="324" on="0"/>
        <pt x="402" y="288" on="1"/>
      </contour>
      <contour>
        <pt x="114" y="241" on="0"/>
        <pt x="177" y="176" on="0"/>
        <pt x="224" y="176" on="1"/>
        <pt x="271" y="176" on="0"/>
        <pt x="334" y="241" on="0"/>
        <pt x="334" y="288" on="1"/>
        <pt x="334" y="335" on="0"/>
        <pt x="271" y="400" on="0"/>
        <pt x="224" y="400" on="1"/>
        <pt x="177" y="400" on="0"/>
        <pt x="114" y="335" on="0"/>
        <pt x="114" y="288" on="1"/>
      </contour>
    </TTGlyph>
    <TTGlyph name="d" xMin="54" yMin="-8" xMax="388" yMax="640">
      <contour>
        <pt x="333" y="0" on="1"/>
        <pt x="328" y="38" on="1"/>
        <pt x="288" y="-8" on="0"/>
        <pt x="222" y="-8" on="1"/>
        <pt x="135" y="-8" on="0"/>
        <pt x="54" y="123" on="0"/>
        <pt x="54" y="224" on="1"/>
        <pt x="54" y="325" on="0"/>
        <pt x="135" y="456" on="0"/>
        <pt x="223" y="456" on="1"/>
        <pt x="286" y="456" on="0"/>
        <pt x="324" y="416" on="1"/>
        <pt x="324" y="640" on="1"/>
        <pt x="386" y="640" on="1"/>
        <pt x="386" y="64" on="1"/>
        <pt x="388" y="0" on="1"/>
      </contour>
      <contour>
        <pt x="290" y="47" on="0"/>
        <pt x="324" y="93" on="1"/>
        <pt x="324" y="354" on="1"/>
        <pt x="290" y="401" on="0"/>
        <pt x="227" y="401" on="1"/>
        <pt x="170" y="401" on="0"/>
        <pt x="122" y="319" on="0"/>
        <pt x="122" y="224" on="1"/>
        <pt x="122" y="130" on="0"/>
        <pt x="170" y="47" on="0"/>
        <pt x="227" y="47" on="1"/>
      </contour>
    </TTGlyph>
    <TTGlyph name="dagger" xMin="67" yMin="0" xMax="382" yMax="640">
      <contour>
        <pt x="253" y="454" on="1"/>
        <pt x="382" y="454" on="1"/>
        <pt x="382" y="400" on="1"/>
        <pt x="253" y="400" on="1"/>
        <pt x="253" y="0" on="1"/>
        <pt x="195" y="0" on="1"/>
        <pt x="195" y="400" on="1"/>
        <pt x="67" y="400" on="1"/>
        <pt x="67" y="454" on="1"/>
        <pt x="195" y="454" on="1"/>
        <pt x="195" y="640" on="1"/>
        <pt x="253" y="640" on="1"/>
      </contour>
    </TTGlyph>
    <TTGlyph name="daggerdbl" xMin="64" yMin="0" xMax="384" yMax="640">
      <contour>
        <pt x="258" y="458" on="1"/>
        <pt x="384" y="458" on="1"/>
        <pt x="384" y="394" on="1"/>
        <pt x="258" y="394" on="1"/>
        <pt x="258" y="246" on="1"/>
        <pt x="384" y="246" on="1"/>
        <pt x="384" y="182" on="1"/>
        <pt x="258" y="182" on="1"/>
        <pt x="258" y="0" on="1"/>
        <pt x="190" y="0" on="1"/>
        <pt x="190" y="182" on="1"/>
        <pt x="64" y="182" on="1"/>
        <pt x="64" y="246" on="1"/>
        <pt x="190" y="246" on="1"/>
        <pt x="190" y="394" on="1"/>
        <pt x="64" y="394" on="1"/>
        <pt x="64" y="458" on="1"/>
        <pt x="190" y="458" on="1"/>
        <pt x="190" y="640" on="1"/>
        <pt x="258" y="640" on="1"/>
      </contour>
    </TTGlyph>
    <TTGlyph name="dcaron" xMin="17" yMin="-8" xMax="480" yMax="640">
      <component glyphName="d" x="-38" y="0" flags="0x0"/>
      <component glyphName="uni0315" x="492" y="0" flags="0x0"/>
    </TTGlyph>
    <TTGlyph name="dcroat" xMin="54" yMin="-8" xMax="438" yMax="640">
      <contour>
        <pt x="386" y="504" on="1"/>
        <pt x="386" y="64" on="1"/>
        <pt x="388" y="0" on="1"/>
        <pt x="333" y="0" on="1"/>
        <pt x="328" y="38" on="1"/>
        <pt x="288" y="-8" on="0"/>
        <pt x="222" y="-8" on="1"/>
        <pt x="135" y="-8" on="0"/>
        <pt x="54" y="123" on="0"/>
        <pt x="54" y="224" on="1"/>
        <pt x="54" y="325" on="0"/>
        <pt x="135" y="456" on="0"/>
        <pt x="223" y="456" on="1"/>
        <pt x="286" y="456" on="0"/>
        <pt x="324" y="416" on="1"/>
        <pt x="324" y="504" on="1"/>
        <pt x="182" y="504" on="1"/>
        <pt x="182" y="564" on="1"/>
        <pt x="324" y="564" on="1"/>
        <pt x="324" y="640" on="1"/>
        <pt x="386" y="640" on="1"/>
        <pt x="386" y="564" on="1"/>
        <pt x="438" y="564" on="1"/>
        <pt x="438" y="504" on="1"/>
      </contour>
      <contour>
        <pt x="290" y="47" on="0"/>
        <pt x="324" y="93" on="1"/>
        <pt x="324" y="354" on="1"/>
        <pt x="290" y="401" on="0"/>
        <pt x="227" y="401" on="1"/>
        <pt x="170" y="401" on="0"/>
        <pt x="122" y="319" on="0"/>
        <pt x="122" y="224" on="1"/>
        <pt x="122" y="130" on="0"/>
        <pt x="170" y="47" on="0"/>
        <pt x="227" y="47" on="1"/>
      </contour>
    </TTGlyph>
    <TTGlyph name="degree" xMin="119" yMin="377" xMax="393" yMax="647">
      <contour>
        <pt x="295" y="647" on="0"/>
        <pt x="358" y="610" on="0"/>
        <pt x="393" y="548" on="0"/>
        <pt x="393" y="512" on="1"/>
        <pt x="393" y="476" on="0"/>
        <pt x="358" y="414" on="0"/>
        <pt x="295" y="377" on="0"/>
        <pt x="256" y="377" on="1"/>
        <pt x="217" y="377" on="0"/>
        <pt x="154" y="414" on="0"/>
        <pt x="119" y="476" on="0"/>
        <pt x="119" y="512" on="1"/>
        <pt x="119" y="548" on="0"/>
        <pt x="154" y="610" on="0"/>
        <pt x="217" y="647" on="0"/>
        <pt x="256" y="647" on="1"/>
      </contour>
      <contour>
        <pt x="295" y="433" on="0"/>
        <pt x="330" y="481" on="0"/>
        <pt x="330" y="512" on="1"/>
        <pt x="330" y="542" on="0"/>
        <pt x="295" y="591" on="0"/>
        <pt x="256" y="591" on="1"/>
        <pt x="217" y="591" on="0"/>
        <pt x="182" y="542" on="0"/>
        <pt x="182" y="512" on="1"/>
        <pt x="182" y="481" on="0"/>
        <pt x="217" y="433" on="0"/>
        <pt x="256" y="433" on="1"/>
      </contour>
    </TTGlyph>
    <TTGlyph name="delta" xMin="50" yMin="-13" xMax="398" yMax="642">
      <contour>
        <pt x="317" y="386" on="0"/>
        <pt x="398" y="276" on="0"/>
        <pt x="398" y="192" on="1"/>
        <pt x="398" y="139" on="0"/>
        <pt x="362" y="46" on="0"/>
        <pt x="282" y="-13" on="0"/>
        <pt x="221" y="-13" on="1"/>
        <pt x="162" y="-13" on="0"/>
        <pt x="85" y="44" on="0"/>
        <pt x="50" y="131" on="0"/>
        <pt x="50" y="177" on="1"/>
        <pt x="50" y="247" on="0"/>
        <pt x="121" y="360" on="0"/>
        <pt x="184" y="396" on="1"/>
        <pt x="151" y="421" on="0"/>
        <pt x="117" y="478" on="0"/>
        <pt x="117" y="518" on="1"/>
        <pt x="117" y="572" on="0"/>
        <pt x="193" y="642" on="0"/>
        <pt x="278" y="642" on="1"/>
        <pt x="323" y="642" on="0"/>
        <pt x="384" y="635" on="1"/>
        <pt x="378" y="573" on="1"/>
        <pt x="315" y="578" on="0"/>
        <pt x="278" y="578" on="1"/>
        <pt x="192" y="578" on="0"/>
        <pt x="192" y="516" on="1"/>
        <pt x="192" y="492" on="0"/>
        <pt x="218" y="457" on="0"/>
        <pt x="257" y="429" on="1"/>
      </contour>
      <contour>
        <pt x="272" y="51" on="0"/>
        <pt x="324" y="122" on="0"/>
        <pt x="324" y="192" on="1"/>
        <pt x="324" y="291" on="0"/>
        <pt x="240" y="357" on="1"/>
        <pt x="175" y="320" on="0"/>
        <pt x="125" y="236" on="0"/>
        <pt x="125" y="176" on="1"/>
        <pt x="125" y="118" on="0"/>
        <pt x="175" y="51" on="0"/>
        <pt x="221" y="51" on="1"/>
      </contour>
    </TTGlyph>
    <TTGlyph name="delta.001" xMin="50" yMin="-13" xMax="398" yMax="648">
      <contour>
        <pt x="317" y="386" on="0"/>
        <pt x="398" y="276" on="0"/>
        <pt x="398" y="192" on="1"/>
        <pt x="398" y="139" on="0"/>
        <pt x="362" y="46" on="0"/>
        <pt x="282" y="-13" on="0"/>
        <pt x="221" y="-13" on="1"/>
        <pt x="162" y="-13" on="0"/>
        <pt x="85" y="44" on="0"/>
        <pt x="50" y="131" on="0"/>
        <pt x="50" y="177" on="1"/>
        <pt x="50" y="246" on="0"/>
        <pt x="123" y="357" on="0"/>
        <pt x="185" y="395" on="1"/>
        <pt x="152" y="419" on="0"/>
        <pt x="117" y="471" on="0"/>
        <pt x="117" y="504" on="1"/>
        <pt x="117" y="533" on="0"/>
        <pt x="150" y="583" on="0"/>
        <pt x="195" y="603" on="1"/>
        <pt x="257" y="632" on="0"/>
        <pt x="377" y="648" on="1"/>
        <pt x="389" y="586" on="1"/>
        <pt x="307" y="571" on="0"/>
        <pt x="224" y="549" on="0"/>
        <pt x="192" y="524" on="0"/>
        <pt x="192" y="506" on="1"/>
        <pt x="192" y="486" on="0"/>
        <pt x="216" y="458" on="0"/>
        <pt x="257" y="429" on="1"/>
      </contour>
      <contour>
        <pt x="272" y="51" on="0"/>
        <pt x="324" y="122" on="0"/>
        <pt x="324" y="192" on="1"/>
        <pt x="324" y="291" on="0"/>
        <pt x="240" y="357" on="1"/>
        <pt x="176" y="320" on="0"/>
        <pt x="125" y="238" on="0"/>
        <pt x="125" y="180" on="1"/>
        <pt x="125" y="119" on="0"/>
        <pt x="174" y="51" on="0"/>
        <pt x="221" y="51" on="1"/>
      </contour>
    </TTGlyph>
    <TTGlyph name="diamond" xMin="64" yMin="80" xMax="384" yMax="456">
      <contour>
        <pt x="202" y="456" on="1"/>
        <pt x="246" y="456" on="1"/>
        <pt x="384" y="284" on="1"/>
        <pt x="384" y="252" on="1"/>
        <pt x="246" y="80" on="1"/>
        <pt x="202" y="80" on="1"/>
        <pt x="64" y="252" on="1"/>
        <pt x="64" y="284" on="1"/>
      </contour>
    </TTGlyph>
    <TTGlyph name="dieresis" xMin="87" yMin="525" xMax="362" yMax="648">
      <component glyphName="uni0308" x="448" y="0" flags="0x0"/>
    </TTGlyph>
    <TTGlyph name="dieresistonos" xMin="58" yMin="512" xMax="390" yMax="704">
      <contour>
        <pt x="276" y="704" on="1"/>
        <pt x="246" y="512" on="1"/>
        <pt x="182" y="512" on="1"/>
        <pt x="192" y="704" on="1"/>
      </contour>
      <contour>
        <pt x="113" y="650" on="0"/>
        <pt x="134" y="618" on="0"/>
        <pt x="134" y="586" on="1"/>
        <pt x="134" y="554" on="0"/>
        <pt x="113" y="522" on="0"/>
        <pt x="96" y="522" on="1"/>
        <pt x="79" y="522" on="0"/>
        <pt x="58" y="554" on="0"/>
        <pt x="58" y="586" on="1"/>
        <pt x="58" y="618" on="0"/>
        <pt x="79" y="650" on="0"/>
        <pt x="96" y="650" on="1"/>
      </contour>
      <contour>
        <pt x="369" y="650" on="0"/>
        <pt x="390" y="618" on="0"/>
        <pt x="390" y="586" on="1"/>
        <pt x="390" y="554" on="0"/>
        <pt x="369" y="522" on="0"/>
        <pt x="352" y="522" on="1"/>
        <pt x="335" y="522" on="0"/>
        <pt x="314" y="554" on="0"/>
        <pt x="314" y="586" on="1"/>
        <pt x="314" y="618" on="0"/>
        <pt x="335" y="650" on="0"/>
        <pt x="352" y="650" on="1"/>
      </contour>
    </TTGlyph>
    <TTGlyph name="divide" xMin="24" yMin="62" xMax="424" yMax="514">
      <contour>
        <pt x="251" y="514" on="0"/>
        <pt x="288" y="480" on="0"/>
        <pt x="288" y="450" on="1"/>
        <pt x="288" y="420" on="0"/>
        <pt x="252" y="386" on="0"/>
        <pt x="224" y="386" on="1"/>
        <pt x="196" y="386" on="0"/>
        <pt x="160" y="420" on="0"/>
        <pt x="160" y="450" on="1"/>
        <pt x="160" y="480" on="0"/>
        <pt x="197" y="514" on="0"/>
        <pt x="224" y="514" on="1"/>
      </contour>
      <contour>
        <pt x="424" y="320" on="1"/>
        <pt x="424" y="256" on="1"/>
        <pt x="24" y="256" on="1"/>
        <pt x="24" y="320" on="1"/>
      </contour>
      <contour>
        <pt x="251" y="190" on="0"/>
        <pt x="288" y="156" on="0"/>
        <pt x="288" y="126" on="1"/>
        <pt x="288" y="96" on="0"/>
        <pt x="252" y="62" on="0"/>
        <pt x="224" y="62" on="1"/>
        <pt x="196" y="62" on="0"/>
        <pt x="160" y="96" on="0"/>
        <pt x="160" y="126" on="1"/>
        <pt x="160" y="156" on="0"/>
        <pt x="197" y="190" on="0"/>
        <pt x="224" y="190" on="1"/>
      </contour>
    </TTGlyph>
    <TTGlyph name="dkshade" xMin="0" yMin="-192" xMax="384" yMax="832">
      <contour>
        <pt x="320" y="768" on="1"/>
        <pt x="320" y="704" on="1"/>
        <pt x="384" y="704" on="1"/>
        <pt x="384" y="512" on="1"/>
        <pt x="320" y="512" on="1"/>
        <pt x="320" y="448" on="1"/>
        <pt x="384" y="448" on="1"/>
        <pt x="384" y="256" on="1"/>
        <pt x="320" y="256" on="1"/>
        <pt x="320" y="192" on="1"/>
        <pt x="384" y="192" on="1"/>
        <pt x="384" y="0" on="1"/>
        <pt x="320" y="0" on="1"/>
        <pt x="320" y="-64" on="1"/>
        <pt x="384" y="-64" on="1"/>
        <pt x="384" y="-192" on="1"/>
        <pt x="320" y="-192" on="1"/>
        <pt x="320" y="-128" on="1"/>
        <pt x="256" y="-128" on="1"/>
        <pt x="256" y="-192" on="1"/>
        <pt x="192" y="-192" on="1"/>
        <pt x="192" y="-128" on="1"/>
        <pt x="128" y="-128" on="1"/>
        <pt x="128" y="-192" on="1"/>
        <pt x="64" y="-192" on="1"/>
        <pt x="64" y="-128" on="1"/>
        <pt x="0" y="-128" on="1"/>
        <pt x="0" y="64" on="1"/>
        <pt x="64" y="64" on="1"/>
        <pt x="64" y="128" on="1"/>
        <pt x="0" y="128" on="1"/>
        <pt x="0" y="320" on="1"/>
        <pt x="64" y="320" on="1"/>
        <pt x="64" y="384" on="1"/>
        <pt x="0" y="384" on="1"/>
        <pt x="0" y="576" on="1"/>
        <pt x="64" y="576" on="1"/>
        <pt x="64" y="640" on="1"/>
        <pt x="0" y="640" on="1"/>
        <pt x="0" y="832" on="1"/>
        <pt x="384" y="832" on="1"/>
        <pt x="384" y="768" on="1"/>
      </contour>
      <contour>
        <pt x="64" y="704" on="1"/>
        <pt x="128" y="704" on="1"/>
        <pt x="128" y="768" on="1"/>
        <pt x="64" y="768" on="1"/>
      </contour>
      <contour>
        <pt x="256" y="768" on="1"/>
        <pt x="192" y="768" on="1"/>
        <pt x="192" y="704" on="1"/>
        <pt x="256" y="704" on="1"/>
      </contour>
      <contour>
        <pt x="128" y="576" on="1"/>
        <pt x="192" y="576" on="1"/>
        <pt x="192" y="640" on="1"/>
        <pt x="128" y="640" on="1"/>
      </contour>
      <contour>
        <pt x="320" y="640" on="1"/>
        <pt x="256" y="640" on="1"/>
        <pt x="256" y="576" on="1"/>
        <pt x="320" y="576" on="1"/>
      </contour>
      <contour>
        <pt x="64" y="448" on="1"/>
        <pt x="128" y="448" on="1"/>
        <pt x="128" y="512" on="1"/>
        <pt x="64" y="512" on="1"/>
      </contour>
      <contour>
        <pt x="256" y="512" on="1"/>
        <pt x="192" y="512" on="1"/>
        <pt x="192" y="448" on="1"/>
        <pt x="256" y="448" on="1"/>
      </contour>
      <contour>
        <pt x="128" y="320" on="1"/>
        <pt x="192" y="320" on="1"/>
        <pt x="192" y="384" on="1"/>
        <pt x="128" y="384" on="1"/>
      </contour>
      <contour>
        <pt x="320" y="384" on="1"/>
        <pt x="256" y="384" on="1"/>
        <pt x="256" y="320" on="1"/>
        <pt x="320" y="320" on="1"/>
      </contour>
      <contour>
        <pt x="64" y="192" on="1"/>
        <pt x="128" y="192" on="1"/>
        <pt x="128" y="256" on="1"/>
        <pt x="64" y="256" on="1"/>
      </contour>
      <contour>
        <pt x="256" y="256" on="1"/>
        <pt x="192" y="256" on="1"/>
        <pt x="192" y="192" on="1"/>
        <pt x="256" y="192" on="1"/>
      </contour>
      <contour>
        <pt x="128" y="64" on="1"/>
        <pt x="192" y="64" on="1"/>
        <pt x="192" y="128" on="1"/>
        <pt x="128" y="128" on="1"/>
      </contour>
      <contour>
        <pt x="320" y="128" on="1"/>
        <pt x="256" y="128" on="1"/>
        <pt x="256" y="64" on="1"/>
        <pt x="320" y="64" on="1"/>
      </contour>
      <contour>
        <pt x="128" y="-64" on="1"/>
        <pt x="128" y="0" on="1"/>
        <pt x="64" y="0" on="1"/>
        <pt x="64" y="-64" on="1"/>
      </contour>
      <contour>
        <pt x="256" y="0" on="1"/>
        <pt x="192" y="0" on="1"/>
        <pt x="192" y="-64" on="1"/>
        <pt x="256" y="-64" on="1"/>
      </contour>
    </TTGlyph>
    <TTGlyph name="dnblock" xMin="0" yMin="-192" xMax="448" yMax="320">
      <contour>
        <pt x="0" y="-192" on="1"/>
        <pt x="0" y="320" on="1"/>
        <pt x="448" y="320" on="1"/>
        <pt x="448" y="-192" on="1"/>
      </contour>
    </TTGlyph>
    <TTGlyph name="dollar" xMin="55" yMin="-74" xMax="388" yMax="650">
      <contour>
        <pt x="388" y="84" on="0"/>
        <pt x="318" y="7" on="0"/>
        <pt x="251" y="-4" on="1"/>
        <pt x="251" y="-74" on="1"/>
        <pt x="197" y="-74" on="1"/>
        <pt x="197" y="-8" on="1"/>
        <pt x="121" y="-8" on="0"/>
        <pt x="55" y="18" on="1"/>
        <pt x="71" y="73" on="1"/>
        <pt x="136" y="49" on="0"/>
        <pt x="197" y="49" on="1"/>
        <pt x="197" y="258" on="1"/>
        <pt x="156" y="273" on="0"/>
        <pt x="99" y="309" on="0"/>
        <pt x="62" y="374" on="0"/>
        <pt x="62" y="425" on="1"/>
        <pt x="62" y="484" on="0"/>
        <pt x="131" y="566" on="0"/>
        <pt x="197" y="579" on="1"/>
        <pt x="197" y="650" on="1"/>
        <pt x="251" y="650" on="1"/>
        <pt x="251" y="584" on="1"/>
        <pt x="255" y="584" on="1"/>
        <pt x="284" y="584" on="0"/>
        <pt x="348" y="574" on="0"/>
        <pt x="372" y="566" on="1"/>
        <pt x="359" y="511" on="1"/>
        <pt x="305" y="527" on="0"/>
        <pt x="255" y="527" on="1"/>
        <pt x="251" y="527" on="1"/>
        <pt x="251" y="301" on="1"/>
        <pt x="295" y="286" on="0"/>
        <pt x="350" y="254" on="0"/>
        <pt x="388" y="196" on="0"/>
        <pt x="388" y="149" on="1"/>
      </contour>
      <contour>
        <pt x="125" y="386" on="0"/>
        <pt x="163" y="339" on="0"/>
        <pt x="197" y="323" on="1"/>
        <pt x="197" y="521" on="1"/>
        <pt x="158" y="511" on="0"/>
        <pt x="125" y="462" on="0"/>
        <pt x="125" y="425" on="1"/>
      </contour>
      <contour>
        <pt x="292" y="62" on="0"/>
        <pt x="325" y="108" on="0"/>
        <pt x="325" y="143" on="1"/>
        <pt x="325" y="178" on="0"/>
        <pt x="287" y="221" on="0"/>
        <pt x="251" y="237" on="1"/>
        <pt x="251" y="54" on="1"/>
      </contour>
    </TTGlyph>
    <TTGlyph name="dotaccent" xMin="168" yMin="535" xMax="281" yMax="648">
      <component glyphName="uni0307" x="448" y="0" flags="0x0"/>
    </TTGlyph>
    <TTGlyph name="dotlessi" xMin="77" yMin="0" xMax="263" yMax="448">
      <contour>
        <pt x="201" y="390" on="1"/>
        <pt x="77" y="398" on="1"/>
        <pt x="77" y="448" on="1"/>
        <pt x="263" y="448" on="1"/>
        <pt x="263" y="0" on="1"/>
        <pt x="201" y="0" on="1"/>
      </contour>
    </TTGlyph>
    <TTGlyph name="dotmath" xMin="165" yMin="229" xMax="283" yMax="347">
      <component glyphName="period" x="32" y="239" flags="0x4"/>
    </TTGlyph>
    <TTGlyph name="e" xMin="53" yMin="-13" xMax="394" yMax="461">
      <contour>
        <pt x="305" y="461" on="0"/>
        <pt x="394" y="344" on="0"/>
        <pt x="394" y="238" on="1"/>
        <pt x="394" y="217" on="0"/>
        <pt x="393" y="206" on="1"/>
        <pt x="118" y="206" on="1"/>
        <pt x="120" y="119" on="0"/>
        <pt x="179" y="42" on="0"/>
        <pt x="248" y="42" on="1"/>
        <pt x="296" y="42" on="0"/>
        <pt x="362" y="63" on="1"/>
        <pt x="374" y="14" on="1"/>
        <pt x="310" y="-13" on="0"/>
        <pt x="242" y="-13" on="1"/>
        <pt x="53" y="-13" on="0"/>
        <pt x="53" y="224" on="1"/>
        <pt x="53" y="331" on="0"/>
        <pt x="134" y="461" on="0"/>
        <pt x="224" y="461" on="1"/>
      </contour>
      <contour>
        <pt x="174" y="405" on="0"/>
        <pt x="123" y="337" on="0"/>
        <pt x="119" y="261" on="1"/>
        <pt x="329" y="261" on="1"/>
        <pt x="325" y="405" on="0"/>
        <pt x="224" y="405" on="1"/>
      </contour>
    </TTGlyph>
    <TTGlyph name="eacute" xMin="53" yMin="-13" xMax="394" yMax="667">
      <component glyphName="e" x="0" y="0" flags="0x0"/>
      <component glyphName="acutecomb" x="448" y="0" flags="0x0"/>
    </TTGlyph>
    <TTGlyph name="ebreve" xMin="53" yMin="-13" xMax="394" yMax="640">
      <component glyphName="e" x="0" y="0" flags="0x0"/>
      <component glyphName="uni0306" x="448" y="0" flags="0x0"/>
    </TTGlyph>
    <TTGlyph name="ecaron" xMin="53" yMin="-13" xMax="394" yMax="643">
      <component glyphName="e" x="0" y="0" flags="0x0"/>
      <component glyphName="uni030C" x="448" y="0" flags="0x0"/>
    </TTGlyph>
    <TTGlyph name="ecircumflex" xMin="53" yMin="-13" xMax="394" yMax="649">
      <component glyphName="e" x="0" y="0" flags="0x0"/>
      <component glyphName="uni0302" x="448" y="0" flags="0x0"/>
    </TTGlyph>
    <TTGlyph name="edieresis" xMin="53" yMin="-13" xMax="394" yMax="648">
      <component glyphName="e" x="0" y="0" flags="0x0"/>
      <component glyphName="uni0308" x="448" y="0" flags="0x0"/>
    </TTGlyph>
    <TTGlyph name="edotaccent" xMin="53" yMin="-13" xMax="394" yMax="648">
      <component glyphName="e" x="0" y="0" flags="0x0"/>
      <component glyphName="uni0307" x="448" y="0" flags="0x0"/>
    </TTGlyph>
    <TTGlyph name="egrave" xMin="53" yMin="-13" xMax="394" yMax="667">
      <component glyphName="e" x="0" y="0" flags="0x0"/>
      <component glyphName="gravecomb" x="448" y="0" flags="0x0"/>
    </TTGlyph>
    <TTGlyph name="eight" xMin="35" yMin="-11" xMax="413" yMax="586">
      <contour>
        <pt x="361" y="245" on="0"/>
        <pt x="413" y="181" on="0"/>
        <pt x="413" y="136" on="1"/>
        <pt x="413" y="97" on="0"/>
        <pt x="368" y="30" on="0"/>
        <pt x="282" y="-11" on="0"/>
        <pt x="224" y="-11" on="1"/>
        <pt x="135" y="-11" on="0"/>
        <pt x="35" y="81" on="0"/>
        <pt x="35" y="152" on="1"/>
        <pt x="35" y="201" on="0"/>
        <pt x="87" y="280" on="0"/>
        <pt x="132" y="308" on="1"/>
        <pt x="93" y="338" on="0"/>
        <pt x="61" y="400" on="0"/>
        <pt x="61" y="436" on="1"/>
        <pt x="61" y="479" on="0"/>
        <pt x="103" y="547" on="0"/>
        <pt x="178" y="586" on="0"/>
        <pt x="224" y="586" on="1"/>
        <pt x="296" y="586" on="0"/>
        <pt x="388" y="499" on="0"/>
        <pt x="388" y="427" on="1"/>
        <pt x="388" y="387" on="0"/>
        <pt x="348" y="307" on="0"/>
        <pt x="306" y="276" on="1"/>
      </contour>
      <contour>
        <pt x="173" y="526" on="0"/>
        <pt x="124" y="473" on="0"/>
        <pt x="124" y="435" on="1"/>
        <pt x="124" y="410" on="0"/>
        <pt x="143" y="370" on="0"/>
        <pt x="201" y="327" on="0"/>
        <pt x="257" y="300" on="1"/>
        <pt x="293" y="331" on="0"/>
        <pt x="324" y="395" on="0"/>
        <pt x="324" y="430" on="1"/>
        <pt x="324" y="472" on="0"/>
        <pt x="274" y="526" on="0"/>
        <pt x="224" y="526" on="1"/>
      </contour>
      <contour>
        <pt x="266" y="49" on="0"/>
        <pt x="323" y="76" on="0"/>
        <pt x="349" y="116" on="0"/>
        <pt x="349" y="136" on="1"/>
        <pt x="349" y="157" on="0"/>
        <pt x="328" y="192" on="0"/>
        <pt x="271" y="231" on="0"/>
        <pt x="216" y="258" on="1"/>
        <pt x="190" y="271" on="0"/>
        <pt x="178" y="278" on="1"/>
        <pt x="132" y="251" on="0"/>
        <pt x="99" y="188" on="0"/>
        <pt x="99" y="150" on="1"/>
        <pt x="99" y="107" on="0"/>
        <pt x="161" y="49" on="0"/>
        <pt x="224" y="49" on="1"/>
      </contour>
    </TTGlyph>
    <TTGlyph name="eight.dnom" xMin="-48" yMin="-198" xMax="176" yMax="134">
      <component glyphName="uni2078" x="-96" y="-512" flags="0x4"/>
    </TTGlyph>
    <TTGlyph name="eight.numr" xMin="48" yMin="314" xMax="272" yMax="646">
      <component glyphName="uni2078" x="0" y="0" flags="0x0"/>
    </TTGlyph>
    <TTGlyph name="ellipsis" xMin="64" yMin="0" xMax="384" yMax="128">
      <contour>
        <pt x="128" y="128" on="1"/>
        <pt x="128" y="0" on="1"/>
        <pt x="64" y="0" on="1"/>
        <pt x="64" y="128" on="1"/>
      </contour>
      <contour>
        <pt x="256" y="128" on="1"/>
        <pt x="256" y="0" on="1"/>
        <pt x="192" y="0" on="1"/>
        <pt x="192" y="128" on="1"/>
      </contour>
      <contour>
        <pt x="384" y="128" on="1"/>
        <pt x="384" y="0" on="1"/>
        <pt x="320" y="0" on="1"/>
        <pt x="320" y="128" on="1"/>
      </contour>
    </TTGlyph>
    <TTGlyph name="emacron" xMin="53" yMin="-13" xMax="394" yMax="640">
      <component glyphName="e" x="0" y="0" flags="0x0"/>
      <component glyphName="uni0304" x="448" y="0" flags="0x0"/>
    </TTGlyph>
    <TTGlyph name="emdash" xMin="-10" yMin="192" xMax="458" yMax="256">
      <contour>
        <pt x="-10" y="192" on="1"/>
        <pt x="-10" y="256" on="1"/>
        <pt x="458" y="256" on="1"/>
        <pt x="458" y="192" on="1"/>
      </contour>
    </TTGlyph>
    <TTGlyph name="endash" xMin="89" yMin="196" xMax="359" yMax="252">
      <component glyphName="hyphen" x="0" y="0" flags="0x0"/>
    </TTGlyph>
    <TTGlyph name="eng" xMin="58" yMin="-196" xMax="388" yMax="452">
      <contour>
        <pt x="318" y="452" on="0"/>
        <pt x="388" y="382" on="0"/>
        <pt x="388" y="297" on="1"/>
        <pt x="388" y="-5" on="1"/>
        <pt x="388" y="-77" on="0"/>
        <pt x="334" y="-168" on="0"/>
        <pt x="268" y="-196" on="1"/>
        <pt x="239" y="-136" on="1"/>
        <pt x="284" y="-117" on="0"/>
        <pt x="316" y="-66" on="0"/>
        <pt x="316" y="-13" on="1"/>
        <pt x="316" y="289" on="1"/>
        <pt x="316" y="342" on="0"/>
        <pt x="286" y="388" on="0"/>
        <pt x="247" y="388" on="1"/>
        <pt x="218" y="388" on="0"/>
        <pt x="158" y="356" on="0"/>
        <pt x="132" y="330" on="1"/>
        <pt x="132" y="0" on="1"/>
        <pt x="60" y="0" on="1"/>
        <pt x="60" y="383" on="1"/>
        <pt x="58" y="448" on="1"/>
        <pt x="124" y="448" on="1"/>
        <pt x="130" y="400" on="1"/>
        <pt x="158" y="424" on="0"/>
        <pt x="226" y="452" on="0"/>
        <pt x="261" y="452" on="1"/>
      </contour>
    </TTGlyph>
    <TTGlyph name="eogonek" xMin="53" yMin="-197" xMax="394" yMax="461">
      <contour>
        <pt x="305" y="461" on="0"/>
        <pt x="394" y="344" on="0"/>
        <pt x="394" y="238" on="1"/>
        <pt x="394" y="217" on="0"/>
        <pt x="393" y="206" on="1"/>
        <pt x="118" y="206" on="1"/>
        <pt x="120" y="119" on="0"/>
        <pt x="179" y="42" on="0"/>
        <pt x="248" y="42" on="1"/>
        <pt x="296" y="42" on="0"/>
        <pt x="362" y="63" on="1"/>
        <pt x="374" y="14" on="1"/>
        <pt x="352" y="5" on="0"/>
        <pt x="337" y="1" on="1"/>
        <pt x="306" y="-32" on="0"/>
        <pt x="275" y="-85" on="0"/>
        <pt x="275" y="-108" on="1"/>
        <pt x="275" y="-124" on="0"/>
        <pt x="288" y="-136" on="0"/>
        <pt x="301" y="-136" on="1"/>
        <pt x="318" y="-136" on="0"/>
        <pt x="336" y="-128" on="1"/>
        <pt x="353" y="-181" on="1"/>
        <pt x="325" y="-197" on="0"/>
        <pt x="289" y="-197" on="1"/>
        <pt x="248" y="-197" on="0"/>
        <pt x="205" y="-156" on="0"/>
        <pt x="205" y="-119" on="1"/>
        <pt x="205" y="-63" on="0"/>
        <pt x="259" y="-13" on="1"/>
        <pt x="242" y="-13" on="1"/>
        <pt x="53" y="-13" on="0"/>
        <pt x="53" y="224" on="1"/>
        <pt x="53" y="331" on="0"/>
        <pt x="134" y="461" on="0"/>
        <pt x="224" y="461" on="1"/>
      </contour>
      <contour>
        <pt x="174" y="405" on="0"/>
        <pt x="123" y="337" on="0"/>
        <pt x="119" y="261" on="1"/>
        <pt x="329" y="261" on="1"/>
        <pt x="325" y="405" on="0"/>
        <pt x="224" y="405" on="1"/>
      </contour>
    </TTGlyph>
    <TTGlyph name="epsilon" xMin="64" yMin="0" xMax="384" yMax="448">
      <contour>
        <pt x="128" y="448" on="1"/>
        <pt x="384" y="448" on="1"/>
        <pt x="384" y="384" on="1"/>
        <pt x="128" y="384" on="1"/>
      </contour>
      <contour>
        <pt x="128" y="256" on="1"/>
        <pt x="64" y="256" on="1"/>
        <pt x="64" y="384" on="1"/>
        <pt x="128" y="384" on="1"/>
      </contour>
      <contour>
        <pt x="128" y="256" on="1"/>
        <pt x="320" y="256" on="1"/>
        <pt x="320" y="192" on="1"/>
        <pt x="128" y="192" on="1"/>
      </contour>
      <contour>
        <pt x="128" y="192" on="1"/>
        <pt x="128" y="64" on="1"/>
        <pt x="64" y="64" on="1"/>
        <pt x="64" y="192" on="1"/>
      </contour>
      <contour>
        <pt x="128" y="64" on="1"/>
        <pt x="384" y="64" on="1"/>
        <pt x="384" y="0" on="1"/>
        <pt x="128" y="0" on="1"/>
      </contour>
    </TTGlyph>
    <TTGlyph name="epsilontonos" xMin="64" yMin="0" xMax="384" yMax="704">
      <component glyphName="epsilon" x="0" y="0" flags="0x0"/>
      <component glyphName="tonos" x="0" y="0" flags="0x0"/>
    </TTGlyph>
    <TTGlyph name="equal" xMin="32" yMin="183" xMax="416" yMax="393">
      <contour>
        <pt x="32" y="339" on="1"/>
        <pt x="32" y="393" on="1"/>
        <pt x="416" y="393" on="1"/>
        <pt x="416" y="339" on="1"/>
      </contour>
      <contour>
        <pt x="32" y="183" on="1"/>
        <pt x="32" y="237" on="1"/>
        <pt x="416" y="237" on="1"/>
        <pt x="416" y="183" on="1"/>
      </contour>
    </TTGlyph>
    <TTGlyph name="equivalence" xMin="24" yMin="128" xMax="424" yMax="448">
      <contour>
        <pt x="24" y="384" on="1"/>
        <pt x="24" y="448" on="1"/>
        <pt x="424" y="448" on="1"/>
        <pt x="424" y="384" on="1"/>
      </contour>
      <contour>
        <pt x="24" y="256" on="1"/>
        <pt x="24" y="320" on="1"/>
        <pt x="424" y="320" on="1"/>
        <pt x="424" y="256" on="1"/>
      </contour>
      <contour>
        <pt x="24" y="128" on="1"/>
        <pt x="24" y="192" on="1"/>
        <pt x="424" y="192" on="1"/>
        <pt x="424" y="128" on="1"/>
      </contour>
    </TTGlyph>
    <TTGlyph name="estimated" xMin="50" yMin="-13" xMax="398" yMax="461">
      <contour>
        <pt x="398" y="191" on="1"/>
        <pt x="164" y="191" on="1"/>
        <pt x="166" y="109" on="0"/>
        <pt x="202" y="41" on="0"/>
        <pt x="249" y="41" on="1"/>
        <pt x="297" y="41" on="0"/>
        <pt x="348" y="57" on="1"/>
        <pt x="362" y="8" on="1"/>
        <pt x="296" y="-13" on="0"/>
        <pt x="238" y="-13" on="1"/>
        <pt x="138" y="-13" on="0"/>
        <pt x="50" y="122" on="0"/>
        <pt x="50" y="224" on="1"/>
        <pt x="50" y="326" on="0"/>
        <pt x="139" y="461" on="0"/>
        <pt x="229" y="461" on="1"/>
        <pt x="317" y="461" on="0"/>
        <pt x="398" y="333" on="0"/>
        <pt x="398" y="224" on="1"/>
      </contour>
      <contour>
        <pt x="192" y="407" on="0"/>
        <pt x="166" y="335" on="0"/>
        <pt x="164" y="247" on="1"/>
        <pt x="284" y="247" on="1"/>
        <pt x="282" y="335" on="0"/>
        <pt x="256" y="407" on="0"/>
        <pt x="225" y="407" on="1"/>
      </contour>
    </TTGlyph>
    <TTGlyph name="eta" xMin="58" yMin="-192" xMax="388" yMax="452">
      <contour>
        <pt x="318" y="452" on="0"/>
        <pt x="388" y="382" on="0"/>
        <pt x="388" y="297" on="1"/>
        <pt x="388" y="-192" on="1"/>
        <pt x="316" y="-192" on="1"/>
        <pt x="316" y="289" on="1"/>
        <pt x="316" y="342" on="0"/>
        <pt x="286" y="388" on="0"/>
        <pt x="247" y="388" on="1"/>
        <pt x="218" y="388" on="0"/>
        <pt x="158" y="356" on="0"/>
        <pt x="132" y="330" on="1"/>
        <pt x="132" y="0" on="1"/>
        <pt x="60" y="0" on="1"/>
        <pt x="60" y="383" on="1"/>
        <pt x="58" y="448" on="1"/>
        <pt x="124" y="448" on="1"/>
        <pt x="130" y="400" on="1"/>
        <pt x="158" y="424" on="0"/>
        <pt x="226" y="452" on="0"/>
        <pt x="261" y="452" on="1"/>
      </contour>
    </TTGlyph>
    <TTGlyph name="etatonos" xMin="58" yMin="-192" xMax="388" yMax="704">
      <component glyphName="eta" x="0" y="0" flags="0x0"/>
      <component glyphName="tonos" x="0" y="0" flags="0x0"/>
    </TTGlyph>
    <TTGlyph name="eth" xMin="47" yMin="-8" xMax="400" yMax="648">
      <contour>
        <pt x="400" y="427" on="0"/>
        <pt x="400" y="252" on="1"/>
        <pt x="400" y="124" on="0"/>
        <pt x="308" y="-8" on="0"/>
        <pt x="221" y="-8" on="1"/>
        <pt x="141" y="-8" on="0"/>
        <pt x="47" y="106" on="0"/>
        <pt x="47" y="203" on="1"/>
        <pt x="47" y="269" on="0"/>
        <pt x="91" y="364" on="0"/>
        <pt x="168" y="414" on="0"/>
        <pt x="215" y="414" on="1"/>
        <pt x="263" y="414" on="0"/>
        <pt x="306" y="391" on="1"/>
        <pt x="283" y="458" on="0"/>
        <pt x="230" y="514" on="1"/>
        <pt x="154" y="461" on="1"/>
        <pt x="123" y="505" on="1"/>
        <pt x="190" y="552" on="1"/>
        <pt x="168" y="572" on="0"/>
        <pt x="132" y="596" on="1"/>
        <pt x="168" y="648" on="1"/>
        <pt x="215" y="616" on="0"/>
        <pt x="245" y="590" on="1"/>
        <pt x="310" y="635" on="1"/>
        <pt x="341" y="591" on="1"/>
        <pt x="284" y="552" on="1"/>
      </contour>
      <contour>
        <pt x="282" y="56" on="0"/>
        <pt x="327" y="154" on="0"/>
        <pt x="327" y="247" on="1"/>
        <pt x="327" y="289" on="0"/>
        <pt x="323" y="320" on="1"/>
        <pt x="275" y="350" on="0"/>
        <pt x="223" y="350" on="1"/>
        <pt x="166" y="350" on="0"/>
        <pt x="121" y="270" on="0"/>
        <pt x="121" y="203" on="1"/>
        <pt x="121" y="56" on="0"/>
        <pt x="224" y="56" on="1"/>
      </contour>
    </TTGlyph>
    <TTGlyph name="exclam" xMin="165" yMin="-10" xMax="283" yMax="640">
      <contour>
        <pt x="265" y="640" on="1"/>
        <pt x="251" y="187" on="1"/>
        <pt x="197" y="187" on="1"/>
        <pt x="183" y="640" on="1"/>
      </contour>
      <contour>
        <pt x="249" y="113" on="0"/>
        <pt x="283" y="80" on="0"/>
        <pt x="283" y="52" on="1"/>
        <pt x="283" y="23" on="0"/>
        <pt x="249" y="-10" on="0"/>
        <pt x="224" y="-10" on="1"/>
        <pt x="199" y="-10" on="0"/>
        <pt x="165" y="23" on="0"/>
        <pt x="165" y="52" on="1"/>
        <pt x="165" y="80" on="0"/>
        <pt x="199" y="113" on="0"/>
        <pt x="224" y="113" on="1"/>
      </contour>
    </TTGlyph>
    <TTGlyph name="exclamdbl" xMin="72" yMin="-10" xMax="377" yMax="640">
      <component glyphName="exclam" x="-94" y="0" flags="0x0"/>
      <component glyphName="exclam" x="94" y="0" flags="0x0"/>
    </TTGlyph>
    <TTGlyph name="exclamdown" xMin="165" yMin="-192" xMax="283" yMax="458">
      <contour>
        <pt x="199" y="335" on="0"/>
        <pt x="165" y="368" on="0"/>
        <pt x="165" y="397" on="1"/>
        <pt x="165" y="426" on="0"/>
        <pt x="199" y="458" on="0"/>
        <pt x="224" y="458" on="1"/>
        <pt x="249" y="458" on="0"/>
        <pt x="283" y="426" on="0"/>
        <pt x="283" y="397" on="1"/>
        <pt x="283" y="368" on="0"/>
        <pt x="249" y="335" on="0"/>
        <pt x="224" y="335" on="1"/>
      </contour>
      <contour>
        <pt x="183" y="-192" on="1"/>
        <pt x="197" y="261" on="1"/>
        <pt x="251" y="261" on="1"/>
        <pt x="265" y="-192" on="1"/>
      </contour>
    </TTGlyph>
    <TTGlyph name="f" xMin="59" yMin="0" xMax="374" yMax="648">
      <contour>
        <pt x="59" y="395" on="1"/>
        <pt x="59" y="448" on="1"/>
        <pt x="134" y="448" on="1"/>
        <pt x="134" y="504" on="1"/>
        <pt x="134" y="576" on="0"/>
        <pt x="206" y="648" on="0"/>
        <pt x="265" y="648" on="1"/>
        <pt x="319" y="648" on="0"/>
        <pt x="374" y="637" on="1"/>
        <pt x="364" y="583" on="1"/>
        <pt x="306" y="592" on="0"/>
        <pt x="272" y="592" on="1"/>
        <pt x="231" y="592" on="0"/>
        <pt x="196" y="546" on="0"/>
        <pt x="196" y="510" on="1"/>
        <pt x="196" y="448" on="1"/>
        <pt x="345" y="448" on="1"/>
        <pt x="345" y="393" on="1"/>
        <pt x="196" y="393" on="1"/>
        <pt x="196" y="0" on="1"/>
        <pt x="134" y="0" on="1"/>
        <pt x="134" y="392" on="1"/>
      </contour>
    </TTGlyph>
    <TTGlyph name="female" xMin="54" yMin="-178" xMax="394" yMax="392">
      <contour>
        <pt x="258" y="-16" on="1"/>
        <pt x="354" y="-16" on="1"/>
        <pt x="354" y="-80" on="1"/>
        <pt x="258" y="-80" on="1"/>
        <pt x="258" y="-178" on="1"/>
        <pt x="190" y="-178" on="1"/>
        <pt x="190" y="-80" on="1"/>
        <pt x="94" y="-80" on="1"/>
        <pt x="94" y="-16" on="1"/>
        <pt x="190" y="-16" on="1"/>
        <pt x="190" y="59" on="1"/>
        <pt x="130" y="70" on="0"/>
        <pt x="54" y="162" on="0"/>
        <pt x="54" y="224" on="1"/>
        <pt x="54" y="271" on="0"/>
        <pt x="99" y="348" on="0"/>
        <pt x="177" y="392" on="0"/>
        <pt x="224" y="392" on="1"/>
        <pt x="271" y="392" on="0"/>
        <pt x="349" y="348" on="0"/>
        <pt x="394" y="271" on="0"/>
        <pt x="394" y="224" on="1"/>
        <pt x="394" y="162" on="0"/>
        <pt x="318" y="70" on="0"/>
        <pt x="258" y="59" on="1"/>
      </contour>
      <contour>
        <pt x="124" y="180" on="0"/>
        <pt x="181" y="120" on="0"/>
        <pt x="224" y="120" on="1"/>
        <pt x="267" y="120" on="0"/>
        <pt x="324" y="180" on="0"/>
        <pt x="324" y="224" on="1"/>
        <pt x="324" y="268" on="0"/>
        <pt x="267" y="328" on="0"/>
        <pt x="224" y="328" on="1"/>
        <pt x="181" y="328" on="0"/>
        <pt x="124" y="268" on="0"/>
        <pt x="124" y="224" on="1"/>
      </contour>
    </TTGlyph>
    <TTGlyph name="fi" xMin="0" yMin="0" xMax="411" yMax="650">
      <contour>
        <pt x="132" y="584" on="0"/>
        <pt x="132" y="509" on="1"/>
        <pt x="132" y="448" on="1"/>
        <pt x="388" y="448" on="1"/>
        <pt x="388" y="0" on="1"/>
        <pt x="316" y="0" on="1"/>
        <pt x="316" y="384" on="1"/>
        <pt x="132" y="384" on="1"/>
        <pt x="132" y="0" on="1"/>
        <pt x="60" y="0" on="1"/>
        <pt x="60" y="383" on="1"/>
        <pt x="0" y="386" on="1"/>
        <pt x="0" y="448" on="1"/>
        <pt x="60" y="448" on="1"/>
        <pt x="60" y="504" on="1"/>
        <pt x="60" y="577" on="0"/>
        <pt x="134" y="648" on="0"/>
        <pt x="198" y="648" on="1"/>
        <pt x="249" y="648" on="0"/>
        <pt x="313" y="637" on="1"/>
        <pt x="329" y="650" on="0"/>
        <pt x="352" y="650" on="1"/>
        <pt x="377" y="650" on="0"/>
        <pt x="411" y="618" on="0"/>
        <pt x="411" y="591" on="1"/>
        <pt x="411" y="563" on="0"/>
        <pt x="377" y="532" on="0"/>
        <pt x="352" y="532" on="1"/>
        <pt x="331" y="532" on="0"/>
        <pt x="299" y="554" on="0"/>
        <pt x="295" y="575" on="1"/>
        <pt x="239" y="584" on="0"/>
        <pt x="202" y="584" on="1"/>
      </contour>
    </TTGlyph>
    <TTGlyph name="filledbox" xMin="62" yMin="64" xMax="386" yMax="384">
      <contour>
        <pt x="386" y="64" on="1"/>
        <pt x="62" y="64" on="1"/>
        <pt x="62" y="384" on="1"/>
        <pt x="386" y="384" on="1"/>
      </contour>
    </TTGlyph>
    <TTGlyph name="filledrect" xMin="16" yMin="128" xMax="432" yMax="320">
      <contour>
        <pt x="432" y="128" on="1"/>
        <pt x="16" y="128" on="1"/>
        <pt x="16" y="320" on="1"/>
        <pt x="432" y="320" on="1"/>
      </contour>
    </TTGlyph>
    <TTGlyph name="five" xMin="56" yMin="0" xMax="394" yMax="576">
      <contour>
        <pt x="305" y="323" on="0"/>
        <pt x="394" y="248" on="0"/>
        <pt x="394" y="166" on="1"/>
        <pt x="394" y="0" on="0"/>
        <pt x="213" y="0" on="1"/>
        <pt x="142" y="0" on="0"/>
        <pt x="56" y="21" on="1"/>
        <pt x="70" y="80" on="1"/>
        <pt x="153" y="60" on="0"/>
        <pt x="214" y="60" on="1"/>
        <pt x="274" y="60" on="0"/>
        <pt x="328" y="108" on="0"/>
        <pt x="328" y="162" on="1"/>
        <pt x="328" y="219" on="0"/>
        <pt x="282" y="263" on="0"/>
        <pt x="219" y="263" on="1"/>
        <pt x="170" y="263" on="0"/>
        <pt x="89" y="250" on="1"/>
        <pt x="71" y="271" on="1"/>
        <pt x="84" y="576" on="1"/>
        <pt x="372" y="576" on="1"/>
        <pt x="372" y="516" on="1"/>
        <pt x="144" y="516" on="1"/>
        <pt x="133" y="260" on="1"/>
        <pt x="138" y="313" on="1"/>
        <pt x="184" y="323" on="0"/>
        <pt x="236" y="323" on="1"/>
      </contour>
    </TTGlyph>
    <TTGlyph name="five.dnom" xMin="-32" yMin="-192" xMax="160" yMax="128">
      <component glyphName="uni2075" x="-96" y="-512" flags="0x4"/>
    </TTGlyph>
    <TTGlyph name="five.numr" xMin="64" yMin="320" xMax="256" yMax="640">
      <component glyphName="uni2075" x="0" y="0" flags="0x0"/>
    </TTGlyph>
    <TTGlyph name="fiveeighths" xMin="41" yMin="-198" xMax="406" yMax="640">
      <component glyphName="five.numr" x="0" y="0" flags="0x0"/>
      <component glyphName="fraction.alt" x="224" y="0" flags="0x0"/>
      <component glyphName="eight.dnom" x="224" y="0" flags="0x0"/>
    </TTGlyph>
    <TTGlyph name="fl" xMin="0" yMin="-4" xMax="451" yMax="648">
      <contour>
        <pt x="388" y="60" on="0"/>
        <pt x="451" y="60" on="1"/>
        <pt x="448" y="-4" on="1"/>
        <pt x="388" y="-4" on="0"/>
        <pt x="316" y="56" on="0"/>
        <pt x="316" y="124" on="1"/>
        <pt x="316" y="384" on="1"/>
        <pt x="132" y="384" on="1"/>
        <pt x="132" y="0" on="1"/>
        <pt x="60" y="0" on="1"/>
        <pt x="60" y="383" on="1"/>
        <pt x="0" y="386" on="1"/>
        <pt x="0" y="448" on="1"/>
        <pt x="60" y="448" on="1"/>
        <pt x="60" y="504" on="1"/>
        <pt x="60" y="578" on="0"/>
        <pt x="137" y="648" on="0"/>
        <pt x="208" y="648" on="1"/>
        <pt x="297" y="648" on="0"/>
        <pt x="388" y="640" on="1"/>
        <pt x="388" y="119" on="1"/>
      </contour>
      <contour>
        <pt x="316" y="448" on="1"/>
        <pt x="316" y="580" on="1"/>
        <pt x="260" y="584" on="0"/>
        <pt x="213" y="584" on="1"/>
        <pt x="167" y="584" on="0"/>
        <pt x="132" y="544" on="0"/>
        <pt x="132" y="509" on="1"/>
        <pt x="132" y="448" on="1"/>
      </contour>
    </TTGlyph>
    <TTGlyph name="florin" xMin="77" yMin="-196" xMax="398" yMax="648">
      <contour>
        <pt x="328" y="584" on="0"/>
        <pt x="294" y="584" on="1"/>
        <pt x="226" y="584" on="0"/>
        <pt x="226" y="509" on="1"/>
        <pt x="226" y="448" on="1"/>
        <pt x="370" y="448" on="1"/>
        <pt x="370" y="384" on="1"/>
        <pt x="226" y="384" on="1"/>
        <pt x="226" y="-5" on="1"/>
        <pt x="226" y="-78" on="0"/>
        <pt x="172" y="-166" on="0"/>
        <pt x="106" y="-196" on="1"/>
        <pt x="77" y="-136" on="1"/>
        <pt x="120" y="-115" on="0"/>
        <pt x="154" y="-62" on="0"/>
        <pt x="154" y="-13" on="1"/>
        <pt x="154" y="383" on="1"/>
        <pt x="79" y="386" on="1"/>
        <pt x="79" y="448" on="1"/>
        <pt x="154" y="448" on="1"/>
        <pt x="154" y="504" on="1"/>
        <pt x="154" y="577" on="0"/>
        <pt x="228" y="648" on="0"/>
        <pt x="290" y="648" on="1"/>
        <pt x="344" y="648" on="0"/>
        <pt x="398" y="638" on="1"/>
        <pt x="387" y="575" on="1"/>
      </contour>
    </TTGlyph>
    <TTGlyph name="four" xMin="44" yMin="0" xMax="421" yMax="592">
      <contour>
        <pt x="421" y="188" on="1"/>
        <pt x="421" y="132" on="1"/>
        <pt x="334" y="132" on="1"/>
        <pt x="334" y="0" on="1"/>
        <pt x="272" y="0" on="1"/>
        <pt x="272" y="132" on="1"/>
        <pt x="44" y="132" on="1"/>
        <pt x="53" y="334" on="0"/>
        <pt x="193" y="558" on="0"/>
        <pt x="334" y="592" on="1"/>
        <pt x="334" y="188" on="1"/>
      </contour>
      <contour>
        <pt x="272" y="506" on="1"/>
        <pt x="200" y="472" on="0"/>
        <pt x="123" y="315" on="0"/>
        <pt x="110" y="188" on="1"/>
        <pt x="272" y="188" on="1"/>
      </contour>
    </TTGlyph>
    <TTGlyph name="four.dnom" xMin="-40" yMin="-192" xMax="190" yMax="138">
      <component glyphName="uni2074" x="-96" y="-512" flags="0x4"/>
    </TTGlyph>
    <TTGlyph name="four.numr" xMin="56" yMin="320" xMax="286" yMax="650">
      <component glyphName="uni2074" x="0" y="0" flags="0x0"/>
    </TTGlyph>
    <TTGlyph name="fraction" xMin="124" yMin="-69" xMax="324" yMax="710">
      <component glyphName="slash" x="0" y="0" flags="0x0"/>
    </TTGlyph>
    <TTGlyph name="fraction.alt" xMin="-183" yMin="171" xMax="182" yMax="277">
      <contour>
        <pt x="174" y="277" on="1"/>
        <pt x="182" y="222" on="1"/>
        <pt x="-175" y="171" on="1"/>
        <pt x="-183" y="226" on="1"/>
      </contour>
    </TTGlyph>
    <TTGlyph name="franc" xMin="10" yMin="0" xMax="384" yMax="576">
      <contour>
        <pt x="60" y="174" on="1"/>
        <pt x="60" y="576" on="1"/>
        <pt x="384" y="576" on="1"/>
        <pt x="384" y="512" on="1"/>
        <pt x="132" y="512" on="1"/>
        <pt x="132" y="320" on="1"/>
        <pt x="320" y="320" on="1"/>
        <pt x="320" y="256" on="1"/>
        <pt x="132" y="256" on="1"/>
        <pt x="132" y="174" on="1"/>
        <pt x="266" y="174" on="1"/>
        <pt x="266" y="114" on="1"/>
        <pt x="132" y="114" on="1"/>
        <pt x="132" y="0" on="1"/>
        <pt x="60" y="0" on="1"/>
        <pt x="60" y="114" on="1"/>
        <pt x="10" y="114" on="1"/>
        <pt x="10" y="174" on="1"/>
      </contour>
    </TTGlyph>
    <TTGlyph name="g" xMin="54" yMin="-196" xMax="387" yMax="456">
      <contour>
        <pt x="387" y="448" on="1"/>
        <pt x="385" y="384" on="1"/>
        <pt x="385" y="-41" on="1"/>
        <pt x="385" y="-196" on="0"/>
        <pt x="224" y="-196" on="1"/>
        <pt x="166" y="-196" on="0"/>
        <pt x="108" y="-181" on="1"/>
        <pt x="115" y="-131" on="1"/>
        <pt x="161" y="-141" on="0"/>
        <pt x="221" y="-141" on="1"/>
        <pt x="279" y="-141" on="0"/>
        <pt x="324" y="-98" on="0"/>
        <pt x="324" y="-48" on="1"/>
        <pt x="324" y="33" on="1"/>
        <pt x="285" y="-8" on="0"/>
        <pt x="222" y="-8" on="1"/>
        <pt x="135" y="-8" on="0"/>
        <pt x="54" y="123" on="0"/>
        <pt x="54" y="224" on="1"/>
        <pt x="54" y="325" on="0"/>
        <pt x="135" y="456" on="0"/>
        <pt x="223" y="456" on="1"/>
        <pt x="291" y="456" on="0"/>
        <pt x="329" y="410" on="1"/>
        <pt x="334" y="448" on="1"/>
      </contour>
      <contour>
        <pt x="290" y="47" on="0"/>
        <pt x="324" y="93" on="1"/>
        <pt x="324" y="354" on="1"/>
        <pt x="290" y="401" on="0"/>
        <pt x="227" y="401" on="1"/>
        <pt x="170" y="401" on="0"/>
        <pt x="122" y="319" on="0"/>
        <pt x="122" y="224" on="1"/>
        <pt x="122" y="130" on="0"/>
        <pt x="170" y="47" on="0"/>
        <pt x="227" y="47" on="1"/>
      </contour>
    </TTGlyph>
    <TTGlyph name="g.ss01" xMin="36" yMin="-200" xMax="430" yMax="456">
      <contour>
        <pt x="349" y="73" on="0"/>
        <pt x="430" y="0" on="0"/>
        <pt x="430" y="-59" on="1"/>
        <pt x="430" y="-128" on="0"/>
        <pt x="331" y="-200" on="0"/>
        <pt x="233" y="-200" on="1"/>
        <pt x="128" y="-200" on="0"/>
        <pt x="36" y="-124" on="0"/>
        <pt x="36" y="-68" on="1"/>
        <pt x="36" y="-42" on="0"/>
        <pt x="59" y="8" on="0"/>
        <pt x="82" y="26" on="1"/>
        <pt x="47" y="51" on="0"/>
        <pt x="47" y="97" on="1"/>
        <pt x="47" y="122" on="0"/>
        <pt x="75" y="167" on="0"/>
        <pt x="98" y="183" on="1"/>
        <pt x="53" y="225" on="0"/>
        <pt x="53" y="299" on="1"/>
        <pt x="53" y="368" on="0"/>
        <pt x="140" y="456" on="0"/>
        <pt x="220" y="456" on="1"/>
        <pt x="253" y="456" on="0"/>
        <pt x="280" y="448" on="1"/>
        <pt x="428" y="448" on="1"/>
        <pt x="428" y="390" on="1"/>
        <pt x="364" y="387" on="1"/>
        <pt x="387" y="349" on="0"/>
        <pt x="387" y="299" on="1"/>
        <pt x="387" y="232" on="0"/>
        <pt x="300" y="142" on="0"/>
        <pt x="220" y="142" on="1"/>
        <pt x="175" y="142" on="0"/>
        <pt x="145" y="155" on="1"/>
        <pt x="132" y="146" on="0"/>
        <pt x="118" y="120" on="0"/>
        <pt x="118" y="107" on="1"/>
        <pt x="118" y="73" on="0"/>
        <pt x="162" y="73" on="1"/>
        <pt x="268" y="73" on="1"/>
      </contour>
      <contour>
        <pt x="175" y="396" on="0"/>
        <pt x="130" y="346" on="0"/>
        <pt x="130" y="299" on="1"/>
        <pt x="130" y="202" on="0"/>
        <pt x="220" y="202" on="1"/>
        <pt x="310" y="202" on="0"/>
        <pt x="310" y="299" on="1"/>
        <pt x="310" y="346" on="0"/>
        <pt x="265" y="396" on="0"/>
        <pt x="220" y="396" on="1"/>
      </contour>
      <contour>
        <pt x="301" y="-136" on="0"/>
        <pt x="354" y="-97" on="0"/>
        <pt x="354" y="-61" on="1"/>
        <pt x="354" y="5" on="0"/>
        <pt x="265" y="5" on="1"/>
        <pt x="168" y="5" on="1"/>
        <pt x="148" y="5" on="0"/>
        <pt x="131" y="8" on="1"/>
        <pt x="121" y="-8" on="0"/>
        <pt x="111" y="-42" on="0"/>
        <pt x="111" y="-56" on="1"/>
        <pt x="111" y="-92" on="0"/>
        <pt x="162" y="-136" on="0"/>
        <pt x="233" y="-136" on="1"/>
      </contour>
    </TTGlyph>
    <TTGlyph name="gamma" xMin="42" yMin="-192" xMax="406" yMax="451">
      <contour>
        <pt x="395" y="313" on="0"/>
        <pt x="322" y="111" on="0"/>
        <pt x="260" y="15" on="1"/>
        <pt x="260" y="-192" on="1"/>
        <pt x="188" y="-192" on="1"/>
        <pt x="188" y="15" on="1"/>
        <pt x="126" y="111" on="0"/>
        <pt x="53" y="313" on="0"/>
        <pt x="42" y="447" on="1"/>
        <pt x="117" y="451" on="1"/>
        <pt x="128" y="325" on="0"/>
        <pt x="178" y="166" on="0"/>
        <pt x="224" y="86" on="1"/>
        <pt x="270" y="166" on="0"/>
        <pt x="320" y="325" on="0"/>
        <pt x="331" y="451" on="1"/>
        <pt x="406" y="447" on="1"/>
      </contour>
    </TTGlyph>
    <TTGlyph name="gbreve" xMin="54" yMin="-196" xMax="387" yMax="640">
      <component glyphName="g" x="0" y="0" flags="0x0"/>
      <component glyphName="uni0306" x="448" y="0" flags="0x0"/>
    </TTGlyph>
    <TTGlyph name="gcircumflex" xMin="54" yMin="-196" xMax="387" yMax="649">
      <component glyphName="g" x="0" y="0" flags="0x0"/>
      <component glyphName="uni0302" x="448" y="0" flags="0x0"/>
    </TTGlyph>
    <TTGlyph name="gdotaccent" xMin="54" yMin="-196" xMax="387" yMax="648">
      <component glyphName="g" x="0" y="0" flags="0x0"/>
      <component glyphName="uni0307" x="448" y="0" flags="0x0"/>
    </TTGlyph>
    <TTGlyph name="germandbls" xMin="62" yMin="-8" xMax="406" yMax="648">
      <contour>
        <pt x="302" y="487" on="0"/>
        <pt x="283" y="459" on="0"/>
        <pt x="259" y="440" on="1"/>
        <pt x="226" y="419" on="0"/>
        <pt x="186" y="370" on="0"/>
        <pt x="186" y="330" on="1"/>
        <pt x="186" y="283" on="0"/>
        <pt x="231" y="229" on="0"/>
        <pt x="274" y="200" on="1"/>
        <pt x="308" y="177" on="0"/>
        <pt x="340" y="142" on="0"/>
        <pt x="340" y="116" on="1"/>
        <pt x="340" y="83" on="0"/>
        <pt x="307" y="54" on="0"/>
        <pt x="272" y="54" on="1"/>
        <pt x="242" y="54" on="0"/>
        <pt x="202" y="63" on="1"/>
        <pt x="190" y="3" on="1"/>
        <pt x="234" y="-8" on="0"/>
        <pt x="274" y="-8" on="1"/>
        <pt x="332" y="-8" on="0"/>
        <pt x="406" y="55" on="0"/>
        <pt x="406" y="116" on="1"/>
        <pt x="406" y="161" on="0"/>
        <pt x="360" y="215" on="0"/>
        <pt x="317" y="245" on="1"/>
        <pt x="283" y="269" on="0"/>
        <pt x="252" y="302" on="0"/>
        <pt x="252" y="327" on="1"/>
        <pt x="252" y="345" on="0"/>
        <pt x="270" y="369" on="0"/>
        <pt x="298" y="391" on="1"/>
        <pt x="334" y="421" on="0"/>
        <pt x="368" y="477" on="0"/>
        <pt x="368" y="516" on="1"/>
        <pt x="368" y="579" on="0"/>
        <pt x="282" y="648" on="0"/>
        <pt x="217" y="648" on="1"/>
        <pt x="148" y="648" on="0"/>
        <pt x="62" y="573" on="0"/>
        <pt x="62" y="496" on="1"/>
        <pt x="62" y="0" on="1"/>
        <pt x="124" y="0" on="1"/>
        <pt x="124" y="502" on="1"/>
        <pt x="124" y="588" on="0"/>
        <pt x="215" y="588" on="1"/>
        <pt x="302" y="588" on="0"/>
        <pt x="302" y="515" on="1"/>
      </contour>
    </TTGlyph>
    <TTGlyph name="grave" xMin="144" yMin="380" xMax="292" yMax="643">
      <contour>
        <pt x="232" y="380" on="1"/>
        <pt x="144" y="630" on="1"/>
        <pt x="228" y="643" on="1"/>
        <pt x="292" y="393" on="1"/>
      </contour>
    </TTGlyph>
    <TTGlyph name="gravecomb" xMin="-325" yMin="506" xMax="-167" yMax="667">
      <contour>
        <pt x="-207" y="506" on="1"/>
        <pt x="-325" y="616" on="1"/>
        <pt x="-263" y="667" on="1"/>
        <pt x="-167" y="546" on="1"/>
      </contour>
    </TTGlyph>
    <TTGlyph name="gravecomb.case" xMin="-325" yMin="698" xMax="-167" yMax="859">
      <contour>
        <pt x="-207" y="698" on="1"/>
        <pt x="-325" y="808" on="1"/>
        <pt x="-263" y="859" on="1"/>
        <pt x="-167" y="738" on="1"/>
      </contour>
    </TTGlyph>
    <TTGlyph name="greater" xMin="115" yMin="54" xMax="399" yMax="522">
      <contour>
        <pt x="115" y="92" on="1"/>
        <pt x="319" y="288" on="1"/>
        <pt x="115" y="484" on="1"/>
        <pt x="158" y="522" on="1"/>
        <pt x="399" y="288" on="1"/>
        <pt x="158" y="54" on="1"/>
      </contour>
    </TTGlyph>
    <TTGlyph name="greaterequal" xMin="64" yMin="0" xMax="399" yMax="586">
      <contour>
        <pt x="115" y="156" on="1"/>
        <pt x="319" y="352" on="1"/>
        <pt x="115" y="548" on="1"/>
        <pt x="158" y="586" on="1"/>
        <pt x="399" y="352" on="1"/>
        <pt x="158" y="118" on="1"/>
      </contour>
      <contour>
        <pt x="64" y="0" on="1"/>
        <pt x="64" y="64" on="1"/>
        <pt x="384" y="64" on="1"/>
        <pt x="384" y="0" on="1"/>
      </contour>
    </TTGlyph>
    <TTGlyph name="guillemotleft" xMin="64" yMin="31" xMax="372" yMax="417">
      <contour>
        <pt x="198" y="51" on="1"/>
        <pt x="128" y="31" on="1"/>
        <pt x="64" y="224" on="1"/>
        <pt x="128" y="417" on="1"/>
        <pt x="198" y="397" on="1"/>
        <pt x="141" y="224" on="1"/>
      </contour>
      <contour>
        <pt x="372" y="57" on="1"/>
        <pt x="302" y="37" on="1"/>
        <pt x="240" y="224" on="1"/>
        <pt x="302" y="411" on="1"/>
        <pt x="372" y="391" on="1"/>
        <pt x="317" y="224" on="1"/>
      </contour>
    </TTGlyph>
    <TTGlyph name="guillemotright" xMin="76" yMin="31" xMax="384" yMax="417">
      <contour>
        <pt x="320" y="31" on="1"/>
        <pt x="250" y="51" on="1"/>
        <pt x="307" y="224" on="1"/>
        <pt x="250" y="397" on="1"/>
        <pt x="320" y="417" on="1"/>
        <pt x="384" y="224" on="1"/>
      </contour>
      <contour>
        <pt x="146" y="37" on="1"/>
        <pt x="76" y="57" on="1"/>
        <pt x="131" y="224" on="1"/>
        <pt x="76" y="391" on="1"/>
        <pt x="146" y="411" on="1"/>
        <pt x="208" y="224" on="1"/>
      </contour>
    </TTGlyph>
    <TTGlyph name="guilsinglleft" xMin="138" yMin="31" xMax="272" yMax="417">
      <contour>
        <pt x="272" y="51" on="1"/>
        <pt x="202" y="31" on="1"/>
        <pt x="138" y="224" on="1"/>
        <pt x="202" y="417" on="1"/>
        <pt x="272" y="397" on="1"/>
        <pt x="215" y="224" on="1"/>
      </contour>
    </TTGlyph>
    <TTGlyph name="guilsinglright" xMin="176" yMin="31" xMax="310" yMax="417">
      <contour>
        <pt x="246" y="31" on="1"/>
        <pt x="176" y="51" on="1"/>
        <pt x="233" y="224" on="1"/>
        <pt x="176" y="397" on="1"/>
        <pt x="246" y="417" on="1"/>
        <pt x="310" y="224" on="1"/>
      </contour>
    </TTGlyph>
    <TTGlyph name="h" xMin="62" yMin="0" xMax="386" yMax="640">
      <contour>
        <pt x="316" y="452" on="0"/>
        <pt x="386" y="384" on="0"/>
        <pt x="386" y="302" on="1"/>
        <pt x="386" y="0" on="1"/>
        <pt x="324" y="0" on="1"/>
        <pt x="324" y="296" on="1"/>
        <pt x="324" y="350" on="0"/>
        <pt x="290" y="396" on="0"/>
        <pt x="249" y="396" on="1"/>
        <pt x="189" y="396" on="0"/>
        <pt x="124" y="333" on="1"/>
        <pt x="124" y="0" on="1"/>
        <pt x="62" y="0" on="1"/>
        <pt x="62" y="640" on="1"/>
        <pt x="124" y="640" on="1"/>
        <pt x="124" y="393" on="1"/>
        <pt x="154" y="420" on="0"/>
        <pt x="225" y="452" on="0"/>
        <pt x="261" y="452" on="1"/>
      </contour>
    </TTGlyph>
    <TTGlyph name="hbar" xMin="10" yMin="0" xMax="386" yMax="640">
      <contour>
        <pt x="316" y="452" on="0"/>
        <pt x="386" y="384" on="0"/>
        <pt x="386" y="302" on="1"/>
        <pt x="386" y="0" on="1"/>
        <pt x="324" y="0" on="1"/>
        <pt x="324" y="296" on="1"/>
        <pt x="324" y="350" on="0"/>
        <pt x="290" y="396" on="0"/>
        <pt x="249" y="396" on="1"/>
        <pt x="189" y="396" on="0"/>
        <pt x="124" y="333" on="1"/>
        <pt x="124" y="0" on="1"/>
        <pt x="62" y="0" on="1"/>
        <pt x="62" y="504" on="1"/>
        <pt x="10" y="504" on="1"/>
        <pt x="10" y="564" on="1"/>
        <pt x="62" y="564" on="1"/>
        <pt x="62" y="640" on="1"/>
        <pt x="124" y="640" on="1"/>
        <pt x="124" y="564" on="1"/>
        <pt x="266" y="564" on="1"/>
        <pt x="266" y="504" on="1"/>
        <pt x="124" y="504" on="1"/>
        <pt x="124" y="393" on="1"/>
        <pt x="154" y="420" on="0"/>
        <pt x="225" y="452" on="0"/>
        <pt x="261" y="452" on="1"/>
      </contour>
    </TTGlyph>
    <TTGlyph name="hcircumflex" xMin="62" yMin="0" xMax="386" yMax="841">
      <component glyphName="h" x="0" y="0" flags="0x0"/>
      <component glyphName="uni0302" x="448" y="192" flags="0x4"/>
    </TTGlyph>
    <TTGlyph name="heart" xMin="54" yMin="56" xMax="394" yMax="448">
      <contour>
        <pt x="203" y="101" on="0"/>
        <pt x="162" y="169" on="0"/>
        <pt x="125" y="213" on="1"/>
        <pt x="89" y="254" on="0"/>
        <pt x="54" y="316" on="0"/>
        <pt x="54" y="355" on="1"/>
        <pt x="54" y="401" on="0"/>
        <pt x="95" y="448" on="0"/>
        <pt x="128" y="448" on="1"/>
        <pt x="158" y="448" on="0"/>
        <pt x="209" y="397" on="0"/>
        <pt x="224" y="354" on="1"/>
        <pt x="237" y="396" on="0"/>
        <pt x="291" y="448" on="0"/>
        <pt x="320" y="448" on="1"/>
        <pt x="352" y="448" on="0"/>
        <pt x="394" y="401" on="0"/>
        <pt x="394" y="355" on="1"/>
        <pt x="394" y="316" on="0"/>
        <pt x="359" y="254" on="0"/>
        <pt x="323" y="213" on="1"/>
        <pt x="286" y="169" on="0"/>
        <pt x="245" y="101" on="0"/>
        <pt x="240" y="56" on="1"/>
        <pt x="208" y="56" on="1"/>
      </contour>
    </TTGlyph>
    <TTGlyph name="hookabovecomb" xMin="-320" yMin="512" xMax="-128" yMax="704">
      <contour>
        <pt x="-128" y="576" on="1"/>
        <pt x="-192" y="576" on="1"/>
        <pt x="-192" y="640" on="1"/>
        <pt x="-320" y="640" on="1"/>
        <pt x="-320" y="704" on="1"/>
        <pt x="-128" y="704" on="1"/>
      </contour>
      <contour>
        <pt x="-256" y="576" on="1"/>
        <pt x="-192" y="576" on="1"/>
        <pt x="-192" y="512" on="1"/>
        <pt x="-256" y="512" on="1"/>
      </contour>
    </TTGlyph>
    <TTGlyph name="hookabovecomb.case" xMin="-320" yMin="640" xMax="-128" yMax="832">
      <contour>
        <pt x="-128" y="704" on="1"/>
        <pt x="-192" y="704" on="1"/>
        <pt x="-192" y="768" on="1"/>
        <pt x="-320" y="768" on="1"/>
        <pt x="-320" y="832" on="1"/>
        <pt x="-128" y="832" on="1"/>
      </contour>
      <contour>
        <pt x="-256" y="704" on="1"/>
        <pt x="-192" y="704" on="1"/>
        <pt x="-192" y="640" on="1"/>
        <pt x="-256" y="640" on="1"/>
      </contour>
    </TTGlyph>
    <TTGlyph name="house" xMin="62" yMin="64" xMax="386" yMax="458">
      <contour>
        <pt x="200" y="458" on="1"/>
        <pt x="248" y="458" on="1"/>
        <pt x="386" y="320" on="1"/>
        <pt x="386" y="64" on="1"/>
        <pt x="62" y="64" on="1"/>
        <pt x="62" y="320" on="1"/>
      </contour>
      <contour>
        <pt x="318" y="302" on="1"/>
        <pt x="224" y="393" on="1"/>
        <pt x="130" y="302" on="1"/>
        <pt x="130" y="128" on="1"/>
        <pt x="318" y="128" on="1"/>
      </contour>
    </TTGlyph>
    <TTGlyph name="hungarumlaut" xMin="128" yMin="512" xMax="448" yMax="704">
      <component glyphName="uni030B" x="448" y="0" flags="0x0"/>
    </TTGlyph>
</ttFont>
